<?xml version="1.0" standalone="no"?>
<!DOCTYPE svg PUBLIC "-//W3C//DTD SVG 20010904//EN"
 "http://www.w3.org/TR/2001/REC-SVG-20010904/DTD/svg10.dtd">
<svg version="1.0" xmlns="http://www.w3.org/2000/svg"
 width="193.000000pt" height="193.000000pt" viewBox="0 0 193.000000 193.000000"
 preserveAspectRatio="xMidYMid meet">
<metadata>
Created by potrace 1.14, written by Peter Selinger 2001-2017
</metadata>
<g transform="translate(0.000000,193.000000) scale(0.100000,-0.100000)"
fill="#000000" stroke="none">
<path d="M902 1770 c-18 -11 -41 -20 -51 -20 -9 0 -38 -10 -62 -22 -38 -20
-51 -22 -97 -14 -60 10 -85 -1 -62 -29 7 -8 18 -15 24 -15 45 -2 77 -112 35
-125 -23 -8 -49 -59 -49 -97 0 -36 48 -88 82 -88 18 0 24 -6 24 -22 0 -24 -7
-33 -70 -101 -21 -23 -47 -61 -57 -84 -19 -40 -22 -42 -117 -74 -53 -17 -102
-36 -108 -41 -7 -5 -11 -29 -9 -54 2 -37 9 -52 39 -83 20 -20 36 -39 36 -43 0
-3 -12 -5 -27 -6 -16 0 -39 0 -53 -1 l-25 -1 1 -159 c1 -166 5 -191 30 -170
11 9 17 9 29 -1 12 -10 15 -10 15 1 0 11 2 11 10 -1 11 -17 10 -19 15 60 4 60
4 64 12 57 3 -4 13 -1 21 6 13 9 14 9 8 0 -4 -7 -3 -13 3 -13 5 0 15 -24 22
-54 9 -44 16 -55 34 -59 13 -2 30 0 38 5 10 5 18 4 23 -3 4 -8 9 -7 15 2 8 12
10 12 18 0 5 -8 11 -9 15 -3 3 5 22 8 41 6 32 -3 36 0 41 26 6 26 17 34 62 45
6 2 9 -1 6 -7 -3 -5 2 -8 11 -6 12 2 21 -8 29 -31 6 -19 18 -36 26 -39 13 -3
13 -2 0 7 -8 6 -10 11 -4 11 5 0 15 -5 22 -12 9 -9 12 -9 12 1 0 7 5 9 13 4
39 -24 42 0 13 98 -20 67 -21 64 9 77 25 12 25 11 25 -41 1 -70 31 -137 63
-137 12 0 29 -6 36 -13 12 -10 13 -8 7 8 -6 16 -5 18 5 7 15 -14 33 -16 25 -3
-4 5 2 7 13 4 10 -3 22 1 26 8 6 8 4 10 -6 4 -8 -5 -10 -4 -6 0 10 12 38 15
31 4 -3 -5 0 -9 6 -9 6 0 9 -3 7 -8 -3 -4 10 -7 28 -7 18 0 31 3 29 7 -2 4 -1
9 3 11 7 4 8 72 4 167 -1 12 -12 16 -43 15 l-43 0 -5 -50 c-4 -40 -9 -50 -25
-53 -34 -4 -48 14 -51 61 -3 56 13 79 54 80 18 1 32 6 32 12 0 5 4 4 9 -4 6
-9 10 -10 16 -2 5 9 10 9 21 0 13 -11 19 -2 15 23 -1 6 62 38 75 38 2 0 -1
-12 -6 -26 -17 -45 -18 -156 -2 -207 8 -25 18 -44 22 -42 4 3 11 -2 14 -11 3
-8 14 -14 24 -12 11 2 27 -4 37 -12 17 -14 18 -13 12 4 -6 15 -5 17 6 8 10 -9
17 -8 26 1 10 9 11 9 6 -5 -5 -13 -2 -15 14 -11 11 3 19 9 16 13 -2 4 7 5 20
2 15 -2 25 0 25 7 0 7 4 10 9 7 5 -4 19 14 31 38 16 34 21 60 19 114 -4 125
-37 165 -139 166 l-58 0 75 49 c101 64 103 67 103 130 l0 54 -77 21 c-43 12
-98 24 -123 28 -78 12 -86 32 -44 109 23 41 25 51 16 83 -5 21 -9 48 -8 62 2
14 -2 28 -8 32 -6 4 -12 38 -14 75 -1 37 -4 82 -6 98 -2 17 -4 35 -5 41 -1 13
-35 54 -45 54 -4 0 -22 11 -40 25 -17 13 -59 31 -91 39 -33 7 -73 19 -88 25
-42 16 -78 13 -115 -9z m-406 -1002 c-11 18 5 14 19 -5 19 -26 7 -43 -29 -43
-24 0 -33 5 -33 18 0 29 17 44 35 30 13 -10 14 -10 8 0z m960 -21 c11 -34 7
-117 -7 -133 -16 -20 -46 -17 -59 5 -13 25 -13 107 0 131 7 12 16 17 27 13 11
-4 14 -3 9 5 -5 8 -2 10 8 6 8 -3 18 -16 22 -27z m-795 -23 c17 -8 28 -21 26
-28 -3 -6 -13 -41 -22 -77 -23 -82 -31 -91 -40 -41 -3 23 -15 56 -24 76 -13
25 -14 33 -4 29 8 -3 15 5 19 26 8 36 6 36 45 15z"/>
<path d="M90 850 l-55 -5 0 -157 c0 -121 3 -160 14 -170 11 -11 13 -11 6 0 -6
11 -3 11 13 1 16 -10 23 -10 35 0 11 9 17 9 22 0 6 -8 10 -7 16 2 5 9 9 9 9 3
0 -16 38 -25 47 -12 4 7 1 8 -8 3 -8 -5 -10 -4 -6 0 10 11 39 16 32 6 -2 -5 7
-6 20 -3 14 2 25 9 25 14 0 5 4 7 8 4 5 -3 17 9 28 27 27 45 28 200 1 240 -29
44 -90 58 -207 47z m85 -80 c-3 -5 3 -10 14 -10 17 0 21 -7 22 -32 5 -101 -8
-131 -50 -126 -25 3 -26 5 -26 78 -1 65 2 77 20 87 25 15 28 16 20 3z"/>
<path d="M1623 844 c-10 -4 -13 -47 -13 -164 0 -170 -1 -166 55 -165 l30 0 3
93 3 94 22 -44 c37 -70 49 -90 84 -131 7 -9 23 -13 40 -10 15 2 33 5 40 5 8 1
12 49 13 165 l1 163 -46 0 -45 0 0 -87 0 -87 -54 85 c-48 77 -56 84 -87 86
-19 1 -40 0 -46 -3z"/>
<path d="M662 489 c-63 -13 -87 -52 -91 -150 -3 -74 16 -147 40 -154 10 -4 19
-11 19 -16 0 -6 5 -7 10 -4 6 3 10 1 10 -4 0 -6 5 -11 11 -11 5 0 8 4 5 8 -7
11 31 8 41 -3 5 -4 2 -5 -6 0 -10 6 -12 4 -7 -4 5 -8 12 -9 20 -2 16 13 68 22
61 10 -10 -15 27 3 48 24 31 31 44 78 42 152 -3 87 -16 120 -54 140 -35 18
-102 24 -149 14z m62 -81 c-5 -7 -2 -9 8 -5 11 4 18 -2 22 -16 10 -38 6 -123
-6 -135 -16 -16 -57 -15 -64 1 -17 45 -4 164 16 152 6 -4 10 -1 10 4 0 6 5 11
11 11 5 0 7 -5 3 -12z"/>
<path d="M162 481 c-9 -5 -14 -55 -17 -172 -3 -90 -2 -158 1 -151 3 6 10 12
15 12 6 0 8 -4 5 -9 -7 -10 20 -9 30 2 12 12 26 8 18 -6 -5 -8 -4 -9 4 -2 7 6
12 54 13 118 1 110 12 139 24 65 13 -81 25 -118 41 -118 8 0 12 -5 8 -11 -5
-8 -1 -8 14 0 15 8 22 8 25 -2 4 -9 6 -8 6 2 1 10 4 11 15 2 10 -9 16 -8 26 4
7 8 9 15 6 15 -4 0 -3 8 3 18 5 9 12 38 15 64 4 26 11 58 16 70 7 18 9 10 10
-37 3 -118 7 -176 14 -182 11 -11 35 -12 42 -2 3 6 12 5 22 -3 12 -10 14 -10
8 0 -4 6 -3 12 2 12 5 0 8 26 7 57 -2 32 -3 97 -4 145 -1 111 -9 120 -94 114
-34 -2 -63 -5 -63 -5 -2 -1 -24 -115 -28 -143 -5 -39 -13 -24 -26 44 -18 103
-19 104 -87 106 -32 0 -64 -3 -71 -7z"/>
<path d="M918 477 c-10 -11 -13 -50 -13 -160 0 -80 4 -149 8 -153 11 -12 36
-13 43 -3 3 5 10 9 15 9 6 0 7 -5 4 -10 -3 -5 -2 -10 3 -10 16 0 19 20 18 102
-1 61 1 75 11 66 7 -6 10 -14 7 -19 -3 -5 2 -12 10 -15 9 -3 13 -10 10 -15 -3
-5 0 -9 5 -9 6 0 11 -7 11 -15 0 -8 5 -15 10 -15 6 0 10 -7 10 -15 0 -8 5 -15
11 -15 5 0 7 -4 4 -10 -3 -5 -1 -10 4 -10 6 0 11 -8 12 -17 0 -11 3 -13 6 -5
2 6 9 12 14 12 6 0 8 -4 5 -9 -7 -10 20 -9 30 2 12 12 26 8 18 -6 -5 -9 -4 -9
7 1 10 9 13 50 14 170 l0 157 -45 0 -45 0 1 -82 c0 -46 -3 -83 -8 -83 -4 0 -8
5 -8 12 0 13 -79 139 -95 150 -17 12 -63 9 -77 -5z"/>
<path d="M1261 464 c-20 -26 -22 -37 -18 -139 4 -122 7 -140 27 -158 10 -9 11
-9 6 0 -5 9 -2 11 8 7 9 -3 14 -9 11 -14 -6 -9 51 -7 61 2 3 4 16 3 27 -3 10
-6 17 -7 14 -2 -4 5 0 10 8 10 8 0 12 -4 9 -9 -3 -4 0 -8 5 -8 6 0 11 5 11 10
0 6 5 10 11 10 5 0 7 -6 3 -12 -6 -10 -5 -10 8 -1 8 7 18 10 22 6 3 -4 5 13 3
38 l-4 44 -49 1 c-87 3 -86 2 -82 26 2 16 10 22 30 23 15 1 25 -2 22 -7 -3 -4
0 -8 5 -8 6 0 11 5 11 10 0 6 5 10 11 10 5 0 7 -5 3 -11 -4 -8 1 -7 15 1 17 9
21 19 19 43 -3 32 -4 32 -58 32 -46 0 -55 3 -58 19 -3 14 0 17 13 13 9 -4 13
-3 10 2 -3 5 -1 12 4 15 5 3 12 -1 15 -9 4 -13 10 -14 26 -5 11 6 30 8 44 6
22 -4 24 -2 22 37 l-1 42 -96 3 c-95 3 -97 3 -118 -24z"/>
<path d="M1495 475 c3 -8 8 -23 12 -32 3 -10 7 -20 8 -23 4 -15 71 -145 75
-148 3 -1 5 -25 4 -52 -1 -28 2 -50 8 -50 5 0 7 -4 4 -8 -5 -9 70 -9 79 0 3 2
6 25 6 49 1 24 13 69 27 99 59 131 72 161 72 170 0 6 -21 9 -46 8 -46 -1 -47
-2 -70 -55 -13 -29 -24 -60 -24 -69 0 -8 -4 -12 -10 -9 -5 3 -10 15 -10 25 0
11 -10 39 -21 63 -21 43 -23 44 -70 46 -38 0 -47 -2 -44 -14z"/>
</g>
</svg>
