<svg width="787" height="340" viewBox="0 0 787 340" fill="none" xmlns="http://www.w3.org/2000/svg">
<g clip-path="url(#clip0_269_2497)">
<path d="M495.413 196.866L563.223 212.809L612.421 110.838L499.827 84.3399L495.413 196.866Z" fill="#FFFEFF"/>
<path d="M596.683 107.126L498.971 106.715L499.604 90.5324L526.632 90.6522L596.683 107.126Z" fill="#BE1818"/>
<path d="M606.844 122.385L599.06 138.533L497.722 138.105L498.355 121.923L606.844 122.385Z" fill="#BE1818"/>
<path d="M591.739 153.723L583.956 169.872L496.491 169.495L497.124 153.33L591.739 153.723Z" fill="#BE1818"/>
<path d="M576.634 185.062L568.851 201.194L512.862 200.971L495.413 196.866L495.909 184.703L576.634 185.062Z" fill="#BE1818"/>
<g style="mix-blend-mode:multiply">
<path d="M498.595 115.679L592.8 151.517L612.421 110.838L499.826 84.3399L498.595 115.679Z" fill="#CCCCCC"/>
</g>
<path d="M563.069 68.106L553.626 66.8743L546.784 65.9335C545.295 50.1443 540.249 31.4812 533.355 20.9779C530.18 35.9732 532.512 51.6104 539.924 65.0268L520.491 62.4437C520.491 62.4437 519.533 61.1437 518.096 58.8685C517.874 58.5606 517.668 58.2356 517.446 57.8592C515.133 54.1758 513.07 50.341 511.271 46.3808V46.244C504.599 31.3272 500.459 10.3206 524.34 2.26351C563.017 -10.84 563.069 68.106 563.069 68.106Z" fill="#FBB03B"/>
<path d="M539.838 64.9926L520.405 62.4096C520.405 62.4096 519.447 61.1094 518.01 58.8343C517.788 58.5264 517.583 58.2014 517.36 57.825C515.047 54.1416 512.984 50.3069 511.185 46.3467V46.2098C510.535 44.1057 503.538 19.9002 519.02 13.2971C524.152 11.0904 529.112 14.4775 533.304 20.9437C530.118 35.9349 532.438 51.5718 539.838 64.9926Z" fill="#E67C20"/>
<path d="M562.864 68.106L571.861 71.2194L578.482 73.4603C586.847 59.9976 599.694 45.5427 610.539 39.2475C606.698 54.0843 597.636 67.0389 585.016 75.7354L603.577 82.099C603.577 82.099 605.014 81.3634 607.306 79.9607C607.631 79.7896 607.973 79.5843 608.332 79.362C612.05 77.0956 615.611 74.581 618.99 71.8352L619.075 71.7325C631.7 61.3489 644.735 44.3623 626.978 26.5204C598.103 -2.5947 562.864 68.106 562.864 68.106Z" fill="#FBB03B"/>
<path d="M585.016 75.6157L603.577 81.9792C603.577 81.9792 605.013 81.2437 607.306 79.841C607.631 79.6699 607.973 79.4646 608.332 79.2423C612.05 76.9759 615.61 74.4613 618.989 71.7154L619.075 71.6128C620.597 70.0048 637.652 51.4615 626.739 38.6488C623.078 34.3722 617.176 35.2275 610.539 39.1278C606.697 53.9646 597.636 66.9192 585.016 75.6157Z" fill="#E67C20"/>
<path d="M576.668 67.9349C574.667 76.4881 567.294 81.945 560.195 80.2686C553.096 78.5922 548.956 70.364 550.94 61.8963C552.924 53.4287 560.314 47.8862 567.414 49.5627C574.513 51.2391 578.704 59.5528 576.668 67.9349Z" fill="#FBB03B"/>
<path d="M556.722 63.8465C558.433 56.5078 564.369 51.4786 570.51 51.7181C569.887 51.419 569.233 51.1895 568.56 51.0338C561.717 49.4258 554.618 54.7287 552.685 62.9056C550.752 71.0824 554.755 78.9856 561.598 80.5936C562.277 80.753 562.97 80.8447 563.668 80.8673C558.057 78.3698 554.995 71.2022 556.722 63.8465Z" fill="#E67C20"/>
<g style="mix-blend-mode:overlay" opacity="0.3">
<path d="M573.949 58.3211C574.291 60.6818 573.23 62.7859 571.588 63.0254C569.946 63.2649 568.355 61.52 568.03 59.1593C567.705 56.7986 568.748 54.6946 570.373 54.4551C571.998 54.2156 573.572 55.9604 573.949 58.3211Z" fill="white"/>
</g>
<path d="M626.482 82.2701L617.142 121.923L490.658 92.1576L499.416 54.8827L551.847 66.173L572.255 70.5864L626.482 82.2701Z" fill="#B71E20"/>
<path d="M546.886 208.977L514.64 201.382L541.412 104.098L543.995 94.7406L551.847 66.1729L572.255 70.5864L566.849 100.112L565.087 109.657L546.886 208.977Z" fill="#FBB03B"/>
<path d="M718.788 154.938C735.022 160.07 709.858 203.982 706.146 210.277C722.312 195.258 734.936 185.353 739.641 181.761H739.521L739.829 181.658L741.642 180.29V180.409C750.195 169.495 777.36 136.771 785.52 149.789C792.003 160.053 769.2 171.788 753.274 178.425C765.352 176.047 780.85 174.491 780.149 182.411C779.208 193.119 751.786 185.61 742.515 182.736C726.313 195.159 710.925 208.609 696.447 223.004C709.687 217.068 747.766 201.365 748.912 216.453C750.178 232.669 704.436 226.905 694.018 225.399C674.745 244.484 657.114 265.159 641.313 287.205C653.168 280.003 690.135 258.962 693.18 274.015C696.396 290.01 649.918 289.77 639.671 289.514C632.538 299.669 625.927 310.18 619.862 321.007L617.655 319.775C628.82 300.006 641.657 281.229 656.025 263.649C654.896 256.806 646.599 203.777 663.398 207.198C679.289 210.397 661.396 252.667 657.068 262.366C672.059 244.074 688.273 226.82 705.599 210.722C705.291 206.12 702.007 149.721 718.788 154.938Z" fill="#0F5442"/>
<path d="M728.71 161.986C719.849 157.538 707.584 159.745 701.631 161.25C708.656 158.507 715.916 156.405 723.321 154.972C723.481 154.939 723.636 154.887 723.783 154.818C731.344 155.708 749.101 156.837 756.918 149.122C766.977 139.2 774.487 123.257 774.487 123.257C774.487 123.257 747.544 131.468 738.272 138.482C733.069 142.501 728.078 146.789 723.321 151.329C723.141 151.294 722.955 151.294 722.774 151.329C722.398 151.329 708.234 153.672 687.364 163.183C694.685 158.582 707.755 148.472 707.789 134.701C707.789 115.559 708.217 102.558 708.217 102.558C708.217 102.558 686.765 122.453 686.902 134.821C687.022 146.795 685.79 159.18 682.779 165.322C665.077 173.991 648.537 184.853 633.547 197.653C637.807 192.127 642.699 183.574 641.57 174.542C639.654 159.146 643.708 152.834 643.708 152.834C643.708 152.834 623.643 172.369 625.73 183.625C627.543 193.342 629.613 197.789 628.586 202.015C611.086 217.775 595.622 235.658 582.553 255.25C584.178 250.118 585.393 242.984 582.741 236.433C577.951 224.561 581.852 211.201 581.852 211.201C581.852 211.201 559.75 230.617 567.842 243.002C573.812 252.171 577.421 258.243 578.892 260.792C570.806 273.426 563.544 286.568 557.15 300.137C556.973 300.514 556.927 300.94 557.02 301.346C557.113 301.752 557.34 302.115 557.663 302.378C557.778 302.474 557.904 302.554 558.04 302.617C558.261 302.724 558.5 302.786 558.745 302.798C558.99 302.811 559.235 302.775 559.466 302.693C559.697 302.61 559.909 302.482 560.09 302.316C560.271 302.151 560.417 301.951 560.52 301.728C570.937 279.42 583.85 258.364 599.009 238.965C609.906 237.408 612.096 240.675 623.164 241.359C635.138 242.129 655.666 221.02 655.666 221.02C646.583 224.008 636.917 224.782 627.474 223.278C619.759 222.063 612.079 225.878 606.262 230.12C620.549 213.295 636.96 198.396 655.084 185.798C667.452 189.869 672.618 199.363 682.642 202.494C693.334 205.812 712.459 188.261 712.459 188.261C704.607 187.765 695.181 184.943 684.028 179.708C677.955 176.834 669.197 178.682 662.457 180.991C673.922 173.644 686.073 167.428 698.74 162.431C709.482 163.833 712.425 171.6 728.915 178.22C733.794 180.194 739.09 180.914 744.318 180.317C749.547 179.719 754.544 177.822 758.851 174.798C750.794 173.464 740.804 168.041 728.71 161.986Z" fill="#46D73F"/>
<path d="M627.834 254.771C645.624 230.617 598.051 228.906 598.051 228.906C598.051 228.906 711.723 188.261 657.924 132.169C604.124 76.0776 558.707 187.902 558.707 187.902C558.707 187.902 559.134 140.295 534.21 157.11C509.286 173.926 511.989 224.818 511.989 224.818C478.307 226.802 498.886 284.69 498.886 284.69C498.886 284.69 555.833 307.732 559.271 274.169C559.22 274.187 610.026 278.942 627.834 254.771Z" fill="#114F26"/>
<path d="M627.834 254.771C645.624 230.617 598.051 228.906 598.051 228.906C598.051 228.906 711.723 188.261 657.924 132.169L498.834 284.639C498.834 284.639 555.782 307.681 559.22 274.118C559.22 274.187 610.026 278.942 627.834 254.771Z" fill="#0D3B1D"/>
<path d="M498.834 284.707L500.733 285.425L539.702 247.432C545.09 247.432 550.479 247.586 555.867 247.432C561.256 247.278 566.952 247.141 572.495 246.645C566.969 245.91 561.444 245.499 555.918 245.14C551.505 244.832 547.075 244.678 542.644 244.541L561.016 226.648H561.991C565.755 226.648 571.109 226.648 574.872 226.562C579.029 226.46 584.76 226.254 588.934 225.878C585.085 225.365 579.645 224.903 575.796 224.646H574.804C571.571 224.424 567.174 224.185 563.736 224.065L582.331 205.932H583.169C585.684 205.932 591.363 205.812 593.878 205.744C596.392 205.675 602.585 205.419 605.356 205.179C602.79 204.837 597.076 204.307 594.493 204.153H593.689C591.654 203.999 587.428 203.708 584.811 203.589L603.628 185.233H604.364C605.63 185.233 611.634 184.994 612.917 184.96C614.2 184.925 620.444 184.618 621.829 184.481C620.546 184.31 614.525 183.745 613.276 183.66H612.626C611.702 183.66 608.007 183.266 605.938 183.129L624.891 164.312H625.49L631.819 163.953L638.166 163.594L631.854 162.961L626.824 162.465L650.158 139.713L626.499 162.02L626.209 156.974L625.849 150.644L625.216 156.957L624.584 163.269V163.868L605.082 182.223C605.082 179.913 604.911 175.996 604.894 174.952C604.894 173.635 604.569 167.545 604.449 166.16C604.347 166.861 604.039 169.889 603.987 170.607C603.936 171.326 603.645 174.439 603.611 175.158C603.611 176.406 603.064 182.377 603.047 183.608C603.047 183.694 603.047 183.916 603.047 184.156L583.597 202.477C583.597 199.5 583.597 195.138 583.597 192.948C583.597 190.297 583.306 184.395 583.049 181.692C582.861 183.078 582.57 186.037 582.45 187.457C582.331 188.877 582.091 191.905 582.023 193.359C581.886 195.856 581.544 201.502 581.527 203.965C581.527 204.085 581.527 204.29 581.527 204.461L562.128 222.731C562.231 218.933 562.282 214.366 562.231 210.944C562.231 206.958 561.991 201.365 561.615 197.259C561.341 199.329 561.05 202.22 560.879 204.341C560.708 206.462 560.486 209.473 560.383 211.594C560.178 215.341 559.973 220.644 559.956 224.339V224.818L540.591 243.036C540.762 238.297 540.933 233.61 540.865 228.957C540.865 223.654 540.66 218.317 540.146 212.775C539.793 215.546 539.502 218.351 539.274 221.191C539.035 224.031 538.863 226.904 538.727 229.744C538.453 234.876 538.402 240.008 538.384 245.14L498.338 282.774C498.578 283.988 498.834 284.707 498.834 284.707Z" fill="#007A23"/>
<path d="M598.804 144.64C598.278 144.21 597.636 143.946 596.96 143.882C596.284 143.818 595.604 143.957 595.006 144.281C564.42 157.658 521.056 169.803 511.185 173.977C508.003 167.597 493.874 138.909 505.745 110.906C506.259 109.726 505.506 108.802 504.035 108.87C503.292 108.923 502.576 109.164 501.953 109.571C501.33 109.978 500.822 110.538 500.477 111.197C488.006 141.544 503.436 171.069 506.618 177.159C506.581 177.283 506.553 177.408 506.532 177.536C506.532 177.849 506.645 178.152 506.848 178.391C507.052 178.629 507.334 178.787 507.644 178.836H507.952L508.209 178.938C509.023 179.065 509.856 178.875 510.535 178.408C510.672 178.305 510.775 178.186 510.894 178.083C520.457 174.012 565.122 161.336 597.829 147.206C599.232 146.607 599.574 145.461 598.804 144.64Z" fill="#007228"/>
<path d="M556.107 188.415C555.669 187.959 555.08 187.678 554.451 187.625C553.821 187.571 553.194 187.749 552.685 188.124C525.709 202.767 495.43 209.422 489.392 210.961C485.594 208.173 465.614 194.471 466.743 168.623C466.743 167.409 465.768 166.912 464.434 167.408C463.769 167.677 463.185 168.112 462.738 168.673C462.292 169.233 461.998 169.9 461.885 170.607C460.944 197.978 481.112 211.663 485.714 214.964C485.803 215.165 485.943 215.338 486.12 215.467C486.297 215.596 486.505 215.677 486.723 215.7C486.819 215.717 486.918 215.717 487.014 215.7C487.094 215.744 487.181 215.773 487.271 215.785C487.831 215.822 488.388 215.678 488.861 215.375C496.046 213.544 526.495 206.531 554.772 191.203C556.141 190.502 556.688 189.253 556.107 188.415Z" fill="#007228"/>
<path d="M536.4 210.961C518.411 220.138 499.383 227.116 479.726 231.746C476.117 229.761 456.821 220.199 452.544 197.533C452.339 196.421 451.176 196.181 449.927 197.003C449.336 197.371 448.854 197.89 448.529 198.506C448.205 199.122 448.05 199.814 448.079 200.509C452.732 224.133 471.874 233.662 476.459 236.074C476.561 236.231 476.7 236.362 476.864 236.455C477.028 236.547 477.212 236.598 477.4 236.604C477.49 236.621 477.583 236.621 477.673 236.604H477.93C478.396 236.604 478.852 236.473 479.247 236.228C499.622 231.252 519.334 223.879 537.973 214.263C538.526 214.044 538.98 213.632 539.25 213.103C539.521 212.574 539.59 211.965 539.445 211.389C539.017 210.517 537.648 210.294 536.4 210.961Z" fill="#007228"/>
<path d="M515.41 233.833C497.226 244.233 476.442 248.339 472.644 249.228C469.582 248.082 452.578 242.659 446.985 227.555C446.625 226.545 445.428 226.528 444.316 227.555C443.788 227.983 443.385 228.546 443.15 229.184C442.916 229.823 442.857 230.512 442.982 231.181C449.02 246.97 465.767 252.393 469.907 253.847C470.106 254.037 470.368 254.147 470.643 254.155H470.934H471.19C471.52 254.146 471.843 254.058 472.131 253.898C477.16 252.786 497.791 248.305 516.71 237.408C517.259 237.147 517.705 236.711 517.981 236.17C518.256 235.629 518.345 235.011 518.233 234.414C517.873 233.354 516.608 233.131 515.41 233.833Z" fill="#007228"/>
<path d="M583.015 93.526C582.796 93.7569 582.652 94.0495 582.604 94.3643C582.598 94.6667 582.687 94.9634 582.859 95.2122C583.031 95.461 583.277 95.6491 583.562 95.7499C583.679 95.7942 583.799 95.8285 583.922 95.8525C584.007 95.8525 584.058 95.9894 584.161 96.0407C584.941 96.3615 585.798 96.4449 586.624 96.2802C587.055 96.2137 587.472 96.075 587.856 95.8697C608.135 93.5232 627.984 88.3407 646.822 80.4739C648.122 79.9265 648.276 78.7632 647.147 77.9935C646.498 77.5784 645.763 77.3179 644.998 77.2318C644.232 77.1458 643.458 77.2367 642.733 77.4974C625.568 84.8045 607.475 89.7034 588.968 92.0549C588.968 87.3335 590.2 72.8957 611.993 58.783C613.173 58.0474 613.037 56.9184 611.788 56.2341C611.073 55.9083 610.292 55.7555 609.507 55.7882C608.723 55.8209 607.957 56.0382 607.272 56.4223C582.587 72.8616 582.69 89.0955 583.015 93.526Z" fill="#007228"/>
<path d="M562.727 110.65C562.627 110.794 562.557 110.957 562.521 111.129C562.496 111.448 562.58 111.766 562.761 112.031C562.941 112.295 563.207 112.49 563.513 112.583L563.838 112.668C563.926 112.726 564.017 112.777 564.112 112.822C564.942 113.117 565.848 113.117 566.678 112.822C566.902 112.743 567.12 112.645 567.328 112.531C600.126 108.531 632.565 101.999 664.356 92.9957C665.724 92.5852 666.066 91.5246 665.023 90.618C664.422 90.1456 663.72 89.8194 662.972 89.665C662.224 89.5107 661.45 89.5324 660.712 89.7285C619.657 102.113 579.132 107.194 568.337 108.665C566.901 102.575 560.828 75.034 593.313 48.5191C594.408 47.6809 594.168 46.5177 592.748 45.9874C592.001 45.7303 591.205 45.6491 590.422 45.75C589.639 45.8508 588.889 46.1311 588.232 46.569C553.335 75.8552 561.17 104.885 562.727 110.65Z" fill="#007228"/>
<path d="M540.146 133.298C540.057 133.475 539.999 133.666 539.975 133.863C539.967 134.174 540.066 134.478 540.256 134.724C540.446 134.97 540.715 135.144 541.018 135.214C541.127 135.223 541.235 135.223 541.343 135.214C541.423 135.275 541.509 135.327 541.6 135.368C542.405 135.597 543.264 135.537 544.029 135.197C544.268 135.092 544.497 134.966 544.713 134.821C555.542 132.067 603.713 123.189 647.215 109.914C648.583 109.469 648.925 108.392 648.053 107.519C647.484 107.052 646.807 106.735 646.084 106.597C645.36 106.46 644.614 106.506 643.913 106.732C603.268 119.425 556.773 127.978 545.38 130.886C543.311 124.044 533.953 92.4826 560.383 61.9819C561.289 60.9726 560.845 59.8778 559.374 59.5356C558.613 59.3788 557.825 59.4106 557.08 59.6283C556.334 59.8459 555.654 60.2429 555.097 60.7844C526.974 94.0906 538.059 126.883 540.146 133.298Z" fill="#007228"/>
<path d="M522.253 154.921C522.184 155.091 522.137 155.269 522.116 155.451C522.118 155.759 522.227 156.056 522.423 156.293C522.62 156.53 522.892 156.692 523.194 156.751C523.302 156.76 523.411 156.76 523.519 156.751C523.599 156.807 523.685 156.853 523.776 156.888C524.567 157.052 525.391 156.931 526.102 156.546C526.313 156.427 526.514 156.29 526.701 156.135C536.28 152.954 578.755 142.45 616.612 132.665C618.066 132.255 618.75 131.194 618.151 130.288C617.697 129.779 617.101 129.417 616.439 129.249C615.778 129.082 615.081 129.116 614.439 129.347C578.738 138.653 537.358 148.694 527.197 152.064C524.597 145.495 514.093 118.091 524.118 90.0705C524.528 88.9244 523.604 88.0862 522.048 88.1888C521.304 88.2281 520.584 88.4601 519.957 88.862C519.33 89.2639 518.819 89.8218 518.473 90.4811C508.003 120.691 519.687 148.78 522.253 154.921Z" fill="#007228"/>
<path d="M495.618 195.925C495.664 196.193 495.795 196.44 495.993 196.628C496.19 196.816 496.442 196.935 496.713 196.968C496.815 196.976 496.918 196.976 497.021 196.968C497.106 196.968 497.175 197.071 497.26 197.071C497.965 197.145 498.673 196.969 499.262 196.575C506.583 194.864 534.74 186.79 571.109 172.301C572.477 171.771 573.196 170.59 572.734 169.684C572.344 169.199 571.798 168.865 571.189 168.74C570.58 168.615 569.947 168.707 569.398 168.999C534.125 183.078 506.104 190.896 499.741 192.298C496.439 188.997 480.77 173.755 481.591 143.768C481.591 142.621 480.496 142.057 479.076 142.621C478.398 142.843 477.793 143.246 477.326 143.785C476.859 144.324 476.548 144.981 476.425 145.683C475.843 176.868 491.701 192.144 495.618 195.925Z" fill="#007228"/>
<path d="M621.829 70.6035C532.089 122.059 474.218 216.384 456.907 318.441C456.428 321.229 454.563 323.744 452.715 324.069C450.868 324.394 449.722 322.358 450.15 319.536C450.15 319.536 450.15 319.416 450.15 319.365C468.351 215.221 529.095 120.332 621.829 70.6035Z" fill="#57381B"/>
<path d="M68.7112 154.938C52.4602 160.07 77.6408 203.982 81.3529 210.277C65.1702 195.258 52.5457 185.353 47.8415 181.761H47.9783L47.6704 181.658L45.84 180.29L45.7545 180.409C37.2013 169.495 10.0535 136.771 1.89371 149.789C-4.58961 160.053 18.1961 171.788 34.1393 178.425C22.0621 176.047 6.54665 174.491 7.24801 182.411C8.20597 193.119 35.6104 185.61 44.8821 182.736C61.0805 195.156 76.4624 208.607 90.9324 223.004C77.7092 217.068 39.6133 201.365 38.4843 216.453C37.2184 232.669 82.9609 226.905 93.3615 225.399C112.64 244.483 130.277 265.158 146.083 287.205C134.229 280.003 97.2447 258.962 94.2169 274.015C90.9838 290.01 137.479 289.77 147.709 289.514C154.853 299.665 161.47 310.176 167.535 321.007L169.724 319.775C158.559 300.006 145.723 281.229 131.355 263.649C132.501 256.806 140.798 203.777 123.982 207.198C108.09 210.397 126.001 252.667 130.328 262.366C115.333 244.078 99.119 226.824 81.7976 210.722C82.1227 206.12 85.4926 149.721 68.7112 154.938Z" fill="#0F5442"/>
<path d="M193.708 174.61C190.176 175.846 186.298 175.628 182.926 174.005C179.555 172.382 176.966 169.486 175.729 165.954L136.384 53.2405C135.677 51.1989 134.187 49.5221 132.243 48.5789C130.299 47.6357 128.059 47.5035 126.018 48.2112C123.976 48.919 122.299 50.4088 121.356 52.3529C120.413 54.297 120.281 56.5361 120.989 58.5777L130.346 85.2123C131.491 88.7213 131.216 92.5392 129.58 95.8477C127.943 99.1562 125.076 101.692 121.592 102.912C118.108 104.131 114.285 103.937 110.943 102.371C107.6 100.805 105.004 97.9925 103.711 94.5353L94.3882 67.8664C91.5126 58.8491 92.2692 49.0656 96.4971 40.5976C100.725 32.1295 108.09 25.6455 117.026 22.525C125.961 19.4046 135.762 19.8941 144.342 23.8894C152.922 27.8847 159.605 35.0703 162.968 43.9175L202.312 156.649C203.55 160.172 203.339 164.042 201.725 167.409C200.112 170.777 197.229 173.367 193.708 174.61Z" fill="white"/>
<path d="M94.3879 67.9007L102.394 90.7719L128.207 79.0883L124.786 69.2521L93.9944 66.5664C94.1483 67.0112 94.2339 67.4559 94.3879 67.9007Z" fill="#AE1D22"/>
<path d="M116.695 21.6279C109.52 24.1249 103.321 28.8323 98.9895 35.0736L121.348 52.4707C122.042 50.9824 123.174 49.7414 124.592 48.9131C126.01 48.0848 127.647 47.7087 129.285 47.8349L132.227 19.8146C126.979 19.2751 121.677 19.894 116.695 21.6279Z" fill="#AE1D22"/>
<path d="M163.019 43.9175C162.213 41.6226 161.176 39.4158 159.922 37.3316L138.728 60.1173L147.623 85.5887L171.093 67.2335L163.019 43.9175Z" fill="#AE1D22"/>
<path d="M178.998 89.7747L152.37 99.084L160.008 120.932L186.636 111.623L178.998 89.7747Z" fill="#AE1D22"/>
<path d="M193.683 131.792L167.055 141.101L174.693 162.95L201.321 153.64L193.683 131.792Z" fill="#AE1D22"/>
<g style="mix-blend-mode:multiply">
<path d="M118.85 27.7691C125.449 25.0703 132.795 24.8155 139.566 27.0506C146.502 29.4157 152.368 34.1771 156.108 40.4791C156.535 41.2831 157.032 42.07 157.408 42.9082L158.503 45.4229L160.213 50.2982L163.789 60.0659L170.751 79.6356C175.284 92.722 179.766 105.826 184.025 118.98C188.285 132.135 192.356 145.41 196.137 158.753C190.765 145.957 185.633 133.07 180.741 120.092C175.831 107.126 171.179 94.0905 166.577 81.0212L159.837 61.3832L156.553 51.5127L154.842 46.5861L153.987 44.311C153.679 43.5412 153.268 42.8398 152.926 42.1042C149.779 36.2313 144.722 31.6086 138.591 29.0008C132.33 26.4075 125.384 25.9741 118.85 27.7691Z" fill="#CCCCCC"/>
</g>
<path d="M58.7723 161.986C67.6334 157.538 79.9157 159.745 85.8688 161.25C78.8429 158.507 71.583 156.406 64.1779 154.972C64.0185 154.939 63.8634 154.887 63.716 154.818C56.155 155.708 38.3986 156.837 30.581 149.122C20.5053 139.2 13.0127 123.257 13.0127 123.257C13.0127 123.257 39.9553 131.468 49.2098 138.482C54.4223 142.497 59.4187 146.785 64.1779 151.329C64.3587 151.294 64.5445 151.294 64.7253 151.329C65.1016 151.329 79.2657 153.672 100.118 163.183C92.7969 158.582 79.7447 148.472 79.7105 134.701C79.7105 115.559 79.2828 102.558 79.2828 102.558C79.2828 102.558 100.717 122.487 100.597 134.838C100.478 146.812 101.709 159.197 104.703 165.339C122.413 174.003 138.96 184.866 153.952 197.67C149.693 192.144 144.783 183.591 145.912 174.559C147.828 159.163 143.791 152.851 143.791 152.851C143.791 152.851 163.857 172.386 161.77 183.642C159.957 193.359 157.887 197.807 158.896 202.032C176.4 217.788 191.865 235.672 204.929 255.267C203.321 250.135 202.107 243.002 204.758 236.45C209.531 224.578 205.648 211.218 205.648 211.218C205.648 211.218 227.732 230.634 219.658 243.019C213.688 252.188 210.078 258.261 208.59 260.809C216.688 273.439 223.957 286.581 230.349 300.154C230.526 300.531 230.572 300.957 230.479 301.363C230.386 301.769 230.16 302.133 229.836 302.395C229.722 302.491 229.595 302.571 229.46 302.634C229.239 302.741 228.999 302.803 228.754 302.816C228.509 302.829 228.264 302.793 228.033 302.71C227.802 302.627 227.59 302.499 227.409 302.333C227.228 302.168 227.082 301.968 226.979 301.745C216.555 279.441 203.643 258.386 188.49 238.982C177.593 237.425 175.386 240.692 164.319 241.377C152.344 242.146 131.817 221.037 131.817 221.037C140.9 224.025 150.565 224.799 160.008 223.295C167.723 222.081 175.404 225.895 181.203 230.138C166.922 213.313 150.516 198.414 132.398 185.815C120.03 189.886 114.864 199.38 104.84 202.511C94.1483 205.829 75.0233 188.278 75.0233 188.278C82.8752 187.782 92.3008 184.96 103.454 179.725C109.51 176.851 118.268 178.699 125.025 181.008C113.56 173.661 101.409 167.445 88.7427 162.448C77.9827 163.85 75.0575 171.617 58.5499 178.237C53.6707 180.209 48.3756 180.929 43.1469 180.332C37.9182 179.734 32.9221 177.838 28.6137 174.816C36.6879 173.464 46.6952 168.041 58.7723 161.986Z" fill="#46D73F"/>
<path d="M159.597 254.771C141.875 230.617 189.431 228.906 189.431 228.906C189.431 228.906 75.7591 188.261 129.559 132.169C183.358 76.0776 228.776 187.902 228.776 187.902C228.776 187.902 228.348 140.295 253.255 157.11C278.162 173.926 275.613 224.818 275.613 224.818C309.295 226.802 288.716 284.69 288.716 284.69C288.716 284.69 231.752 307.732 228.331 274.169C228.28 274.187 177.457 278.942 159.597 254.771Z" fill="#114F26"/>
<path d="M159.597 254.771C141.875 230.617 189.431 228.906 189.431 228.906C189.431 228.906 75.7591 188.261 129.559 132.169L288.648 284.639C288.648 284.639 231.684 307.681 228.263 274.118C228.28 274.187 177.457 278.942 159.597 254.771Z" fill="#0D3B1D"/>
<path d="M288.665 284.707L286.766 285.425L247.798 247.432C242.41 247.432 237.021 247.586 231.615 247.432C226.21 247.278 220.548 247.141 215.005 246.645C220.513 245.91 226.039 245.499 231.564 245.14C235.995 244.832 240.408 244.678 244.839 244.541L226.484 226.648H225.508C221.745 226.648 216.391 226.648 212.61 226.562C208.47 226.46 202.723 226.254 198.566 225.878C202.415 225.365 207.855 224.903 211.704 224.646H212.696C215.912 224.424 220.325 224.185 223.764 224.065L205.169 205.932H204.314C201.799 205.932 196.12 205.812 193.605 205.744C191.09 205.675 184.898 205.419 182.127 205.179C184.693 204.837 190.423 204.307 192.989 204.153H193.81C195.846 203.999 200.071 203.708 202.689 203.589L183.872 185.233H183.136C181.887 185.233 175.883 184.994 174.583 184.96C173.283 184.925 167.073 184.618 165.687 184.481C166.97 184.31 172.992 183.745 174.241 183.66H174.874C175.814 183.66 179.509 183.266 181.579 183.129L162.489 164.518H161.89L155.543 164.158L149.214 163.799L155.526 163.166L160.556 162.67L137.205 139.919L160.949 162.26L161.308 157.059L161.685 150.73L162.317 157.042L162.95 163.354V163.953L182.452 182.308C182.452 179.999 182.623 176.081 182.64 175.038C182.64 173.721 182.965 167.631 183.085 166.245C183.085 166.947 183.478 169.974 183.547 170.693C183.615 171.411 183.889 174.525 183.923 175.243C183.923 176.492 184.47 182.462 184.487 183.694C184.487 183.779 184.487 184.002 184.487 184.241L203.937 202.562C203.937 199.586 203.937 195.223 203.937 193.034C203.937 190.382 204.228 184.481 204.468 181.778C204.656 183.164 204.964 186.123 205.066 187.543C205.169 188.963 205.426 191.99 205.511 193.444C205.631 195.942 205.99 201.587 205.99 204.05C205.99 204.17 205.99 204.375 205.99 204.546L225.406 222.816C225.286 219.018 225.235 214.451 225.286 211.03C225.286 207.044 225.543 201.45 225.919 197.345C226.193 199.415 226.484 202.306 226.655 204.427C226.826 206.548 227.031 209.559 227.151 211.68C227.339 215.426 227.544 220.729 227.561 224.424C227.561 224.561 227.561 224.732 227.561 224.903L246.926 243.121C246.737 238.383 246.584 233.696 246.652 229.043C246.652 223.74 246.857 218.403 247.353 212.86C247.73 215.631 248.02 218.437 248.243 221.277C248.465 224.116 248.636 226.99 248.79 229.83C249.064 234.962 249.098 240.094 249.132 245.225L289.178 282.859L288.665 284.707Z" fill="#007A23"/>
<path d="M188.678 144.64C189.204 144.21 189.846 143.946 190.523 143.882C191.199 143.818 191.879 143.957 192.476 144.281C223.062 157.658 266.427 169.803 276.297 173.977C279.496 167.597 293.626 138.909 281.737 110.906C281.224 109.726 281.977 108.802 283.448 108.87C284.191 108.919 284.909 109.159 285.532 109.567C286.156 109.974 286.663 110.536 287.006 111.197C299.494 141.544 284.064 171.069 280.865 177.159C280.909 177.28 280.938 177.407 280.95 177.536C280.954 177.85 280.843 178.155 280.638 178.394C280.434 178.633 280.15 178.79 279.838 178.836H279.53C279.449 178.88 279.363 178.915 279.274 178.938C278.465 179.064 277.638 178.874 276.964 178.408L276.588 178.083C267.043 174.012 222.378 161.336 189.654 147.206C188.336 146.607 187.909 145.461 188.678 144.64Z" fill="#007228"/>
<path d="M231.444 188.415C231.877 187.981 232.449 187.715 233.059 187.661C233.67 187.608 234.279 187.772 234.78 188.124C261.757 202.767 292.018 209.422 298.074 210.961C301.854 208.173 321.852 194.471 320.706 168.623C320.706 167.409 321.681 166.912 323.032 167.408C323.695 167.676 324.277 168.112 324.721 168.673C325.165 169.234 325.456 169.9 325.564 170.607C326.522 197.978 306.336 211.663 301.752 214.964C301.663 215.165 301.523 215.338 301.346 215.467C301.168 215.596 300.96 215.677 300.742 215.7C300.641 215.717 300.536 215.717 300.435 215.7C300.361 215.743 300.28 215.772 300.195 215.785C299.634 215.825 299.076 215.681 298.604 215.375C291.419 213.544 260.97 206.531 232.693 191.203C231.342 190.502 230.794 189.253 231.444 188.415Z" fill="#007228"/>
<path d="M251.099 210.961C269.088 220.138 288.116 227.116 307.773 231.746C311.382 229.761 330.678 220.199 334.955 197.533C335.143 196.421 336.324 196.181 337.555 197.003C338.148 197.371 338.633 197.889 338.96 198.505C339.288 199.121 339.446 199.812 339.42 200.509C334.75 224.133 315.625 233.662 311.023 236.074C310.925 236.231 310.789 236.362 310.628 236.455C310.467 236.547 310.285 236.598 310.099 236.604C310.003 236.62 309.905 236.62 309.809 236.604H309.569C309.104 236.604 308.647 236.473 308.252 236.228C287.878 231.252 268.165 223.879 249.526 214.263C248.973 214.044 248.519 213.632 248.249 213.103C247.978 212.574 247.909 211.965 248.055 211.389C248.551 210.517 249.851 210.294 251.099 210.961Z" fill="#007228"/>
<path d="M272.072 233.833C290.256 244.233 311.057 248.339 314.838 249.228C317.9 248.082 334.904 242.659 340.497 227.555C340.874 226.545 342.071 226.528 343.183 227.555C343.71 227.984 344.11 228.548 344.342 229.186C344.574 229.825 344.629 230.514 344.5 231.181C338.462 246.97 321.715 252.393 317.592 253.847C317.392 254.034 317.131 254.144 316.856 254.155H316.583H316.326C315.996 254.148 315.673 254.06 315.385 253.898C310.356 252.786 289.726 248.305 270.789 237.408C270.246 237.14 269.805 236.704 269.53 236.164C269.256 235.624 269.163 235.011 269.266 234.414C269.626 233.354 270.875 233.131 272.072 233.833Z" fill="#007228"/>
<path d="M204.485 93.526C204.704 93.7569 204.847 94.0495 204.895 94.3643C204.9 94.6688 204.809 94.9671 204.634 95.2161C204.458 95.4651 204.208 95.6521 203.92 95.7499C203.809 95.7942 203.695 95.8286 203.578 95.8525C203.578 95.8525 203.424 95.9894 203.321 96.0407C202.548 96.3632 201.696 96.4466 200.875 96.2802C200.444 96.2137 200.028 96.075 199.643 95.8697C179.364 93.5252 159.515 88.3426 140.678 80.4739C139.378 79.9265 139.224 78.7632 140.353 77.9935C141.001 77.5784 141.737 77.3179 142.502 77.2318C143.267 77.1458 144.042 77.2367 144.766 77.4974C161.931 84.8066 180.024 89.7056 198.532 92.0549C198.532 87.3335 197.3 72.8957 175.506 58.783C174.309 58.0474 174.463 56.9184 175.712 56.2341C176.426 55.9083 177.207 55.7555 177.992 55.7882C178.777 55.8209 179.543 56.0382 180.228 56.4223C204.895 72.8616 204.792 89.0955 204.485 93.526Z" fill="#007228"/>
<path d="M224.773 110.65C224.873 110.794 224.942 110.957 224.978 111.129C225.004 111.448 224.919 111.766 224.739 112.031C224.558 112.295 224.293 112.49 223.986 112.583L223.644 112.668C223.565 112.729 223.479 112.781 223.387 112.822C222.557 113.116 221.652 113.116 220.821 112.822C220.596 112.746 220.378 112.649 220.171 112.531C187.374 108.531 154.934 101.999 123.144 92.9957C121.775 92.5852 121.433 91.5246 122.477 90.618C123.077 90.1445 123.779 89.8175 124.527 89.6631C125.275 89.5086 126.049 89.531 126.788 89.7285C167.843 102.113 208.368 107.194 219.162 108.665C220.616 102.575 226.689 75.034 194.204 48.5192C193.109 47.6809 193.331 46.5177 194.751 45.9874C195.5 45.7276 196.3 45.6448 197.086 45.7457C197.873 45.8466 198.625 46.1285 199.284 46.569C234.164 75.8552 226.313 104.885 224.773 110.65Z" fill="#007228"/>
<path d="M247.336 133.298C247.429 133.475 247.493 133.666 247.524 133.863C247.529 134.173 247.429 134.476 247.239 134.721C247.049 134.967 246.782 135.141 246.481 135.214C246.373 135.223 246.264 135.223 246.156 135.214C246.068 135.272 245.977 135.324 245.882 135.368C245.083 135.596 244.229 135.535 243.47 135.197C243.229 135.096 243 134.97 242.786 134.821C231.957 132.067 183.769 123.189 140.284 109.914C138.916 109.469 138.574 108.391 139.429 107.519C140.001 107.052 140.681 106.735 141.407 106.597C142.133 106.46 142.882 106.506 143.586 106.732C184.231 119.425 230.709 127.978 242.119 130.886C244.188 124.044 253.546 92.4826 227.116 61.9819C226.21 60.9726 226.654 59.8778 228.126 59.5356C228.886 59.3803 229.673 59.4128 230.418 59.6304C231.164 59.848 231.845 60.2441 232.402 60.7844C260.525 94.0905 249.44 126.883 247.336 133.298Z" fill="#007228"/>
<path d="M265.281 154.921C265.345 155.091 265.385 155.27 265.4 155.451C265.399 155.756 265.293 156.052 265.1 156.289C264.907 156.525 264.639 156.689 264.34 156.751C264.232 156.76 264.123 156.76 264.015 156.751L263.758 156.888C262.961 157.057 262.13 156.935 261.415 156.546C261.206 156.423 261.006 156.286 260.816 156.135C251.253 152.954 208.761 142.45 170.922 132.665C169.468 132.255 168.766 131.194 169.365 130.288C169.83 129.788 170.429 129.434 171.091 129.267C171.752 129.1 172.448 129.128 173.094 129.347C208.778 138.653 250.176 148.694 260.337 152.064C262.92 145.495 273.44 118.091 263.416 90.0705C263.005 88.9244 263.929 88.0862 265.486 88.1888C266.237 88.2252 266.965 88.4595 267.595 88.8681C268.226 89.2767 268.738 89.8451 269.078 90.5153C279.479 120.691 267.812 148.78 265.281 154.921Z" fill="#007228"/>
<path d="M291.881 195.925C291.833 196.192 291.701 196.438 291.504 196.625C291.307 196.813 291.056 196.933 290.787 196.968C290.684 196.977 290.581 196.977 290.479 196.968C290.393 196.968 290.325 197.071 290.222 197.071C289.523 197.144 288.82 196.968 288.238 196.575C280.899 194.864 252.742 186.79 216.391 172.301C215.039 171.771 214.304 170.59 214.783 169.684C215.176 169.178 215.738 168.831 216.366 168.705C216.994 168.579 217.647 168.684 218.204 168.999C253.46 183.078 281.498 190.896 287.861 192.298C291.163 188.997 306.832 173.755 306.011 143.768C306.011 142.621 307.089 142.057 308.526 142.621C309.202 142.844 309.804 143.247 310.268 143.787C310.732 144.326 311.041 144.982 311.16 145.683C311.656 176.868 295.782 192.144 291.881 195.925Z" fill="#007228"/>
<path d="M165.67 70.6035C255.393 122.059 313.264 216.384 330.661 318.441C331.157 321.229 333.022 323.744 334.852 324.069C336.683 324.394 337.863 322.358 337.418 319.536C337.418 319.536 337.418 319.416 337.418 319.365C319.149 215.221 258.353 120.332 165.67 70.6035Z" fill="#57381B"/>
<path d="M335.417 169.17C322.382 155.143 292.736 167.152 292.736 167.152C302.915 133.555 285.894 86.7519 285.894 86.7519C285.894 86.7519 331.26 107.109 365.524 99.4449C365.524 99.4449 351.36 128.132 364.395 142.211C377.43 156.289 395.187 144.383 395.187 144.383C395.187 144.383 379.585 187.628 397.068 206.445C379.585 187.628 335.331 199.996 335.331 199.996C335.331 199.996 348.469 183.215 335.417 169.17Z" fill="#039C3D"/>
<path d="M335.417 169.17C322.382 155.143 292.736 167.152 292.736 167.152C302.915 133.555 285.894 86.7519 285.894 86.7519L397.085 206.394C379.603 187.577 335.348 199.945 335.348 199.945C335.348 199.945 348.469 183.215 335.417 169.17Z" fill="#038534"/>
<path d="M362.086 180.871C365.61 181.179 369.134 181.333 372.658 181.487L391.167 201.758C393.355 203.027 395.344 204.612 397.068 206.462C395.363 204.601 393.935 202.504 392.826 200.236L373.701 180.016C373.872 176.697 374.043 173.344 374.06 169.974C374.06 168.076 374.06 166.194 374.06 164.329C374.06 162.465 373.923 160.617 373.804 158.787C373.256 162.379 372.931 165.886 372.709 169.342C372.487 172.386 372.418 175.466 372.35 178.562L360.375 165.903C360.392 165.801 360.392 165.697 360.375 165.595C360.512 163.166 360.58 159.694 360.598 157.23C360.598 155.81 360.598 153.809 360.598 152.492C360.598 151.175 360.495 149.19 360.392 147.805C359.982 150.507 359.64 154.168 359.469 156.768C359.298 158.992 359.161 162.003 359.075 164.483L347.101 151.79V151.465C347.186 149.755 347.101 146.145 347.186 144.503C347.186 143.562 347.186 141.561 347.186 140.637C347.186 139.713 347.066 137.746 346.998 136.839C346.724 138.636 346.331 142.45 346.228 144.178C346.109 145.615 345.92 148.472 345.835 150.422L333.86 137.695C333.852 137.569 333.852 137.444 333.86 137.318C333.86 136.531 333.86 132.597 333.86 131.776C333.86 131.314 333.86 129.261 333.86 128.782C333.86 128.303 333.758 126.319 333.741 125.874C333.587 126.764 333.159 130.732 333.108 131.605C333.056 132.477 332.817 134.838 332.697 136.343L320.723 123.599V123.206L320.552 119.049L320.38 114.892L319.901 119.032L319.508 122.299L304.848 106.801L319.251 122.556L315.95 122.692L311.793 122.881L315.916 123.36L320.055 123.821H320.449L332.218 136.72L327.805 136.805H327.394C326.556 136.805 322.587 136.959 321.749 137.01C322.656 137.147 326.659 137.592 327.548 137.661C328.438 137.729 332.287 138.122 333.108 138.157H333.587L345.202 150.867C343.491 150.867 340.72 150.867 339.369 150.867H338.838C337.128 150.867 333.381 151.003 331.705 151.123C333.501 151.397 337.367 151.79 339.18 151.944C340.994 152.098 344.535 152.406 346.177 152.458H346.724L358.203 165.031C355.945 165.031 353.071 165.031 350.933 165.031H350.282C347.751 165.031 344.193 165.15 341.644 165.339C344.364 165.732 348.093 166.108 350.813 166.314C353.533 166.519 356.766 166.758 359.246 166.878H359.879L371.204 179.28C368.295 179.195 365.404 179.126 362.496 179.161C358.87 179.161 355.243 179.161 351.617 179.52C354.85 180.273 358.476 180.58 362.086 180.871Z" fill="#5FCB60"/>
<path d="M340.566 251.144C322.844 258.432 323.716 290.489 323.716 290.489C295.816 269.192 246.087 268.713 246.087 268.713C246.087 268.713 281.053 233.354 285.86 198.576C285.86 198.576 307.773 221.875 325.478 214.588C343.183 207.301 338.291 186.533 338.291 186.533C338.291 186.533 373.325 216.281 397.068 206.497C373.325 216.281 369.407 262.075 369.407 262.075C369.407 262.075 358.271 243.857 340.566 251.144Z" fill="#039C3D"/>
<path d="M340.566 251.144C322.844 258.432 323.716 290.489 323.716 290.489C295.816 269.191 246.087 268.713 246.087 268.713L397.068 206.514C373.325 216.299 369.407 262.092 369.407 262.092C369.407 262.092 358.271 243.857 340.566 251.144Z" fill="#038534"/>
<path d="M360.837 230.274C362.377 227.076 363.745 223.842 365.131 220.592L390.602 210.328C392.561 208.731 394.738 207.424 397.068 206.445C394.733 207.393 392.273 207.998 389.764 208.241L364.104 219.087C361.059 217.753 357.98 216.435 354.833 215.238C353.122 214.537 351.309 213.869 349.547 213.271C347.785 212.672 346.006 212.09 344.261 211.56C347.443 213.271 350.607 214.862 353.772 216.281C356.543 217.547 359.4 218.711 362.325 219.857L346.279 226.699C346.189 226.645 346.091 226.605 345.989 226.58C343.765 225.604 340.549 224.321 338.239 223.449C336.922 222.936 335.092 222.286 333.775 221.824C332.458 221.362 330.644 220.763 329.327 220.387C331.705 221.704 335.006 223.329 337.384 224.39C339.42 225.331 342.174 226.511 344.483 227.452L328.403 234.294L328.095 234.175C326.607 233.525 323.134 232.242 321.612 231.643L317.951 230.343C317.062 230.052 315.214 229.436 314.342 229.197C315.933 230.069 319.354 231.763 320.945 232.481C322.262 233.097 324.862 234.277 326.641 235.03L310.527 241.873L310.168 241.753C309.449 241.428 305.72 240.145 305.036 239.854C304.608 239.683 302.658 239.033 302.213 238.862C301.769 238.691 299.87 238.092 299.425 237.972C300.212 238.417 303.77 240.196 304.557 240.555L308.868 242.608L292.702 249.451L292.326 249.331L288.374 248.031L284.423 246.748L288.135 248.647L291.06 250.152L271.405 258.449L291.214 250.494L290.188 253.625L288.905 257.576L290.786 253.898L292.685 250.169L292.856 249.827L309.056 243.327C308.594 244.61 307.807 246.902 307.602 247.466C307.602 247.466 307.482 247.809 307.465 247.877C307.174 248.664 305.925 252.427 305.754 253.231C306.199 252.427 308.012 248.852 308.389 248.099C308.765 247.347 310.493 243.806 310.818 243.053C310.818 243.053 310.955 242.762 311.023 242.625L327.001 236.21C326.385 237.818 325.444 240.419 324.999 241.684C324.926 241.846 324.863 242.011 324.811 242.181C324.229 243.754 323.1 247.312 322.553 249.023C323.442 247.432 325.153 243.891 325.974 242.3C326.795 240.709 328.284 237.459 328.916 235.937C328.916 235.817 329.07 235.612 329.139 235.423L344.928 229.094C344.09 231.181 343.063 233.884 342.345 235.937L342.123 236.553C341.267 238.93 340.104 242.317 339.386 244.764C340.703 242.352 342.362 238.982 343.508 236.518C344.654 234.055 346.023 231.096 346.93 228.82L347.169 228.222L362.753 221.961C361.658 224.664 360.58 227.349 359.588 230.086C358.357 233.508 357.142 236.929 356.167 240.35C357.758 236.843 359.315 233.559 360.837 230.274Z" fill="#5FCB60"/>
<path d="M455.914 169.17C468.949 155.143 498.595 167.152 498.595 167.152C488.417 133.555 505.437 86.7519 505.437 86.7519C505.437 86.7519 460.071 107.109 425.807 99.4449C425.807 99.4449 439.971 128.132 426.936 142.211C413.901 156.289 396.145 144.383 396.145 144.383C396.145 144.383 411.746 187.628 394.263 206.445C411.746 187.628 456 199.996 456 199.996C456 199.996 442.862 183.215 455.914 169.17Z" fill="#039C3D"/>
<path d="M455.914 169.17C468.949 155.143 498.595 167.152 498.595 167.152C488.416 133.555 505.437 86.7519 505.437 86.7519L394.246 206.394C411.729 187.577 455.983 199.945 455.983 199.945C455.983 199.945 442.862 183.215 455.914 169.17Z" fill="#038534"/>
<path d="M429.246 180.871C425.722 181.179 422.198 181.333 418.674 181.487L400.165 201.758C397.976 203.027 395.988 204.612 394.263 206.462C395.968 204.601 397.397 202.504 398.505 200.236L417.63 180.016C417.459 176.697 417.288 173.344 417.271 169.974C417.271 168.076 417.271 166.194 417.271 164.329C417.271 162.465 417.408 160.617 417.528 158.787C418.075 162.379 418.4 165.886 418.622 169.342C418.845 172.386 418.913 175.466 418.982 178.562L430.956 165.903C430.94 165.801 430.94 165.697 430.956 165.595C430.819 163.166 430.751 159.694 430.734 157.23C430.734 155.81 430.734 153.809 430.734 152.492C430.734 151.175 430.836 149.19 430.939 147.805C431.35 150.507 431.692 154.168 431.863 156.768C432.034 158.992 432.171 162.003 432.256 164.483L444.231 151.79V151.465C444.145 149.755 444.231 146.145 444.145 144.503C444.145 143.562 444.145 141.561 444.145 140.637C444.145 139.713 444.265 137.746 444.333 136.839C444.607 138.636 445 142.45 445.103 144.178C445.223 145.615 445.411 148.472 445.497 150.422L457.471 137.695C457.48 137.569 457.48 137.444 457.471 137.318C457.471 136.531 457.471 132.597 457.471 131.776C457.471 131.314 457.471 129.261 457.471 128.782C457.471 128.303 457.574 126.319 457.591 125.874C457.745 126.764 458.172 130.732 458.224 131.605C458.275 132.477 458.515 134.838 458.634 136.343L470.609 123.599V123.206L470.78 119.049L470.951 114.892L471.43 119.032L471.823 122.299L486.483 106.801L472.08 122.556L475.381 122.692L479.538 122.881L475.416 123.36L471.276 123.821H470.882L459.113 136.72L463.527 136.805H463.937C464.775 136.805 468.744 136.959 469.582 137.01C468.676 137.147 464.673 137.592 463.783 137.661C462.894 137.729 459.045 138.122 458.224 138.157H457.745L446.13 150.867C447.84 150.867 450.611 150.867 451.963 150.867H452.493C454.204 150.867 457.95 151.003 459.626 151.123C457.83 151.397 453.964 151.79 452.151 151.944C450.338 152.098 446.797 152.406 445.154 152.458H444.607L433.129 165.031C435.387 165.031 438.261 165.031 440.399 165.031H441.049C443.581 165.031 447.139 165.15 449.688 165.339C446.968 165.732 443.239 166.108 440.519 166.314C437.799 166.519 434.566 166.758 432.085 166.878H431.452L420.128 179.28C423.036 179.195 425.927 179.126 428.835 179.161C432.462 179.161 436.088 179.161 439.715 179.52C436.482 180.273 432.855 180.58 429.246 180.871Z" fill="#5FCB60"/>
<path d="M450.765 251.144C468.488 258.432 467.615 290.489 467.615 290.489C495.516 269.192 545.244 268.713 545.244 268.713C545.244 268.713 510.278 233.354 505.472 198.576C505.472 198.576 483.558 221.875 465.853 214.588C448.148 207.301 453.041 186.533 453.041 186.533C453.041 186.533 418.007 216.281 394.263 206.497C418.007 216.281 421.924 262.075 421.924 262.075C421.924 262.075 433.06 243.857 450.765 251.144Z" fill="#039C3D"/>
<path d="M450.765 251.144C468.488 258.432 467.615 290.489 467.615 290.489C495.516 269.191 545.244 268.713 545.244 268.713L394.263 206.514C418.007 216.299 421.924 262.092 421.924 262.092C421.924 262.092 433.06 243.857 450.765 251.144Z" fill="#038534"/>
<path d="M430.494 230.274C428.955 227.076 427.586 223.842 426.201 220.592L400.729 210.328C398.771 208.731 396.593 207.424 394.263 206.445C396.598 207.393 399.059 207.998 401.567 208.241L427.227 219.087C430.272 217.753 433.351 216.435 436.499 215.238C438.209 214.537 440.023 213.869 441.784 213.271C443.546 212.672 445.325 212.09 447.07 211.56C443.889 213.271 440.724 214.862 437.559 216.281C434.788 217.547 431.931 218.711 429.006 219.857L445.052 226.699C445.142 226.645 445.24 226.605 445.343 226.58C447.566 225.604 450.782 224.321 453.092 223.449C454.409 222.936 456.239 222.286 457.557 221.824C458.874 221.362 460.687 220.763 462.004 220.387C459.626 221.704 456.325 223.329 453.947 224.39C451.911 225.331 449.157 226.511 446.848 227.452L462.928 234.294L463.236 234.175C464.724 233.525 468.197 232.242 469.719 231.643L473.38 230.343C474.269 230.052 476.117 229.436 476.989 229.197C475.399 230.069 471.977 231.763 470.386 232.481C469.069 233.097 466.469 234.277 464.69 235.03L480.804 241.873L481.163 241.753C481.882 241.428 485.611 240.145 486.295 239.854C486.723 239.683 488.673 239.033 489.118 238.862C489.563 238.691 491.461 238.092 491.906 237.972C491.119 238.417 487.561 240.196 486.774 240.555L482.463 242.608L498.629 249.451L499.005 249.331L502.957 248.031L506.891 246.748L503.196 248.647L500.271 250.152L519.926 258.449L500.117 250.494L501.144 253.625L502.427 257.576L500.545 253.898L498.646 250.169L498.475 249.827L482.275 243.327C482.737 244.61 483.524 246.902 483.729 247.466C483.729 247.466 483.849 247.809 483.866 247.877C484.157 248.664 485.406 252.427 485.577 253.231C485.132 252.427 483.319 248.852 482.942 248.099C482.566 247.347 480.838 243.806 480.513 243.053C480.513 243.053 480.376 242.762 480.308 242.625L464.331 236.21C464.947 237.818 465.887 240.419 466.332 241.684C466.405 241.846 466.468 242.011 466.52 242.181C467.102 243.754 468.231 247.312 468.778 249.023C467.889 247.432 466.178 243.891 465.357 242.3C464.536 240.709 463.048 237.459 462.415 235.937C462.415 235.817 462.261 235.612 462.192 235.423L446.403 229.094C447.241 231.181 448.268 233.884 448.986 235.937L449.209 236.553C450.064 238.93 451.227 242.317 451.946 244.764C450.628 242.352 448.969 238.982 447.823 236.518C446.677 234.055 445.308 231.096 444.402 228.82L444.162 228.222L428.578 221.961C429.673 224.664 430.751 227.349 431.743 230.086C432.975 233.508 434.189 236.929 435.164 240.35C433.573 236.843 432.017 233.559 430.494 230.274Z" fill="#5FCB60"/>
<path d="M468.915 212.193C480.462 205.06 484.995 193.376 493.925 183.848C502.151 175.294 511.627 168.038 522.031 162.328C510.301 164.124 498.367 164.124 486.638 162.328C473.774 160.207 463.048 153.655 449.551 155.006C438.895 156.029 428.948 160.8 421.479 168.469C414.226 176.116 411.814 190.417 391.817 197.191L397.445 213.784C417.425 206.941 428.031 216.897 438.5 218.574C449.074 220.11 459.851 217.85 468.915 212.193Z" fill="#6C1214"/>
<path d="M437.234 204.358C434.72 202.75 432.102 201.296 429.502 199.859C427.501 198.73 425.448 197.687 423.412 196.66L436.379 192.11L436.67 192.23C438.483 193.119 441.1 194.317 442.965 195.121C444.829 195.925 447.857 197.225 449.961 197.995C448.165 196.849 445.599 195.36 443.735 194.351L443.392 194.146C441.921 193.342 439.971 192.264 438.261 191.426L451.415 186.824L451.672 186.944C452.887 187.526 455.692 188.655 456.941 189.288C458.19 189.921 461.252 191.101 462.654 191.614C461.457 190.861 458.771 189.288 457.522 188.603L457.249 188.449C456.308 187.919 454.409 186.876 453.16 186.208L466.469 181.538L466.726 181.641C467.341 181.932 470.318 183.181 470.934 183.454C471.55 183.728 474.68 184.994 475.381 185.25C474.783 184.874 471.96 183.215 471.361 182.873L471.122 182.736C470.694 182.496 469.035 181.538 468.026 181.025L481.523 176.287L481.779 176.389L484.944 177.655L488.109 178.921L485.183 177.21L482.891 175.842L499.382 170.06L482.771 175.483L483.764 173.002L485.029 169.838L483.319 172.763L481.608 175.705L481.488 175.927L467.803 180.392C468.317 179.246 469.103 177.382 469.326 176.971C469.548 176.56 470.865 173.276 471.036 172.575C470.848 172.9 469.993 174.285 469.805 174.645L468.59 176.766C468.282 177.364 466.674 180.187 466.401 180.752L466.298 180.923L452.613 185.37C453.297 183.933 454.221 181.949 454.7 180.854C455.179 179.759 456.496 176.663 456.992 175.26C456.599 175.893 455.778 177.262 455.384 177.929C454.991 178.596 454.204 180.016 453.845 180.7C453.212 181.881 451.757 184.549 451.193 185.747C451.183 185.78 451.183 185.816 451.193 185.849L437.593 190.28C438.5 188.569 439.526 186.362 440.245 184.754C441.134 182.804 442.315 180.033 443.067 177.912C442.469 178.853 441.665 180.204 441.1 181.196C440.536 182.188 439.749 183.574 439.201 184.618C438.261 186.328 436.943 188.928 436.105 190.725L422.557 195.155C423.686 192.965 424.798 190.793 425.79 188.586C426.97 186.003 428.116 183.369 429.126 180.546C428.322 181.812 427.535 183.112 426.782 184.446C426.03 185.781 425.277 187.132 424.558 188.501C423.293 190.878 422.146 193.273 421.017 195.651L394.263 204.546L394.964 206.565L421.308 197.464C423.84 198.696 426.44 199.928 428.955 201.04C431.469 202.152 434.412 203.332 437.234 204.358Z" fill="#260608"/>
<path d="M320.398 198.747C308.851 205.864 304.318 217.564 295.388 227.093C287.158 235.642 277.682 242.897 267.282 248.613C279.012 246.816 290.946 246.816 302.676 248.613C315.54 250.734 326.265 257.285 339.762 255.934C350.416 254.904 360.361 250.135 367.834 242.471C375.087 234.808 377.499 220.524 397.496 213.75L391.868 197.157C371.888 203.914 361.282 194.026 350.813 192.35C340.237 190.827 329.464 193.093 320.398 198.747Z" fill="#6C1214"/>
<path d="M352.027 206.668C354.542 208.276 357.159 209.73 359.759 211.167C361.761 212.279 363.813 213.322 365.849 214.366L352.9 218.83L352.609 218.693C350.795 217.821 348.178 216.624 346.314 215.82C344.449 215.016 341.421 213.716 339.317 212.946C341.113 214.092 343.679 215.563 345.544 216.589L345.886 216.778C347.357 217.599 349.307 218.676 351.018 219.497L337.863 224.116L337.589 223.996C336.375 223.398 333.586 222.183 332.338 221.653C331.089 221.123 328.027 219.823 326.624 219.309C327.822 220.079 330.507 221.653 331.756 222.32L332.047 222.491C332.988 223.004 334.887 224.065 336.135 224.732L322.827 229.402L322.57 229.299C321.954 228.992 318.978 227.76 318.362 227.486C317.746 227.212 314.615 225.947 313.914 225.69C314.513 226.066 317.335 227.726 317.934 228.068L318.174 228.187C318.601 228.427 320.261 229.402 321.27 229.898L307.773 234.637L307.516 234.534L304.352 233.268L301.187 232.002L304.112 233.713L306.404 235.081L289.845 240.88L306.456 235.458L305.464 237.921L304.198 241.103L305.908 238.161L307.619 235.235L307.756 235.013L321.441 230.548C320.928 231.694 320.141 233.542 319.918 233.969C319.696 234.397 318.379 237.647 318.208 238.349L319.439 236.296L320.654 234.175C320.962 233.576 322.57 230.753 322.844 230.172L322.946 230.018L336.631 225.57C335.947 227.007 335.023 228.992 334.544 230.086C334.065 231.181 332.748 234.277 332.252 235.68C332.646 235.047 333.467 233.679 333.843 233.011C334.219 232.344 335.04 230.925 335.4 230.24C336.033 229.043 337.487 226.374 338.051 225.194V225.091L351.651 220.644C350.744 222.44 349.718 224.561 348.999 226.186C348.11 228.136 346.929 230.907 346.177 233.029C346.775 232.071 347.579 230.736 348.144 229.744C348.709 228.752 349.495 227.349 350.043 226.323C350.984 224.612 352.301 222.012 353.139 220.216L366.687 215.802C365.558 217.992 364.446 220.165 363.454 222.371C362.274 224.954 361.128 227.503 360.118 230.394C360.922 229.145 361.709 227.828 362.462 226.511C363.215 225.194 363.967 223.808 364.686 222.44C365.952 220.079 367.098 217.684 368.227 215.289L394.981 206.411L394.28 204.393L367.936 213.51C365.404 212.279 362.804 211.064 360.29 209.935C357.775 208.806 354.85 207.591 352.027 206.668Z" fill="#260608"/>
<path d="M387.899 279.763C395.033 291.293 406.716 295.843 416.245 304.773C424.803 312.988 432.06 322.459 437.764 332.861C435.977 321.132 435.977 309.198 437.764 297.468C439.886 284.604 446.437 273.879 445.086 260.382C444.044 249.729 439.262 239.79 431.589 232.327C423.925 225.074 409.624 222.662 402.867 202.682L386.257 208.293C393.1 228.273 383.144 238.879 381.467 249.348C379.961 259.928 382.239 270.699 387.899 279.763Z" fill="#6C1214"/>
<path d="M395.666 248.065C397.291 245.551 398.745 242.933 400.165 240.35C401.294 238.332 402.337 236.296 403.381 234.243L407.931 247.227C407.931 247.33 407.828 247.415 407.794 247.501C406.904 249.331 405.707 251.948 404.903 253.796C404.099 255.643 402.799 258.688 402.046 260.792C403.192 259.082 404.663 256.43 405.69 254.583L405.878 254.223C406.699 252.769 407.777 250.802 408.598 249.091L413.217 262.229C413.169 262.317 413.129 262.408 413.097 262.503C412.498 263.717 411.284 266.523 410.736 267.755C410.189 268.986 408.923 272.065 408.41 273.468C409.18 272.271 410.736 269.585 411.421 268.336L411.574 268.045C412.105 267.105 413.165 265.206 413.815 263.957L418.503 277.283L418.383 277.522C418.092 278.138 416.843 281.115 416.587 281.748C416.33 282.381 415.03 285.477 414.773 286.178C415.167 285.579 416.826 282.757 417.151 282.158L417.288 281.936L418.999 278.84L423.737 292.336L423.634 292.576L422.369 295.741L421.103 298.905L422.813 295.98L424.165 293.688L429.964 310.196L424.746 293.637L427.21 294.629L430.374 295.895L427.449 294.184L424.524 292.473L424.285 292.336L419.837 278.651L423.258 280.174C423.891 280.482 426.936 281.713 427.637 281.884L425.585 280.653C425.242 280.465 423.788 279.609 423.446 279.438C423.104 279.267 420.025 277.505 419.461 277.231H419.307L414.859 263.546C416.279 264.248 418.28 265.257 419.358 265.633C420.436 266.01 423.549 267.344 424.969 267.943C424.336 267.532 422.95 266.711 422.3 266.335C421.65 265.958 420.213 265.137 419.512 264.778C418.332 264.145 415.663 262.691 414.465 262.127H414.363L409.932 248.544C411.643 249.434 413.85 250.46 415.475 251.196C417.408 252.085 420.179 253.248 422.317 254.001C421.376 253.402 420.042 252.598 419.033 252.034C418.024 251.469 416.655 250.7 415.612 250.152C413.901 249.194 411.284 247.894 409.505 247.039L405.074 233.49C407.264 234.619 409.436 235.714 411.643 236.706C414.243 237.887 416.877 239.033 419.683 240.128C418.417 239.324 417.117 238.537 415.783 237.784C414.448 237.032 413.097 236.296 411.728 235.56C409.368 234.295 406.956 233.148 404.578 232.019L395.666 205.128L393.63 205.812L402.73 232.156C401.499 234.688 400.284 237.288 399.155 239.803C398.026 242.317 396.76 245.26 395.666 248.065Z" fill="#260608"/>
<path d="M401.362 131.177C394.229 119.63 382.545 115.097 373.017 106.168C364.458 97.9527 357.201 88.481 351.497 78.079C353.284 89.8032 353.284 101.731 351.497 113.455C349.393 126.319 342.841 137.045 344.192 150.542C345.213 161.2 349.976 171.151 357.638 178.63C365.302 185.883 379.603 188.295 386.36 208.276L402.97 202.665C396.127 182.667 406.083 172.079 407.76 161.609C409.281 151.028 407.015 140.25 401.362 131.177Z" fill="#6C1214"/>
<path d="M393.528 162.875C391.902 165.39 390.448 168.007 389.011 170.59C387.9 172.592 386.856 174.645 385.813 176.697L381.262 163.714L381.399 163.423C382.289 161.609 383.469 158.992 384.29 157.128C385.111 155.263 386.394 152.252 387.147 150.131C386.001 151.927 384.53 154.51 383.503 156.358L383.315 156.7C382.494 158.171 381.416 160.121 380.595 161.832L375.976 148.677L376.096 148.42C376.695 147.206 377.909 144.4 378.457 143.169C379.004 141.937 380.27 138.858 380.783 137.438C380.014 138.636 378.457 141.338 377.773 142.57L377.619 142.861C377.088 143.785 376.028 145.683 375.378 146.949L370.691 133.623L370.81 133.367C371.101 132.768 372.35 129.774 372.521 129.159C372.692 128.543 374.078 125.429 374.334 124.711C373.941 125.31 372.281 128.132 371.956 128.748C371.905 128.818 371.859 128.893 371.82 128.97L370.109 132.067L365.37 118.57L365.473 118.33L366.739 115.166L368.005 111.984L366.294 114.926L364.943 117.201L359.144 100.608L364.566 117.236L362.103 116.243L358.938 114.977L361.864 116.688L364.789 118.399L365.011 118.536L369.476 132.221L366.055 130.698C365.405 130.407 362.377 129.176 361.676 128.988C361.983 129.193 363.386 130.031 363.728 130.219C364.07 130.407 365.439 131.263 365.867 131.434C366.294 131.605 369.288 133.35 369.852 133.641L370.006 133.726L374.454 147.411C373.034 146.727 371.033 145.803 369.955 145.341C368.877 144.879 365.747 143.545 364.344 143.032C364.977 143.442 366.363 144.264 367.013 144.64L369.784 146.197C370.981 146.83 373.65 148.284 374.916 148.848H375.018L379.449 162.431C377.653 161.524 375.532 160.515 373.907 159.779C371.974 158.89 369.202 157.726 367.064 156.957C368.005 157.572 369.339 158.359 370.348 158.941C371.358 159.522 372.726 160.275 373.77 160.823C375.48 161.781 378.098 163.081 379.877 163.936L384.307 177.484C382.118 176.355 379.945 175.243 377.738 174.251C375.138 173.071 372.504 171.942 369.698 170.915C370.964 171.736 372.264 172.506 373.599 173.276C374.933 174.046 376.284 174.764 377.653 175.483C380.014 176.749 382.426 177.912 384.803 179.041L393.682 205.778L395.717 205.094L386.617 178.733C387.848 176.218 389.063 173.687 390.192 171.103C391.321 168.52 392.501 165.612 393.528 162.875Z" fill="#260608"/>
<path d="M417.75 261.169C423.908 265.941 431.144 266.01 438.055 268.901C444.312 271.607 450.124 275.24 455.298 279.678C451.964 273.732 449.559 267.311 448.165 260.638C446.711 253.283 448.063 246.183 444.624 239.204C441.921 233.673 437.345 229.279 431.709 226.802C426.132 224.441 418.024 226.032 398.522 202.288L390.739 208.652C410.155 232.413 406.973 240.111 408.17 246.047C409.476 252.061 412.87 257.419 417.75 261.169Z" fill="#951316"/>
<path d="M415.577 242.591C415.937 240.88 416.193 239.17 416.433 237.459C416.638 236.142 416.775 234.842 416.929 233.525L422.061 239.58C422.07 239.643 422.07 239.706 422.061 239.769C421.958 240.932 421.838 242.574 421.787 243.737C421.736 244.9 421.633 246.782 421.65 248.082C421.907 246.885 422.18 245.208 422.351 243.994C422.36 243.92 422.36 243.845 422.351 243.771C422.505 242.813 422.676 241.53 422.796 240.487L427.928 246.628C427.937 246.685 427.937 246.743 427.928 246.799C427.928 247.569 427.774 249.314 427.74 250.101C427.706 250.888 427.62 252.786 427.637 253.642C427.808 252.838 428.099 251.076 428.219 250.221C428.211 250.164 428.211 250.106 428.219 250.049C428.305 249.434 428.493 248.202 428.595 247.381L433.727 253.608C433.737 253.664 433.737 253.722 433.727 253.779C433.727 254.155 433.625 256.02 433.607 256.396C433.59 256.772 433.607 258.722 433.607 259.15C433.693 258.757 434.018 256.909 434.069 256.516C434.076 256.465 434.076 256.413 434.069 256.362C434.069 256.088 434.292 254.993 434.394 254.343L439.663 260.655V260.792V262.759V264.71L440.005 262.794L440.142 261.408L446.574 269.106L440.313 261.271H441.853H443.82L441.887 260.929L439.954 260.57H439.817L434.685 254.121L436.875 254.223C437.285 254.223 439.167 254.309 439.595 254.309L438.226 254.052L436.841 253.83C436.464 253.83 434.634 253.488 434.258 253.454H434.155L429.023 247.022C429.93 247.107 431.213 247.193 431.863 247.227C432.513 247.261 434.497 247.347 435.284 247.347C434.856 247.244 433.95 247.09 433.573 247.022L431.76 246.748C430.99 246.645 429.262 246.389 428.51 246.337L423.378 239.922C424.507 240.042 425.858 240.162 426.799 240.23C427.74 240.299 429.741 240.384 431.042 240.367L428.869 239.974L426.645 239.649C425.499 239.495 423.874 239.307 422.745 239.204L417.613 232.806C419.016 232.977 420.401 233.131 421.804 233.217C423.207 233.302 425.071 233.422 426.799 233.388L424.216 232.909C423.361 232.772 422.505 232.652 421.599 232.55C420.059 232.344 418.537 232.208 417.031 232.071L395.101 205.111L394.16 205.898L416.193 232.567C416.039 234.175 415.902 235.783 415.817 237.408C415.731 239.033 415.56 240.88 415.577 242.591Z" fill="#691215"/>
<path d="M344.637 171.736C341.216 164.74 342.55 157.658 341.096 150.302C339.695 143.631 337.29 137.212 333.963 131.263C339.134 135.704 344.948 139.338 351.206 142.04C358.049 144.914 365.353 144.999 371.511 149.772C376.39 153.516 379.785 158.867 381.091 164.877C382.288 170.83 379.107 178.562 398.522 202.288L390.739 208.652C371.306 184.891 363.129 186.414 357.553 184.121C351.918 181.651 347.342 177.263 344.637 171.736Z" fill="#951316"/>
<path d="M362.462 177.587C364.173 177.587 365.884 177.587 367.594 177.758C368.928 177.758 370.229 177.929 371.546 178.049L366.585 171.856H366.397C365.251 171.736 363.608 171.514 362.445 171.343C361.282 171.172 359.434 170.881 358.169 170.607C359.4 170.607 361.094 170.607 362.308 170.727H362.548L365.849 170.95L360.854 164.706H360.683C359.913 164.62 358.186 164.364 357.416 164.244C356.646 164.124 354.747 163.833 353.909 163.645C354.73 163.645 356.509 163.645 357.33 163.748H357.519L360.187 163.902L355.055 157.572H354.901C354.508 157.572 352.677 157.23 352.301 157.179L349.581 156.7H352.267H352.421H354.457L349.325 150.285H349.188L347.255 149.943L345.322 149.601H347.289H348.811L342.636 141.869L349.085 149.584L349.359 148.078L349.701 146.145V148.113V150.063V150.217L355.004 156.563C355.107 155.845 355.278 154.698 355.329 154.391C355.38 154.083 355.705 152.133 355.791 151.705C355.791 151.927 355.791 152.868 355.791 153.09C355.791 153.313 355.791 154.271 355.791 154.493C355.791 154.716 355.688 156.734 355.654 157.11C355.654 157.11 355.654 157.11 355.654 157.213L360.94 163.542C361.042 162.636 361.214 161.353 361.299 160.703C361.385 160.053 361.71 158.12 361.881 157.282C361.881 157.709 361.881 158.633 361.881 158.992C361.881 159.351 361.881 160.378 361.795 160.823C361.795 161.592 361.641 163.337 361.556 164.09L366.807 170.385C366.927 169.239 367.081 167.887 367.218 166.878C367.355 165.869 367.646 163.953 367.919 162.704C367.919 163.354 367.919 164.244 367.919 164.911C367.919 165.578 367.834 166.468 367.782 167.135C367.782 168.298 367.577 169.94 367.44 171.069L372.692 177.364C372.812 175.945 372.931 174.559 373.12 173.173C373.308 171.788 373.581 169.923 373.941 168.247C373.941 169.102 373.941 169.957 373.941 170.864C373.941 171.771 373.838 172.575 373.787 173.515C373.684 175.055 373.513 176.578 373.325 178.083L395.392 204.923L394.451 205.71L372.623 178.87C371.033 178.699 369.425 178.528 367.817 178.288C366.209 178.049 364.156 177.929 362.462 177.587Z" fill="#691215"/>
<path d="M450.406 182.342C455.162 176.184 455.247 168.965 458.138 162.054C460.834 155.787 464.468 149.967 468.915 144.794C462.942 148.135 456.492 150.54 449.79 151.927C442.452 153.381 435.353 152.03 428.356 155.468C422.83 158.173 418.441 162.749 415.971 168.384C413.61 173.977 415.201 182.154 391.441 201.57L397.821 209.37C421.582 189.938 429.28 193.119 435.216 191.922C441.253 190.627 446.636 187.233 450.406 182.342Z" fill="#951316"/>
<path d="M431.692 184.532C429.981 184.173 428.27 183.916 426.56 183.66C425.26 183.471 423.942 183.317 422.642 183.181L428.698 178.049H428.886C430.032 178.151 431.692 178.271 432.855 178.339C434.018 178.408 435.9 178.476 437.183 178.459C436.002 178.203 434.309 177.929 433.112 177.758H432.889C431.931 177.621 430.631 177.433 429.588 177.313L435.746 172.181H435.9C436.687 172.181 438.432 172.335 439.201 172.386C439.971 172.438 441.887 172.489 442.76 172.489C441.956 172.318 440.194 172.01 439.338 171.89H439.15C438.551 171.788 437.303 171.617 436.499 171.514L442.725 166.297H442.879L445.514 166.416H448.268C447.874 166.331 446.027 166.006 445.616 165.954H445.479L443.461 165.647L449.756 160.378H449.91H451.877H453.827L451.894 160.019L450.389 159.745L458.104 153.313L450.406 159.762V158.222V156.272L450.047 158.188L449.705 160.121V160.275L443.256 165.407C443.256 164.689 443.358 163.542 443.375 163.235C443.392 162.927 443.461 160.942 443.375 160.515C443.375 160.72 443.17 161.644 443.136 161.866C443.102 162.088 442.931 163.029 442.913 163.252C442.896 163.474 442.554 165.458 442.537 165.852C442.537 165.852 442.537 165.852 442.537 165.954L436.105 171.086C436.191 170.18 436.259 168.897 436.31 168.247C436.362 167.597 436.43 165.629 436.413 164.825C436.328 165.236 436.156 166.143 436.088 166.536C436.02 166.93 435.883 167.887 435.814 168.332C435.712 169.102 435.472 170.83 435.404 171.582L428.989 176.714C429.109 175.568 429.228 174.217 429.297 173.19C429.365 172.164 429.451 170.248 429.434 168.965C429.297 169.598 429.143 170.471 429.04 171.121C428.938 171.771 428.801 172.677 428.715 173.344C428.561 174.491 428.373 176.116 428.27 177.262L421.873 182.394C422.027 180.991 422.198 179.605 422.283 178.22C422.403 176.509 422.471 174.935 422.454 173.225C422.266 174.063 422.112 174.935 421.975 175.791C421.838 176.646 421.719 177.501 421.599 178.425C421.394 179.947 421.257 181.47 421.137 182.992L394.246 204.957L395.016 205.915L421.736 183.95C423.344 184.104 424.952 184.241 426.56 184.327C428.168 184.412 429.981 184.549 431.692 184.532Z" fill="#691215"/>
<path d="M360.906 255.455C353.909 258.876 346.81 257.542 339.471 258.996C332.792 260.404 326.362 262.808 320.398 266.129C324.845 260.962 328.479 255.148 331.175 248.886C334.066 242.044 334.151 234.756 338.907 228.581C342.657 223.704 348.015 220.315 354.029 219.018C359.965 217.804 367.714 220.986 391.423 201.57L397.804 209.37C374.043 228.786 375.566 236.963 373.274 242.557C370.802 248.181 366.421 252.749 360.906 255.455Z" fill="#951316"/>
<path d="M366.739 237.63C366.739 235.92 366.739 234.209 366.893 232.498C366.893 231.181 367.081 229.864 367.201 228.547L361.025 233.49C361.025 233.49 361.025 233.61 361.025 233.662C360.888 234.825 360.683 236.45 360.512 237.613C360.341 238.776 360.05 240.624 359.776 241.89C359.776 240.675 359.776 238.965 359.896 237.75V237.459C359.896 236.484 360.033 235.184 360.119 234.141L353.858 239.17C353.858 239.17 353.858 239.307 353.858 239.341C353.772 240.111 353.515 241.855 353.396 242.625C353.276 243.395 352.968 245.277 352.797 246.047C352.797 245.225 352.797 243.446 352.883 242.625C352.883 242.625 352.883 242.471 352.883 242.437C352.883 241.821 352.968 240.573 353.036 239.751L346.69 244.883C346.693 244.935 346.693 244.986 346.69 245.037C346.69 245.431 346.348 247.261 346.279 247.655C346.211 248.048 345.903 249.947 345.818 250.357C345.818 249.947 345.818 248.082 345.818 247.672V247.518C345.818 247.244 345.818 246.132 345.903 245.482L339.488 250.614V250.768L339.146 252.684L338.787 254.617V252.667V251.127L330.935 257.405L338.65 250.956L337.145 250.682L335.212 250.34H337.162H339.129H339.283L345.612 245.037L343.457 244.729C343.046 244.729 341.199 244.353 340.771 244.25H342.157H343.56C343.953 244.25 345.801 244.353 346.177 244.404H346.279L352.592 239.118L349.769 238.759C348.948 238.657 347.169 238.366 346.348 238.178H348.059L349.872 238.263C350.659 238.263 352.386 238.417 353.156 238.503L359.468 233.234C358.322 233.131 356.971 232.977 355.962 232.84C354.952 232.704 353.036 232.396 351.771 232.122C352.421 232.122 353.327 232.122 353.977 232.122C354.627 232.122 355.551 232.122 356.218 232.242C357.382 232.242 359.007 232.447 360.136 232.584L366.414 227.332C365.011 227.212 363.608 227.093 362.24 226.905C360.871 226.716 358.989 226.443 357.313 226.083C358.168 226.083 359.024 226.083 359.913 226.083C360.803 226.083 361.624 226.169 362.582 226.237C364.121 226.34 365.627 226.511 367.149 226.682L394.246 204.957L395.016 205.915L368.193 227.726C368.022 229.334 367.834 230.942 367.594 232.533C367.355 234.123 367.098 235.954 366.739 237.63Z" fill="#691215"/>
<path d="M462.842 235.749C476.048 232.704 484.123 223.056 495.618 216.931C506.132 211.436 517.42 207.572 529.095 205.47C517.415 203.391 506.117 199.555 495.584 194.094C484.089 187.97 476.014 178.322 462.808 175.277C452.385 172.843 441.437 174.17 431.897 179.024C422.574 183.95 415.697 196.729 394.588 196.729V214.246C415.697 214.246 422.574 227.007 431.897 231.934C441.436 236.826 452.401 238.177 462.842 235.749Z" fill="#AC1D20"/>
<path d="M435.335 218.078C433.471 215.751 431.469 213.527 429.468 211.338C427.928 209.627 426.32 207.916 424.712 206.343L438.397 206.206L438.62 206.411C440.057 207.831 442.161 209.832 443.752 211.167C445.342 212.501 447.703 214.725 449.448 216.127C448.131 214.417 446.164 212.244 444.727 210.688L444.47 210.397C443.341 209.148 441.784 207.489 440.518 206.172L454.443 206.018L454.665 206.223C455.623 207.181 457.881 209.234 458.891 210.14C459.9 211.047 462.312 213.237 463.544 214.177C462.671 213.065 460.618 210.756 459.661 209.678L459.438 209.439C458.72 208.652 457.266 207.044 456.291 206.018L470.403 205.864L470.609 206.052C471.088 206.531 473.517 208.669 474.03 209.114C474.543 209.559 477.075 211.782 477.656 212.244C477.229 211.697 475.09 209.217 474.611 208.703L474.44 208.498L472.08 205.847L486.381 205.693L486.569 205.864L489.169 208.07L491.769 210.294L489.545 207.694L487.835 205.676L505.317 205.487L487.835 205.299L489.545 203.264L491.769 200.68L489.169 202.887L486.569 205.111L486.381 205.282L472.011 205.111C472.867 204.204 474.201 202.699 474.56 202.306C474.919 201.912 477.195 199.312 477.656 198.73C477.366 198.953 476.117 200.03 475.843 200.287C475.569 200.544 474.286 201.638 473.996 201.912C473.705 202.186 471.105 204.495 470.574 204.974L470.438 205.111L456.102 204.94C457.214 203.811 458.737 202.186 459.524 201.348C460.311 200.509 462.569 197.926 463.492 196.78C462.911 197.242 461.696 198.286 461.115 198.782C460.533 199.278 459.404 200.39 458.771 200.92C457.779 201.844 455.555 203.896 454.631 204.854H454.546L440.262 204.7C441.682 203.298 443.324 201.604 444.538 200.304C446.01 198.747 447.96 196.506 449.397 194.762C448.524 195.463 447.327 196.472 446.472 197.225C445.616 197.978 444.436 199.055 443.598 199.859C442.126 201.245 440.074 203.281 438.688 204.649L424.438 204.495C426.149 202.785 427.945 201.074 429.57 199.363C431.521 197.293 433.436 195.155 435.301 192.829C434.138 193.752 432.975 194.745 431.88 195.754C430.785 196.763 429.605 197.824 428.458 198.884C426.508 200.732 424.644 202.631 422.813 204.529L394.622 204.358V206.497L422.505 206.343C424.507 208.31 426.508 210.277 428.595 212.176C430.682 214.075 433.009 216.213 435.335 218.078Z" fill="#661214"/>
<path d="M326.419 175.26C313.213 178.322 305.139 187.97 293.643 194.077C283.111 199.538 271.812 203.373 260.132 205.453C271.814 207.519 283.113 211.349 293.643 216.812C305.139 222.953 313.213 232.601 326.419 235.629C336.842 238.07 347.793 236.743 357.331 231.882C366.654 226.956 373.53 214.194 394.623 214.194V196.712C373.53 196.712 366.654 183.933 357.331 179.007C347.791 174.153 336.843 172.826 326.419 175.26Z" fill="#AC1D20"/>
<path d="M353.926 192.863C355.791 195.189 357.792 197.396 359.794 199.603C361.333 201.313 362.941 202.938 364.549 204.581L350.864 204.735L350.642 204.512C349.205 203.092 347.101 201.091 345.595 199.757C344.09 198.422 341.644 196.216 339.899 194.813C341.216 196.524 343.183 198.696 344.62 200.253L344.877 200.544C346.006 201.792 347.563 203.452 348.828 204.752L334.904 204.906L334.681 204.7C333.724 203.76 331.465 201.707 330.456 200.8C329.447 199.894 327.035 197.687 325.803 196.763C326.676 197.858 328.728 200.184 329.686 201.245L329.909 201.502C330.627 202.288 332.081 203.896 333.056 204.923L318.944 205.077L318.687 204.957C318.208 204.478 315.779 202.34 315.266 201.895C314.753 201.45 312.221 199.226 311.639 198.765C312.067 199.312 314.205 201.775 314.684 202.306L314.855 202.494L317.216 205.162L302.915 205.316L302.727 205.145L300.127 202.921L297.526 200.715L299.75 203.298L301.461 205.333L283.978 205.522L301.461 205.71L299.75 207.728L297.526 210.328L300.127 208.105L302.727 205.898L302.915 205.727L317.284 205.881C316.429 206.805 315.095 208.31 314.718 208.703C314.342 209.097 312.101 211.697 311.639 212.279C311.93 212.039 313.179 210.978 313.452 210.722C313.726 210.465 315.009 209.371 315.3 209.097C315.591 208.823 318.191 206.497 318.721 206.018L318.858 205.898L333.193 206.052C332.081 207.198 330.559 208.823 329.772 209.661C328.985 210.5 326.727 213.083 325.803 214.229C326.385 213.767 327.599 212.723 328.164 212.21C328.728 211.697 329.96 210.619 330.525 210.089C331.517 209.165 333.741 207.112 334.664 206.155L334.75 206.069L349.034 206.24C347.614 207.643 345.955 209.319 344.757 210.619C343.286 212.176 341.336 214.434 339.899 216.179C340.771 215.477 341.952 214.468 342.824 213.698C343.697 212.929 344.86 211.868 345.698 211.081C347.169 209.695 349.222 207.66 350.608 206.291L364.857 206.445C363.146 208.156 361.35 209.867 359.725 211.577C357.775 213.647 355.859 215.785 353.995 218.112C355.158 217.171 356.321 216.196 357.416 215.17C358.511 214.143 359.691 213.117 360.837 212.039C362.787 210.209 364.652 208.31 366.482 206.411L394.656 206.565V204.427L366.79 204.598C364.789 202.613 362.787 200.646 360.7 198.765C358.613 196.883 356.321 194.693 353.926 192.863Z" fill="#661214"/>
<path d="M364.43 273.673C367.492 286.897 377.123 294.954 383.247 306.449C388.709 316.979 392.539 328.279 394.605 339.961C396.669 328.283 400.487 316.985 405.93 306.449C412.071 294.954 421.702 286.897 424.747 273.673C427.188 263.251 425.861 252.3 421 242.762C416.074 233.439 403.312 226.562 403.312 205.47H385.864C385.864 226.562 373.103 233.439 368.176 242.762C363.315 252.3 361.988 263.251 364.43 273.673Z" fill="#AC1D20"/>
<path d="M381.981 246.166C384.324 244.302 386.531 242.317 388.721 240.299C390.431 238.759 392.142 237.151 393.716 235.543L393.87 249.228L393.647 249.468C392.227 250.905 390.226 252.992 388.892 254.497C387.557 256.002 385.334 258.449 383.931 260.211C385.642 258.876 387.814 256.909 389.388 255.489L389.679 255.216C390.91 254.087 392.587 252.53 393.887 251.264L394.041 265.189L393.835 265.411C392.895 266.369 390.842 268.627 389.935 269.636C389.029 270.646 386.822 273.058 385.881 274.306C386.993 273.417 389.302 271.364 390.38 270.423C390.455 270.345 390.535 270.27 390.619 270.201C391.423 269.482 393.031 268.011 394.041 267.036L394.195 281.149C394.14 281.224 394.077 281.293 394.006 281.354C393.545 281.833 391.406 284.262 390.944 284.775C390.483 285.289 388.293 287.82 387.814 288.402C388.379 287.957 390.842 285.819 391.355 285.34L391.56 285.169C391.92 284.844 393.374 283.578 394.212 282.808L394.366 297.109L394.195 297.314L391.988 299.897L389.764 302.498L392.364 300.274L394.383 298.563L394.571 316.046L394.776 298.563L396.795 300.274L399.395 302.498L397.171 299.897L395.016 297.332L394.845 297.126L394.999 282.757L397.804 285.323C398.334 285.802 400.798 287.957 401.396 288.419L399.84 286.589L398.215 284.758C397.753 284.262 395.615 281.85 395.136 281.337L395.016 281.2L395.17 266.865C396.299 267.994 397.941 269.517 398.779 270.286C399.617 271.056 402.2 273.331 403.347 274.272C402.868 273.673 401.841 272.459 401.328 271.894C400.815 271.33 399.737 270.098 399.19 269.534C398.283 268.559 396.213 266.318 395.272 265.394L395.426 251.093C396.829 252.53 398.523 254.172 399.823 255.387C401.379 256.841 403.62 258.808 405.382 260.245C404.681 259.355 403.672 258.175 402.902 257.32C402.132 256.464 401.071 255.284 400.267 254.429C398.899 252.958 396.846 250.905 395.478 249.536L395.632 235.27C397.342 236.98 399.053 238.793 400.764 240.401C402.833 242.352 404.972 244.285 407.315 246.132C406.374 244.969 405.399 243.806 404.373 242.711C403.347 241.616 402.303 240.419 401.243 239.29C399.412 237.322 397.496 235.458 395.597 233.627L395.768 205.453H393.63L393.784 233.319C391.817 235.321 389.85 237.339 387.951 239.409C386.052 241.479 383.88 243.84 381.981 246.166Z" fill="#661214"/>
<path d="M424.832 137.25C421.77 124.044 412.139 115.987 406.015 104.474C400.554 93.9415 396.719 82.6431 394.639 70.9628C392.573 82.6444 388.744 93.944 383.281 104.474C377.139 115.987 367.509 124.044 364.464 137.25C362.019 147.673 363.346 158.624 368.21 168.161C373.137 177.501 385.898 184.361 385.898 205.47H403.432C403.432 184.361 416.193 177.501 421.12 168.161C425.972 158.62 427.287 147.669 424.832 137.25Z" fill="#AC1D20"/>
<path d="M407.247 164.757C404.903 166.622 402.697 168.623 400.507 170.642C398.796 172.181 397.086 173.772 395.512 175.38L395.358 161.695L395.58 161.473C397 160.036 399.002 157.932 400.336 156.443C401.67 154.955 403.894 152.492 405.297 150.73C403.586 152.064 401.414 154.031 399.84 155.451L399.549 155.725C398.317 156.854 396.641 158.411 395.341 159.676L395.187 145.735L395.392 145.529C396.333 144.572 398.386 142.296 399.292 141.304C400.199 140.312 402.406 137.797 403.347 136.634C402.235 137.524 399.925 139.559 398.848 140.517L398.608 140.74C397.804 141.458 396.196 142.912 395.187 143.887L395.033 129.774L395.221 129.569C395.683 129.09 397.821 126.661 398.283 126.148C398.745 125.635 400.935 123.103 401.414 122.521C400.849 122.966 398.386 125.087 397.855 125.566C397.801 125.632 397.738 125.69 397.667 125.737C397.308 126.062 395.854 127.345 395.016 128.115L394.862 113.814L395.033 113.609L397.24 111.009L399.463 108.426L396.863 110.632L394.845 112.343L394.639 94.8604L394.451 112.343L392.433 110.632L389.833 108.426L392.056 111.009L394.263 113.609L394.434 113.814L394.28 128.184L391.475 125.618C390.944 125.122 388.464 122.983 387.882 122.521L389.439 124.352L391.064 126.182C391.526 126.678 393.664 129.09 394.143 129.603L394.263 129.74L394.109 144.058C392.98 142.946 391.338 141.424 390.5 140.637C389.662 139.85 387.078 137.592 385.932 136.668C386.411 137.25 387.438 138.465 387.951 139.046C388.464 139.628 389.542 140.757 390.072 141.407C390.996 142.382 393.066 144.623 394.007 145.529L394.092 145.615L393.938 159.916C392.535 158.479 390.842 156.837 389.542 155.622C387.985 154.151 385.744 152.201 383.982 150.764C384.684 151.636 385.693 152.834 386.463 153.689C387.232 154.545 388.293 155.725 389.097 156.563C390.466 158.051 392.518 160.087 393.887 161.473L393.733 175.722C392.022 174.012 390.312 172.215 388.601 170.59C386.514 168.64 384.393 166.707 382.049 164.843C382.99 166.023 383.965 167.169 384.991 168.264C386.018 169.359 387.061 170.539 388.122 171.685C389.952 173.652 391.868 175.5 393.767 177.347L393.596 205.522H395.666L395.512 177.638C397.479 175.637 399.446 173.635 401.328 171.548C403.21 169.461 405.382 167.101 407.247 164.757Z" fill="#661214"/>
<path d="M383.11 212.33C383.11 211.703 383.296 211.091 383.644 210.57C383.993 210.049 384.488 209.644 385.067 209.404C385.646 209.165 386.284 209.104 386.898 209.227C387.512 209.351 388.076 209.654 388.518 210.098C388.96 210.543 389.26 211.108 389.38 211.723C389.5 212.338 389.435 212.975 389.193 213.553C388.951 214.131 388.543 214.624 388.02 214.97C387.497 215.315 386.884 215.498 386.257 215.495C385.842 215.495 385.432 215.413 385.049 215.253C384.666 215.094 384.318 214.861 384.025 214.567C383.733 214.273 383.501 213.924 383.344 213.54C383.187 213.156 383.107 212.745 383.11 212.33Z" fill="#F7931E"/>
<path d="M407.315 213.442C409.063 213.442 410.48 212.025 410.48 210.277C410.48 208.529 409.063 207.112 407.315 207.112C405.567 207.112 404.151 208.529 404.151 210.277C404.151 212.025 405.567 213.442 407.315 213.442Z" fill="#F7931E"/>
<path d="M387.113 192.863C387.109 192.236 387.292 191.623 387.638 191.1C387.983 190.577 388.476 190.169 389.054 189.927C389.632 189.685 390.269 189.62 390.884 189.74C391.499 189.86 392.065 190.16 392.509 190.602C392.953 191.044 393.256 191.608 393.38 192.222C393.503 192.836 393.442 193.474 393.203 194.053C392.964 194.632 392.558 195.127 392.037 195.476C391.516 195.824 390.904 196.01 390.277 196.01C389.441 196.01 388.639 195.679 388.046 195.09C387.453 194.5 387.117 193.699 387.113 192.863Z" fill="#F7931E"/>
<path d="M394.656 216.606C394.653 215.98 394.836 215.366 395.181 214.844C395.527 214.321 396.02 213.913 396.598 213.671C397.176 213.428 397.813 213.363 398.428 213.483C399.043 213.604 399.608 213.904 400.053 214.346C400.497 214.787 400.8 215.351 400.924 215.966C401.047 216.58 400.986 217.217 400.746 217.796C400.507 218.376 400.102 218.871 399.581 219.22C399.06 219.568 398.448 219.754 397.821 219.754C396.985 219.754 396.182 219.423 395.589 218.833C394.996 218.243 394.661 217.443 394.656 216.606Z" fill="#F7931E"/>
<path d="M395.118 210.739C397.773 210.739 399.925 208.587 399.925 205.932C399.925 203.277 397.773 201.125 395.118 201.125C392.463 201.125 390.311 203.277 390.311 205.932C390.311 208.587 392.463 210.739 395.118 210.739Z" fill="#F7691E"/>
<path d="M399.344 195.566C399.344 194.615 399.625 193.686 400.154 192.895C400.682 192.105 401.433 191.488 402.311 191.125C403.189 190.761 404.156 190.666 405.088 190.851C406.021 191.037 406.877 191.494 407.549 192.167C408.222 192.839 408.679 193.695 408.865 194.628C409.05 195.56 408.955 196.527 408.591 197.405C408.228 198.283 407.611 199.034 406.821 199.562C406.03 200.091 405.101 200.373 404.15 200.373C402.876 200.373 401.653 199.866 400.751 198.965C399.85 198.063 399.344 196.841 399.344 195.566Z" fill="#F7691E"/>
<path d="M377.208 200.373C377.208 199.422 377.49 198.492 378.018 197.702C378.546 196.911 379.297 196.295 380.175 195.932C381.054 195.568 382.02 195.473 382.953 195.658C383.885 195.843 384.742 196.301 385.414 196.974C386.086 197.646 386.544 198.502 386.729 199.435C386.915 200.367 386.82 201.334 386.456 202.212C386.092 203.09 385.476 203.841 384.685 204.369C383.895 204.898 382.965 205.179 382.015 205.179C380.74 205.179 379.517 204.673 378.616 203.772C377.714 202.87 377.208 201.647 377.208 200.373Z" fill="#F7691E"/>
</g>
<defs>
<clipPath id="clip0_269_2497">
<rect width="785.97" height="339.202" fill="white" transform="translate(0.764893 0.758179)"/>
</clipPath>
</defs>
</svg>
