<svg width="89" height="23" viewBox="0 0 89 23" fill="none" xmlns="http://www.w3.org/2000/svg">
<g clip-path="url(#clip0_267_113)">
<path d="M18.0512 14.0404C16.8334 19.6467 11.886 23.0586 7.0008 21.6605C2.11755 20.2628 -0.855203 14.5842 0.363189 8.97829C1.58044 3.37136 6.52781 -0.0408621 11.4116 1.35686C16.2966 2.75459 19.269 8.43379 18.0512 14.0404Z" fill="white"/>
<path d="M13.2269 10.0178C13.4084 8.62535 12.4847 7.87677 11.2215 7.3774L11.6312 5.49109L10.6308 5.20494L10.2319 7.04154C9.9689 6.96632 9.6988 6.89536 9.43036 6.82505L9.83211 4.97634L8.8323 4.69019L8.42227 6.57584C8.20458 6.51894 7.99088 6.4627 7.78344 6.40351L7.78458 6.39762L6.40492 6.00223L6.13879 7.2286C6.13879 7.2286 6.88105 7.42383 6.86538 7.43593C7.27056 7.55203 7.34379 7.85976 7.33153 8.10373L6.86481 10.2526C6.89273 10.2608 6.92892 10.2726 6.96881 10.2909C6.93548 10.2814 6.89986 10.271 6.8631 10.2608L6.20888 13.2711C6.1593 13.4124 6.03365 13.6243 5.75042 13.5439C5.7604 13.5605 5.02326 13.3355 5.02326 13.3355L4.52661 14.6499L5.82849 15.0224C6.07069 15.092 6.30804 15.1649 6.54169 15.2336L6.12768 17.1415L7.12695 17.4277L7.53697 15.5401C7.80994 15.6251 8.07494 15.7036 8.33422 15.7775L7.92563 17.6563L8.92605 17.9424L9.34009 16.0381C11.046 16.4086 12.3288 16.2592 12.8687 14.4883C13.3038 13.0625 12.847 12.24 11.9495 11.7037C12.6031 11.5307 13.0955 11.0372 13.2269 10.0178ZM10.9411 13.6966C10.6319 15.1224 8.54023 14.3516 7.86208 14.1583L8.41145 11.6307C9.08959 11.825 11.2642 12.2096 10.9411 13.6966ZM11.2506 9.99723C10.9684 11.2942 9.22752 10.6353 8.66275 10.4737L9.16087 8.18124C9.72555 8.3428 11.5444 8.64431 11.2506 9.99723Z" fill="#E3E2E2"/>
<path d="M26.81 7.37531C27.5494 7.37531 28.1882 7.52737 28.725 7.82595C29.2645 8.12747 29.7095 8.53365 30.0666 9.04447C30.4187 9.5579 30.6808 10.158 30.8501 10.8458C31.0182 11.5355 31.1025 12.2768 31.1025 13.0705C31.1025 14.2897 30.908 15.4415 30.515 16.5272C30.1221 17.6146 29.589 18.5578 28.9108 19.3623C28.2332 20.1658 27.4332 20.7992 26.5105 21.2672C25.5893 21.7355 24.5877 21.9697 23.5124 21.9697C23.3733 21.9697 23.1289 21.9651 22.7836 21.9569C22.4382 21.9487 22.0413 21.9079 21.5968 21.8389C21.1495 21.7672 20.6764 21.6613 20.1769 21.5193C19.6778 21.38 19.2036 21.1848 18.7571 20.9369L22.7497 1.68271L26.3256 1.04663L24.8961 7.87926C25.2021 7.72098 25.5103 7.59834 25.8181 7.50906C26.1262 7.42109 26.4566 7.37531 26.81 7.37531ZM23.8105 18.7138C24.349 18.7138 24.8564 18.5617 25.3331 18.2631C25.8113 17.9642 26.2238 17.5607 26.5695 17.058C26.9151 16.5531 27.1887 15.9844 27.3881 15.349C27.5876 14.7135 27.6885 14.0506 27.6885 13.3609C27.6885 12.5136 27.5651 11.8527 27.3191 11.3749C27.0733 10.8991 26.6182 10.6597 25.9575 10.6597C25.7409 10.6597 25.462 10.7071 25.116 10.7918C24.769 10.8817 24.4584 11.0685 24.18 11.3494L22.6579 18.6055C22.7497 18.6242 22.8309 18.6418 22.9001 18.6585C22.9679 18.6765 23.0429 18.6892 23.1175 18.6981C23.1964 18.7082 23.2867 18.7134 23.3959 18.7134C23.505 18.7134 23.6415 18.7138 23.8105 18.7138Z" fill="white"/>
<path d="M34.811 21.6012H31.3955L34.2799 7.67069H37.7188L34.811 21.6012ZM36.4731 5.9734C35.9963 5.9734 35.5641 5.81054 35.1806 5.48417C34.794 5.15975 34.6025 4.66038 34.6025 3.98735C34.6025 3.61716 34.668 3.26985 34.798 2.94216C34.9299 2.61513 35.1022 2.33356 35.3182 2.09418C35.5339 1.85676 35.7838 1.66707 36.0676 1.52416C36.3531 1.38354 36.6569 1.31323 36.9805 1.31323C37.457 1.31323 37.8869 1.47609 38.2719 1.80247C38.6554 2.13048 38.8483 2.62985 38.8483 3.29928C38.8483 3.67079 38.7831 4.0194 38.652 4.34643C38.5218 4.67346 38.3494 4.95503 38.1334 5.19441C37.9194 5.43216 37.6672 5.62119 37.384 5.76279C37.0983 5.90571 36.7957 5.9734 36.4731 5.9734Z" fill="white"/>
<path d="M40.7119 4.20028L44.2892 3.56421L43.4108 7.67039H47.242L46.5502 10.9008H42.7421L41.7276 15.7735C41.6342 16.1797 41.5812 16.5591 41.5664 16.9116C41.5495 17.2658 41.5886 17.5699 41.6809 17.826C41.7727 18.0827 41.9377 18.2806 42.177 18.4205C42.4152 18.5628 42.7563 18.6344 43.2036 18.6344C43.5721 18.6344 43.931 18.5942 44.2781 18.5144C44.6232 18.4359 44.9728 18.3267 45.3267 18.1838L45.5814 21.2042C45.1198 21.3985 44.62 21.5656 44.0815 21.7062C43.5422 21.8488 42.9036 21.9174 42.1656 21.9174C41.1045 21.9174 40.2819 21.7366 39.6958 21.3765C39.1105 21.0139 38.6968 20.5184 38.4491 19.8912C38.205 19.2662 38.0958 18.5458 38.1263 17.7341C38.158 16.9204 38.2648 16.0653 38.4491 15.1646L40.7119 4.20028Z" fill="white"/>
<path d="M47.0917 16.0385C47.0917 14.8386 47.2609 13.7071 47.5991 12.6478C47.9367 11.5876 48.4232 10.6605 49.0543 9.86479C49.6831 9.07305 50.4494 8.44581 51.3511 7.98535C52.2487 7.52751 53.2537 7.29663 54.3613 7.29663C55.0545 7.29663 55.6737 7.37185 56.2185 7.52261C56.7656 7.67468 57.2605 7.87123 57.7081 8.11781L56.5302 11.1919C56.2224 11.0486 55.903 10.9224 55.5728 10.808C55.2423 10.6912 54.8388 10.635 54.3615 10.635C53.2215 10.635 52.3203 11.0859 51.6495 11.9849C50.9814 12.8846 50.6448 14.0956 50.6448 15.6146C50.6448 16.5149 50.8141 17.2429 51.1537 17.7998C51.4917 18.3568 52.1159 18.6338 53.0223 18.6338C53.4697 18.6338 53.9014 18.5801 54.3148 18.4755C54.7314 18.3695 55.0992 18.2361 55.4232 18.0785L55.6782 21.2297C55.2462 21.422 54.7698 21.5957 54.2473 21.7477C53.7236 21.8946 53.1001 21.9708 52.3773 21.9708C51.4229 21.9708 50.6152 21.8105 49.9544 21.495C49.2933 21.1745 48.7471 20.749 48.3169 20.2101C47.8844 19.6698 47.5738 19.039 47.3817 18.3149C47.1897 17.5915 47.0917 16.8315 47.0917 16.0385Z" fill="white"/>
<path d="M62.2645 21.9708C61.4493 21.9708 60.7412 21.8282 60.1406 21.546C59.5417 21.2637 59.0456 20.8677 58.6532 20.3543C58.2603 19.8435 57.9663 19.2381 57.7648 18.5406C57.5633 17.8433 57.4664 17.0712 57.4664 16.2252C57.4664 15.164 57.6149 14.1031 57.915 13.0452C58.2136 11.9849 58.6566 11.0323 59.2431 10.1856C59.8249 9.33763 60.5427 8.64431 61.3877 8.10373C62.232 7.56675 63.2031 7.29663 64.2938 7.29663C65.0942 7.29663 65.7985 7.43954 66.4075 7.72176C67.0136 8.00334 67.5128 8.40264 67.9074 8.91346C68.2977 9.4269 68.5944 10.0296 68.7939 10.7282C68.9947 11.4241 69.0939 12.1981 69.0939 13.0448C69.0939 14.1028 68.9475 15.1637 68.6568 16.2249C68.3659 17.2808 67.9342 18.2358 67.3643 19.0844C66.7956 19.9311 66.0844 20.6241 65.2301 21.1624C64.377 21.7007 63.3877 21.9708 62.2645 21.9708ZM63.9715 10.6353C63.4652 10.6353 63.0176 10.804 62.6344 11.1373C62.2497 11.4744 61.9265 11.8983 61.6661 12.4094C61.4029 12.9229 61.2076 13.4827 61.0757 14.0913C60.945 14.7012 60.8808 15.2778 60.8808 15.8256C60.8808 16.7095 61.0051 17.3979 61.2493 17.8934C61.4969 18.3862 61.9417 18.6341 62.5882 18.6341C63.0962 18.6341 63.5416 18.4667 63.9271 18.1298C64.3095 17.7953 64.6329 17.3711 64.8954 16.859C65.1569 16.3482 65.3538 15.7867 65.4858 15.1771C65.6148 14.5691 65.6807 13.9893 65.6807 13.4425C65.6807 12.5608 65.5569 11.8708 65.3105 11.376C65.0643 10.8832 64.6175 10.6353 63.9715 10.6353Z" fill="white"/>
<path d="M72.8158 21.6012H69.3975L72.2819 7.67069H75.7225L72.8158 21.6012ZM74.4753 5.9734C73.9989 5.9734 73.5669 5.81054 73.184 5.48417C72.7993 5.15975 72.6061 4.66038 72.6061 3.98735C72.6061 3.61716 72.6725 3.26985 72.8027 2.94216C72.9329 2.61513 73.1064 2.33356 73.3224 2.09418C73.5369 1.85676 73.7892 1.66707 74.0724 1.52416C74.3562 1.38354 74.66 1.31323 74.9825 1.31323C75.4601 1.31323 75.8914 1.47609 76.2755 1.80247C76.6599 2.13048 76.8539 2.62985 76.8539 3.29928C76.8539 3.67079 76.785 4.0194 76.6559 4.34643C76.5269 4.67346 76.3533 4.95503 76.1382 5.19441C75.9217 5.43216 75.6726 5.62119 75.3888 5.76279C75.1027 5.90571 74.7995 5.9734 74.4753 5.9734Z" fill="white"/>
<path d="M78.184 8.30397C78.4433 8.21698 78.7329 8.11234 79.0477 7.99853C79.3637 7.88473 79.7167 7.77877 80.1111 7.68328C80.5011 7.58484 80.9414 7.50503 81.4255 7.44323C81.9096 7.38011 82.4612 7.34937 83.0741 7.34937C84.8755 7.34937 86.1173 7.95143 86.8028 9.15196C87.4881 10.3525 87.6066 11.9955 87.1619 14.078L85.5907 21.5997H82.1527L83.6753 14.2363C83.7682 13.7765 83.8412 13.332 83.8951 12.8978C83.9494 12.4674 83.9463 12.088 83.8828 11.7597C83.8221 11.4353 83.6791 11.1697 83.4571 10.964C83.2317 10.7616 82.8912 10.6599 82.4293 10.6599C81.984 10.6599 81.5309 10.7148 81.0684 10.8208L78.8297 21.5994H75.3903L78.184 8.30397Z" fill="white"/>
</g>
<defs>
<clipPath id="clip0_267_113">
<rect width="88" height="22" fill="white" transform="translate(0.0683594 0.872803)"/>
</clipPath>
</defs>
</svg>
