<svg width="105" height="32" viewBox="0 0 105 32" fill="none" xmlns="http://www.w3.org/2000/svg">
<g clip-path="url(#clip0_267_135)">
<path d="M29.5324 18.5691C29.5309 18.6705 29.4938 18.7671 29.4295 18.8379C29.365 18.9085 29.2784 18.9476 29.1885 18.9464H22.8548C23.0172 20.7143 24.1922 22.3313 25.8544 22.3313C26.9913 22.3313 27.832 21.8462 28.4625 20.8221C28.4918 20.7683 28.5324 20.7234 28.5807 20.6915C28.6291 20.6595 28.6835 20.6415 28.7395 20.6388C28.7812 20.6375 28.8227 20.6458 28.8615 20.6632C28.9003 20.6806 28.9356 20.7068 28.9651 20.74C28.9945 20.7734 29.0178 20.8131 29.0332 20.8569C29.0486 20.9007 29.0559 20.9475 29.0548 20.9946C29.055 21.0597 29.0384 21.1233 29.007 21.1779C28.3669 22.4283 27.0963 23.0428 25.8544 23.0428C23.7241 23.0428 22.1957 20.8868 22.1957 18.5906C22.1957 16.2945 23.7146 14.1385 25.8544 14.1385C27.9944 14.1385 29.5229 16.2729 29.5324 18.5691ZM28.8541 18.2349C28.7204 16.467 27.5167 14.85 25.8544 14.85C24.1922 14.85 23.0172 16.467 22.8548 18.2349H28.8541Z" fill="#C4C4C4"/>
<path d="M37.2323 14.3108C37.3151 14.3134 37.3939 14.3518 37.4526 14.4179C37.5111 14.484 37.5451 14.5729 37.5476 14.6665C37.5487 14.7135 37.5414 14.7604 37.526 14.8042C37.5106 14.8479 37.4873 14.8877 37.4579 14.921C37.4283 14.9543 37.3931 14.9805 37.3543 14.9978C37.3155 15.0152 37.274 15.0235 37.2323 15.0222H35.5318V22.5574C35.5311 22.6515 35.4977 22.7415 35.4387 22.8081C35.3797 22.8746 35.3 22.9124 35.2166 22.9131C35.1338 22.9105 35.0549 22.8721 34.9963 22.806C34.9377 22.7399 34.9037 22.651 34.9013 22.5574V15.0222H33.2678C33.2261 15.0235 33.1845 15.0152 33.1457 14.9978C33.1069 14.9805 33.0717 14.9543 33.0422 14.921C33.0127 14.8877 32.9895 14.8479 32.9741 14.8042C32.9587 14.7604 32.9513 14.7135 32.9525 14.6665C32.9532 14.5724 32.9867 14.4824 33.0456 14.4158C33.1046 14.3493 33.1844 14.3115 33.2678 14.3108H34.9013V11.5618C34.9015 11.4707 34.9305 11.3827 34.983 11.3135C35.0355 11.2444 35.1082 11.1986 35.1879 11.1845C35.2325 11.1778 35.2778 11.1821 35.3208 11.197C35.3637 11.2119 35.4034 11.2371 35.4369 11.2709C35.4705 11.3047 35.4973 11.3462 35.5152 11.3927C35.5333 11.4392 35.5422 11.4895 35.5414 11.5403V14.3108H37.2323Z" fill="white"/>
<path d="M47.5972 17.954V22.514C47.5949 22.6075 47.5609 22.6964 47.5022 22.7625C47.4437 22.8287 47.3649 22.867 47.282 22.8697C47.2403 22.8711 47.1988 22.8628 47.16 22.8454C47.1212 22.828 47.086 22.8018 47.0564 22.7686C47.027 22.7352 47.0037 22.6955 46.9883 22.6516C46.9729 22.6079 46.9656 22.5611 46.9667 22.514V17.954C46.9667 16.4124 46.1929 14.8817 44.674 14.8817C42.7252 14.8817 41.8845 16.8006 41.9992 18.7733C41.9992 18.8272 42.0183 19.0535 42.0183 19.086V22.5032C42.0181 22.5943 41.9892 22.6823 41.9366 22.7515C41.8841 22.8206 41.8114 22.8664 41.7317 22.8805C41.6871 22.8871 41.6418 22.8829 41.5988 22.868C41.5558 22.8531 41.5162 22.8279 41.4826 22.7941C41.4491 22.7604 41.4224 22.7188 41.4043 22.6723C41.3864 22.6258 41.3774 22.5755 41.3782 22.5248V7.52975C41.379 7.43566 41.4125 7.34566 41.4714 7.27913C41.5303 7.21261 41.6101 7.17485 41.6935 7.17401C41.7764 7.17672 41.8551 7.21506 41.9137 7.2812C41.9723 7.34735 42.0063 7.43626 42.0087 7.52975V16.0028C42.5532 14.9033 43.5277 14.1594 44.6645 14.1594C46.5369 14.1594 47.5972 16.0028 47.5972 17.954Z" fill="white"/>
<path d="M58.975 18.5691C58.9735 18.6705 58.9364 18.7671 58.872 18.8379C58.8076 18.9085 58.721 18.9476 58.6311 18.9464H52.2974C52.4598 20.7143 53.6348 22.3313 55.297 22.3313C56.4339 22.3313 57.2746 21.8462 57.9051 20.8221C57.9344 20.7683 57.975 20.7234 58.0233 20.6915C58.0717 20.6595 58.1261 20.6415 58.182 20.6388C58.2238 20.6375 58.2653 20.6458 58.3041 20.6632C58.3429 20.6806 58.3782 20.7068 58.4076 20.74C58.4371 20.7734 58.4603 20.8131 58.4758 20.8569C58.4912 20.9007 58.4986 20.9475 58.4974 20.9946C58.4976 21.0597 58.481 21.1233 58.4496 21.1779C57.8095 22.4283 56.5389 23.0428 55.297 23.0428C53.1667 23.0428 51.6382 20.8868 51.6382 18.5906C51.6382 16.2945 53.1572 14.1385 55.297 14.1385C57.4178 14.1385 58.9655 16.2729 58.975 18.5691ZM58.2872 18.2349C58.1534 16.467 56.9497 14.85 55.2875 14.85C53.6253 14.85 52.4503 16.467 52.2879 18.2349H58.2872Z" fill="white"/>
<path d="M66.7608 14.6446C66.7668 14.7403 66.7391 14.8349 66.6836 14.9075C66.6282 14.9802 66.5494 15.0252 66.4646 15.0327C64.6018 15.3453 63.7611 17.0593 63.7611 19.0536V22.471C63.7609 22.562 63.732 22.65 63.6795 22.7192C63.627 22.7884 63.5543 22.8341 63.4745 22.8482C63.43 22.8549 63.3846 22.8506 63.3417 22.8358C63.2987 22.8208 63.2591 22.7956 63.2255 22.7618C63.192 22.728 63.1652 22.6865 63.1472 22.64C63.1292 22.5935 63.1202 22.5432 63.121 22.4924V14.6985C63.1212 14.6075 63.1502 14.5193 63.2028 14.4503C63.2552 14.3811 63.3279 14.3353 63.4077 14.3212C63.4523 14.3145 63.4976 14.3188 63.5406 14.3337C63.5835 14.3486 63.6232 14.3738 63.6567 14.4076C63.6903 14.4414 63.717 14.4829 63.735 14.5294C63.7531 14.5759 63.7619 14.6262 63.7611 14.677V16.2617C64.2865 15.259 65.3278 14.3104 66.4168 14.3104C66.5793 14.3104 66.7608 14.4397 66.7608 14.6446Z" fill="white"/>
<path d="M77.1736 18.5691C77.1722 18.6705 77.1352 18.7671 77.0707 18.8379C77.0062 18.9085 76.9196 18.9476 76.8297 18.9464H70.496C70.6584 20.7143 71.8335 22.3313 73.4958 22.3313C74.6325 22.3313 75.4732 21.8462 76.1037 20.8221C76.133 20.7683 76.1737 20.7234 76.2219 20.6915C76.2703 20.6595 76.3247 20.6415 76.3808 20.6388C76.4225 20.6375 76.464 20.6458 76.5027 20.6632C76.5416 20.6806 76.5768 20.7068 76.6063 20.74C76.6358 20.7734 76.659 20.8131 76.6744 20.8569C76.6898 20.9007 76.6972 20.9475 76.696 20.9946C76.6962 21.0597 76.6796 21.1233 76.6482 21.1779C76.0081 22.4283 74.7376 23.0428 73.4958 23.0428C71.3654 23.0428 69.8369 20.8868 69.8369 18.5906C69.8369 16.2945 71.3558 14.1385 73.4958 14.1385C75.6356 14.1385 77.1641 16.2729 77.1736 18.5691ZM76.4954 18.2349C76.3616 16.467 75.158 14.85 73.4958 14.85C71.8335 14.85 70.6584 16.467 70.496 18.2349H76.4954Z" fill="white"/>
<path d="M87.4145 14.7314V22.5576C87.4121 22.6512 87.3781 22.7401 87.3195 22.8062C87.2609 22.8724 87.1821 22.9107 87.0992 22.9134C87.0575 22.9147 87.016 22.9065 86.9772 22.889C86.9384 22.8716 86.9032 22.8455 86.8737 22.8122C86.8441 22.7788 86.821 22.7391 86.8056 22.6954C86.7902 22.6516 86.7828 22.6047 86.784 22.5576V21.07C86.2586 22.2451 85.3319 23.0967 84.1474 23.0967C82.2654 23.0967 81.2241 21.2533 81.2241 19.3021V14.7206C81.2249 14.6265 81.2584 14.5365 81.3172 14.47C81.3762 14.4034 81.456 14.3657 81.5394 14.3649C81.6222 14.3675 81.701 14.406 81.7596 14.4721C81.8182 14.5382 81.8522 14.6271 81.8546 14.7206V19.3021C81.8546 20.8437 82.6284 22.3744 84.1474 22.3744C86.2777 22.3744 86.784 20.1214 86.784 17.6312V14.7098C86.7847 14.6522 86.7976 14.5955 86.8218 14.5446C86.8458 14.4938 86.8803 14.4501 86.9224 14.4174C86.9645 14.3847 87.013 14.3638 87.0636 14.3566C87.1143 14.3493 87.1659 14.3558 87.2139 14.3756C87.274 14.4071 87.3247 14.4573 87.3603 14.5204C87.3958 14.5834 87.4147 14.6566 87.4145 14.7314Z" fill="white"/>
<path d="M103.454 17.9218V22.5034C103.452 22.5968 103.418 22.6857 103.359 22.7518C103.3 22.818 103.222 22.8563 103.139 22.8591C103.097 22.8604 103.056 22.8521 103.017 22.8348C102.978 22.8174 102.943 22.7911 102.914 22.7578C102.884 22.7246 102.861 22.6848 102.845 22.641C102.83 22.5973 102.822 22.5504 102.823 22.5034V17.9218C102.823 16.3803 102.05 14.8711 100.531 14.8711C98.6202 14.8711 97.8943 17.178 97.8943 18.9675V22.5034C97.892 22.5968 97.8579 22.6857 97.7994 22.7518C97.7408 22.818 97.662 22.8563 97.5791 22.8591C97.5374 22.8604 97.4959 22.8521 97.4571 22.8348C97.4183 22.8174 97.3831 22.7911 97.3535 22.7578C97.324 22.7246 97.3009 22.6848 97.2855 22.641C97.2701 22.5973 97.2627 22.5504 97.2639 22.5034V17.9218C97.2639 16.3803 96.4901 14.8711 94.9712 14.8711C93.0414 14.8711 92.2485 16.5852 92.3153 18.8705C92.3153 18.9243 92.3345 19.0214 92.3153 19.0537V22.4925C92.3152 22.5837 92.2863 22.6717 92.2337 22.7409C92.1812 22.81 92.1085 22.8558 92.0287 22.8698C91.9842 22.8765 91.9389 22.8723 91.8959 22.8573C91.8529 22.8425 91.8133 22.8173 91.7797 22.7835C91.7462 22.7497 91.7195 22.7082 91.7014 22.6617C91.6834 22.6152 91.6746 22.5648 91.6753 22.5141V14.6986C91.6754 14.6075 91.7045 14.5194 91.757 14.4504C91.8095 14.3812 91.8822 14.3354 91.9619 14.3213C92.0065 14.3146 92.0518 14.3188 92.0948 14.3338C92.1377 14.3487 92.1774 14.3739 92.2109 14.4076C92.2445 14.4414 92.2713 14.483 92.2892 14.5295C92.3073 14.576 92.3162 14.6263 92.3153 14.677V15.9814C92.8599 14.8818 93.8343 14.1596 94.9712 14.1596C96.2608 14.1596 97.2639 15.0866 97.6747 16.4341C98.2003 15.0975 99.2226 14.1596 100.531 14.1596C102.394 14.1596 103.454 15.9814 103.454 17.9218Z" fill="white"/>
<path opacity="0.6" d="M8.21006 12.5745L0.281006 16.6386L8.21006 21.9317L16.1487 16.6386L8.21006 12.5745Z" fill="white"/>
<path opacity="0.45" d="M0.281006 16.6391L8.21006 21.9321V1.78426L0.281006 16.6391Z" fill="white"/>
<path opacity="0.8" d="M8.21008 1.78426V21.9321L16.1487 16.6391L8.21008 1.78426Z" fill="white"/>
<path opacity="0.45" d="M0.281006 18.3427L8.21006 30.9553V23.6249L0.281006 18.3427Z" fill="white"/>
<path opacity="0.8" d="M8.21008 23.6249V30.9553L16.1487 18.3427L8.21008 23.6249Z" fill="white"/>
</g>
<defs>
<clipPath id="clip0_267_135">
<rect width="104" height="31" fill="white" transform="translate(0.0683594 0.872803)"/>
</clipPath>
</defs>
</svg>
