<svg xmlns="http://www.w3.org/2000/svg" width="76" height="75" viewBox="0 0 76 75" fill="none">
  <g filter="url(#filter0_d_270_2639)">
    <path
      d="M28.7093 20.3097C27.6238 21.2658 22.2557 17.5514 13.8774 19.9794C5.49905 22.4075 5.54843 26.2731 7.18789 30.1276C8.82735 33.9822 6.46069 34.6258 7.55943 38.2256C8.15547 40.174 14.3447 46.2006 18.494 53.0925C22.6433 59.9844 23.0645 62.3814 23.7984 63.8729C24.5322 65.3644 49.1611 64.0059 52.2732 61.3802C55.3854 58.7544 64.6423 44.6992 65.3341 42.849C66.0258 40.9989 62.5214 34.2249 60.8115 26.4887C59.1016 18.7526 58.0902 13.4813 57.1118 12.1761C56.1333 10.8708 50.8068 11.4214 50.4428 11.2445C50.0789 11.0676 49.0946 6.93674 47.6802 5.95147C46.2658 4.96619 38.8976 5.4006 33.7876 8.92365C28.6775 12.4467 30.1619 19.0412 28.7093 20.3097Z"
      fill="white"></path>
    <path fill-rule="evenodd" clip-rule="evenodd"
          d="M36.0482 30.6575L49.9084 58.8267L46.5089 59.2204L37.772 60.2228L26.554 61.5427C26.554 61.5427 26.0807 60.6745 25.2697 59.2407C24.1815 57.3104 22.4676 54.3363 20.4647 51.0562C17.3018 45.8876 13.4295 39.9605 10.1177 36.1508C10.1652 36.1669 26.2479 31.6161 36.0482 30.6575Z"
          fill="url(#paint0_linear_270_2639)"></path>
    <path fill-rule="evenodd" clip-rule="evenodd"
          d="M55.2452 13.9844C55.2452 13.9844 55.439 15.5307 55.8853 18.1395C56.2935 20.4967 56.9159 23.7046 57.8129 27.4168C59.0722 32.792 60.6498 38.0877 62.5371 43.2758L60.7293 45.4839L56.1613 51.1137L49.9055 58.8069L36.0531 30.6536L55.2452 13.9844Z"
          fill="url(#paint1_linear_270_2639)"></path>
    <g style="mix-blend-mode:soft-light">
      <path
        d="M23.2509 35.1918C22.6633 32.6383 20.1169 31.0446 17.5634 31.6322C15.0099 32.2198 13.4162 34.7662 14.0038 37.3197C14.5914 39.8732 17.1378 41.4669 19.6913 40.8793C22.2448 40.2917 23.8385 37.7453 23.2509 35.1918Z"
        fill="#7FFFFF"></path>
    </g>
    <g style="mix-blend-mode:soft-light">
      <path fill-rule="evenodd" clip-rule="evenodd"
            d="M60.3088 44.2798C60.4975 44.6637 60.6337 45.0712 60.7138 45.4914L56.1458 51.1212C55.2997 51.1343 54.4656 50.9204 53.7303 50.5016C52.9949 50.0828 52.3854 49.4745 51.965 48.7401C51.5447 48.0056 51.3289 47.1719 51.3403 46.3258C51.3516 45.4797 51.5896 44.6521 52.0295 43.9292C52.4694 43.2063 53.095 42.6145 53.8413 42.2156C54.5876 41.8167 55.4272 41.6251 56.2726 41.6609C57.1181 41.6967 57.9385 41.9586 58.6484 42.4192C59.3582 42.8798 59.9316 43.5223 60.3088 44.2798Z"
            fill="#7FFFFF"></path>
    </g>
    <path fill-rule="evenodd" clip-rule="evenodd"
          d="M36.009 30.6031L52.0244 40.3196L52.091 41.0714L36.3329 31.2613L36.009 30.6031Z"
          fill="url(#paint2_linear_270_2639)"></path>
    <path fill-rule="evenodd" clip-rule="evenodd"
          d="M49.8668 58.7644L48.0488 38.5482L48.5047 38.8315L50.4375 58.0617L49.8668 58.7644Z"
          fill="url(#paint3_linear_270_2639)"></path>
    <g style="mix-blend-mode:multiply" opacity="0.5">
      <path fill-rule="evenodd" clip-rule="evenodd"
            d="M55.2144 13.9227L55.7086 37.1835L52.0244 40.3215L52.091 41.0733L55.9702 37.2461L55.7899 33.168L62.4852 43.2245L55.918 32.5709L55.2144 13.9227Z"
            fill="#9572A9"></path>
    </g>
    <path fill-rule="evenodd" clip-rule="evenodd"
          d="M10.1606 36.1682L30.4903 22.8028L55.2462 13.9845L36.0408 30.6667L10.1606 36.1682Z" fill="#3BB6FF"></path>
    <g style="mix-blend-mode:soft-light">
      <path fill-rule="evenodd" clip-rule="evenodd"
            d="M46.1915 55.8427C46.7066 56.8924 46.8148 58.0957 46.4953 59.2205L37.7584 60.2229C37.7244 60.1539 37.6904 60.0849 37.6565 60.0159C37.1024 58.8897 37.0183 57.5894 37.4228 56.4013C37.8273 55.2131 38.6873 54.2343 39.8135 53.6801C40.9397 53.126 42.2399 53.042 43.4281 53.4465C44.6162 53.851 45.5951 54.7109 46.1492 55.8371L46.1915 55.8427Z"
            fill="#7FFFFF"></path>
    </g>
    <path
      d="M40.3241 59.9422C40.3241 59.9422 32.4728 42.4177 25.3373 32.9405L47.6644 16.6803L39.4284 19.6119L19.08 34.2392C19.08 34.2392 30.826 47.5794 36.3661 60.3799L40.3241 59.9422Z"
      fill="#E20E43"></path>
    <path
      d="M56.3998 50.8183C56.3998 50.8183 46.4604 31.7434 44.2216 23.562L18.9865 30.3613L23.1628 27.6472L48.361 19.9957C48.361 19.9957 52.216 35.6692 58.4475 48.334L56.3998 50.8183Z"
      fill="#81013B"></path>
    <path
      d="M44.215 23.5676L48.3493 19.9775L39.4295 22.6851L47.6772 16.682L39.4252 19.6215L32.0709 24.9213L23.1511 27.6289L18.9826 30.3723L27.588 28.0171L19.0899 34.2752L25.3368 32.9421L34.897 26.0822L44.215 23.5676Z"
      fill="#FF575B"></path>
    <path
      d="M9.34309 27.4434C9.34309 27.4434 11.0482 33.8567 14.6267 34.8452C14.6267 34.8452 25.4518 32.4858 32.0109 27.0168L29.2139 25.446C29.2139 25.446 22.2346 31.2667 19.3213 31.3354C16.408 31.4041 13.5962 23.8805 13.5962 23.8805C11.9021 24.6926 10.4395 25.9178 9.34309 27.4434Z"
      fill="#810742"></path>
    <path
      d="M32.0106 27.0178C32.0106 27.0178 14.5825 21.8533 9.34284 27.4444C9.34284 27.4444 11.7436 23.5336 17.6334 22.6135C23.5231 21.6935 28.7675 24.8885 28.7675 24.8885L32.0106 27.0178Z"
      fill="url(#paint4_radial_270_2639)"></path>
    <path
      d="M29.1436 25.1858C29.1436 25.1858 32.2799 23.7481 33.4189 23.9458C34.2224 24.1632 34.9272 24.6495 35.4154 25.3237L31.959 27.1695C31.0759 26.433 30.1343 25.7696 29.1436 25.1858Z"
      fill="url(#paint5_radial_270_2639)"></path>
    <path
      d="M46.8466 8.86659C45.7212 8.20064 36.074 9.21575 34.1218 12.0817C32.1695 14.9477 33.5102 24.1577 33.5102 24.1577C34.0859 24.3301 34.6132 24.6352 35.0495 25.0486C35.0495 25.0486 45.7313 18.6192 47.2975 16.1344C48.8637 13.6496 47.972 9.53255 46.8466 8.86659ZM41.5302 15.28C39.656 18.7735 34.9231 21.6428 34.9231 21.6428L36.3464 12.1277L41.0599 9.8085C41.0599 9.8085 43.4202 11.8052 41.5302 15.28Z"
      fill="#810742"></path>
    <path
      d="M33.5103 24.1602L34.2808 24.4799C34.2808 24.4799 36.4471 13.3663 39.4722 11.1262C42.4972 8.8862 46.8361 8.87425 46.8361 8.87425C46.8361 8.87425 40.2047 7.45615 35.0329 11.1084C30.6053 14.2364 33.5103 24.1602 33.5103 24.1602Z"
      fill="url(#paint6_radial_270_2639)"></path>
    <path fill-rule="evenodd" clip-rule="evenodd"
          d="M38.4919 32.606L47.6457 38.8288L49.0622 49.8278L48.0496 38.5509L38.4919 32.606Z" fill="#1C4676"></path>
    <g style="mix-blend-mode:soft-light">
      <path fill-rule="evenodd" clip-rule="evenodd"
            d="M26.9612 53.1913C27.4723 54.2259 27.5878 55.4117 27.2859 56.5255C26.984 57.6393 26.2855 58.6044 25.3219 59.2393C24.2337 57.309 22.5198 54.3349 20.5168 51.0548L20.6071 51.0104C21.1671 50.734 21.7762 50.5711 22.3994 50.5312C23.0226 50.4913 23.6476 50.5751 24.2382 50.7779C24.8289 50.9806 25.3736 51.2982 25.8409 51.7124C26.3082 52.1267 26.689 52.6293 26.9612 53.1913Z"
            fill="#7FFFFF"></path>
    </g>
    <g style="mix-blend-mode:soft-light">
      <path
        d="M40.7729 40.6844C42.4981 38.7124 42.2981 35.715 40.326 33.9898C38.3539 32.2645 35.3566 32.4646 33.6313 34.4366C31.9061 36.4087 32.1061 39.406 34.0782 41.1313C36.0503 42.8566 39.0476 42.6565 40.7729 40.6844Z"
        fill="#7FFFFF"></path>
    </g>
    <g style="mix-blend-mode:soft-light">
      <path fill-rule="evenodd" clip-rule="evenodd"
            d="M55.8862 18.1415C56.2944 20.4987 56.9168 23.7066 57.8138 27.4188C56.6672 27.7384 55.4423 27.6143 54.3832 27.071C53.3241 26.5278 52.5085 25.6054 52.0992 24.4878C51.6898 23.3701 51.7166 22.1392 52.1743 21.0404C52.632 19.9416 53.4869 19.0556 54.5687 18.5591C54.9843 18.3544 55.4285 18.2137 55.8862 18.1415Z"
            fill="#7FC2FF"></path>
    </g>
    <g style="mix-blend-mode:multiply" opacity="0.5">
      <path fill-rule="evenodd" clip-rule="evenodd"
            d="M25.338 32.9398C25.338 32.9398 35.1722 44.8868 40.3248 59.9415C40.3248 59.9415 32.6143 42.7433 25.338 32.9398Z"
            fill="#9572A9"></path>
    </g>
    <g style="mix-blend-mode:soft-light">
      <path fill-rule="evenodd" clip-rule="evenodd"
            d="M19.094 34.2647L25.3382 32.9395L27.1058 31.6545C27.1058 31.6545 22.2407 33.6922 19.926 33.651L19.2986 34.1311L19.094 34.2647Z"
            fill="#EAFFFF"></path>
    </g>
    <g style="mix-blend-mode:soft-light">
      <path fill-rule="evenodd" clip-rule="evenodd"
            d="M42.7524 23.9553C42.7524 23.9553 47.1988 21.2005 47.3449 20.2781L48.3496 19.975L44.2206 23.5625L42.7524 23.9553Z"
            fill="#EAFFFF"></path>
    </g>
    <g style="mix-blend-mode:multiply" opacity="0.5">
      <path fill-rule="evenodd" clip-rule="evenodd"
            d="M34.8994 26.0696L43.7014 24.0067C43.7014 24.0067 50.7594 41.8886 56.3983 50.8166C56.3983 50.8166 48.0287 35.3206 44.2201 23.5602L34.8994 26.0696Z"
            fill="#9572A9"></path>
    </g>
    <g style="mix-blend-mode:soft-light">
      <path fill-rule="evenodd" clip-rule="evenodd"
            d="M34.1222 12.0828C35.4685 11.5237 36.9528 11.3865 38.3788 11.6894C39.5837 10.7227 40.9367 9.95681 42.3856 9.42123C40.8371 9.33439 39.2839 9.44717 37.7642 9.75679C36.0467 10.2458 34.1222 12.0828 34.1222 12.0828Z"
            fill="#EAFFFF"></path>
    </g>
    <g style="mix-blend-mode:soft-light">
      <path fill-rule="evenodd" clip-rule="evenodd"
            d="M11.2242 25.7603C12.7274 25.2407 14.2906 24.9146 15.8761 24.79C15.8761 24.79 17.5814 22.896 18.993 22.6696C17.5543 22.6155 16.1201 22.8625 14.7823 23.3947C13.4445 23.927 12.2326 24.7327 11.2242 25.7603Z"
            fill="#EAFFFF"></path>
    </g>
    <path
      d="M34.8045 24.8203C34.8045 24.8203 36.7407 13.7078 40.146 11.1554C42.0556 9.6555 44.418 8.84877 46.8461 8.86745C44.2483 8.75547 41.6805 9.45875 39.5023 10.8788C36.1063 13.2091 34.3173 24.4601 34.3173 24.4601L34.8045 24.8203Z"
      fill="#810742"></path>
    <path
      d="M31.568 26.7771C31.568 26.7771 21.984 24.1285 16.9727 24.6097C11.9615 25.0909 9.85196 26.9003 9.34837 27.4579C12.6 25.8601 16.1752 25.0303 19.7982 25.0325C25.8779 25.0211 31.9437 27.1923 31.9437 27.1923L31.568 26.7771Z"
      fill="#810742"></path>
    <g style="mix-blend-mode:soft-light">
      <path
        d="M11.0779 36.4941C11.0779 36.4941 23.5531 47.4976 26.6079 60.8749C24.5204 56.5527 22.1843 52.3551 19.6113 48.3031C16.1769 42.9714 11.7073 37.7733 11.0779 36.4941Z"
        fill="#F5FFFF"></path>
    </g>
    <g style="mix-blend-mode:soft-light">
      <path
        d="M55.2289 14.5519C55.2289 14.5519 55.9055 25.8292 57.2433 30.9332C58.5811 36.0372 62.4852 43.208 62.4852 43.208C62.4852 43.208 55.7645 28.4369 55.2289 14.5519Z"
        fill="#F5FFFF"></path>
    </g>
    <g style="mix-blend-mode:soft-light">
      <path
        d="M26.0168 34.3195C26.0168 34.3195 36.2667 49.108 39.0933 58.4571C39.0933 58.4571 31.0459 41.8071 26.0168 34.3195Z"
        fill="#F5FFFF"></path>
    </g>
    <g style="mix-blend-mode:soft-light">
      <path
        d="M33.5282 23.7786C33.5282 23.7786 32.4091 15.0991 34.1216 12.0808C34.1216 12.0808 31.194 14.8003 33.5282 23.7786Z"
        fill="#F5FFFF"></path>
    </g>
    <g style="mix-blend-mode:soft-light">
      <path
        d="M36.211 32.2024C36.211 32.2024 46.2386 51.9526 48.7425 57.5641C48.7425 57.5641 39.592 42.1425 36.211 32.2024Z"
        fill="#F5FFFF"></path>
    </g>
  </g>
  <defs>
    <filter id="filter0_d_270_2639" x="4.67761" y="5.49299" width="60.7457" height="60.9746"
            filterUnits="userSpaceOnUse" color-interpolation-filters="sRGB">
      <feFlood flood-opacity="0" result="BackgroundImageFix"></feFlood>
      <feColorMatrix in="SourceAlpha" type="matrix" values="0 0 0 0 0 0 0 0 0 0 0 0 0 0 0 0 0 0 127 0"
                     result="hardAlpha"></feColorMatrix>
      <feOffset dx="-0.988622" dy="1.31816"></feOffset>
      <feGaussianBlur stdDeviation="0.329541"></feGaussianBlur>
      <feComposite in2="hardAlpha" operator="out"></feComposite>
      <feColorMatrix type="matrix" values="0 0 0 0 0 0 0 0 0 0 0 0 0 0 0 0 0 0 0.25 0"></feColorMatrix>
      <feBlend mode="normal" in2="BackgroundImageFix" result="effect1_dropShadow_270_2639"></feBlend>
      <feBlend mode="normal" in="SourceGraphic" in2="effect1_dropShadow_270_2639" result="shape"></feBlend>
    </filter>
    <linearGradient id="paint0_linear_270_2639" x1="38.3902" y1="64.4941" x2="21.6675" y2="30.5074"
                    gradientUnits="userSpaceOnUse">
      <stop offset="0.01" stop-color="#00C5A0"></stop>
      <stop offset="1" stop-color="#00689D"></stop>
    </linearGradient>
    <linearGradient id="paint1_linear_270_2639" x1="60.9327" y1="53.4009" x2="44.21" y2="19.4142"
                    gradientUnits="userSpaceOnUse">
      <stop offset="0.01" stop-color="#1B5A84"></stop>
      <stop offset="1" stop-color="#163E70"></stop>
    </linearGradient>
    <linearGradient id="paint2_linear_270_2639" x1="47.8128" y1="43.1765" x2="40.5314" y2="28.3779"
                    gradientUnits="userSpaceOnUse">
      <stop offset="0.01" stop-color="#3BA28C"></stop>
      <stop offset="1" stop-color="#00689D"></stop>
    </linearGradient>
    <linearGradient id="paint3_linear_270_2639" x1="53.2639" y1="57.0929" x2="44.9012" y2="40.0969"
                    gradientUnits="userSpaceOnUse">
      <stop stop-color="#00689D"></stop>
      <stop offset="0.99" stop-color="#3BA28C"></stop>
    </linearGradient>
    <radialGradient id="paint4_radial_270_2639" cx="0" cy="0" r="1" gradientUnits="userSpaceOnUse"
                    gradientTransform="translate(19.1429 24.4487) rotate(-26.1988) scale(7.36501 7.36501)">
      <stop stop-color="#FF3143"></stop>
      <stop offset="1" stop-color="#E30A47"></stop>
    </radialGradient>
    <radialGradient id="paint5_radial_270_2639" cx="0" cy="0" r="1" gradientUnits="userSpaceOnUse"
                    gradientTransform="translate(32.299 25.3144) rotate(-26.1988) scale(2.23021 2.23021)">
      <stop stop-color="#FF3143"></stop>
      <stop offset="1" stop-color="#E30A47"></stop>
    </radialGradient>
    <radialGradient id="paint6_radial_270_2639" cx="0" cy="0" r="1" gradientUnits="userSpaceOnUse"
                    gradientTransform="translate(38.1053 12.5824) rotate(-26.1988) scale(7.35909 6.99114)">
      <stop stop-color="#FF3143"></stop>
      <stop offset="1" stop-color="#E30A47"></stop>
    </radialGradient>
  </defs>
</svg>
