<svg width="81" height="28" viewBox="0 0 81 28" fill="none" xmlns="http://www.w3.org/2000/svg">
<g clip-path="url(#clip0_267_123)">
<path d="M11.3664 1.69458C5.16937 1.69458 0.144775 7.31284 0.144775 14.2421C0.144775 21.1712 5.16937 26.7894 11.3664 26.7894C17.5634 26.7894 22.588 21.1712 22.588 14.2421C22.5751 7.31284 17.5634 1.69458 11.3664 1.69458ZM11.5339 14.6454L10.3743 19.0536H16.61C16.829 19.0536 16.9708 19.2841 16.9192 19.5145L16.3781 21.6034C16.3265 21.8051 16.159 21.9491 15.9658 21.9491H6.43197L8.04241 15.8554L6.26447 16.475L6.65098 15.0343L8.4418 14.4149L10.7093 5.85786C10.7608 5.65617 10.9283 5.51211 11.1215 5.51211H13.5309C13.7498 5.51211 13.8916 5.74261 13.84 5.9731L11.9203 13.2048L13.6983 12.5854L13.3118 14.0404L11.5339 14.6454Z" fill="white"/>
<path d="M29.0683 5.49805H28.3726C28.2437 5.49805 28.1536 5.58448 28.1277 5.72854L26.3241 21.7045C26.3112 21.863 26.3498 21.935 26.4916 21.935H27.1873C27.329 21.935 27.4063 21.863 27.432 21.7045L29.2487 5.72854C29.2873 5.57007 29.21 5.49805 29.0683 5.49805Z" fill="white"/>
<path d="M32.7144 10.1079H32.0187C31.8899 10.1079 31.7996 10.1799 31.7739 10.3384L30.4855 21.7189C30.4727 21.8775 30.5499 21.9495 30.6788 21.9495H31.3745C31.5033 21.9495 31.5936 21.8775 31.6193 21.7189L32.8947 10.3528C32.9077 10.1943 32.8562 10.1079 32.7144 10.1079Z" fill="white"/>
<path d="M63.1971 9.92114C62.2308 9.92114 61.3934 10.2237 60.6848 10.8431C59.9762 11.4626 59.5124 12.2693 59.2805 13.2777C59.0872 14.0989 58.9198 15.2513 58.8424 16.0293C58.7394 17.0808 58.6492 17.9451 58.6492 18.7807C58.662 19.8035 58.9583 20.6102 59.5124 21.2297C60.0792 21.8347 60.8523 22.1516 61.8314 22.1516C62.7848 22.1516 63.6222 21.8491 64.3309 21.2297C65.0395 20.6247 65.5032 19.8035 65.7351 18.7807C65.8898 18.1036 66.0444 17.1961 66.1732 16.0293C66.302 14.8191 66.3664 13.8972 66.3664 13.2633C66.3664 12.2549 66.083 11.4482 65.5161 10.8431C64.9364 10.2237 64.1634 9.92114 63.1971 9.92114ZM65.1554 14.92C65.091 15.4962 65.0523 15.8707 65.0394 16.0293C64.9106 17.2105 64.7947 18.046 64.6916 18.5503C64.537 19.2993 64.202 19.9043 63.6996 20.3653C63.1971 20.8264 62.6044 21.0424 61.9474 21.0424C61.2774 21.0424 60.7492 20.812 60.3498 20.3653C59.9504 19.9187 59.7572 19.3281 59.7572 18.5935C59.7572 18.2044 59.7958 17.7147 59.8602 17.1385C59.9246 16.5622 59.9633 16.1877 59.9762 16.0293C60.1051 14.9056 60.221 14.0701 60.324 13.5082C60.4786 12.7591 60.8136 12.1541 61.3161 11.6931C61.8186 11.2321 62.4112 11.016 63.0682 11.016C63.7382 11.016 64.2664 11.2465 64.6658 11.6787C65.0652 12.1253 65.2585 12.7159 65.2585 13.4505C65.2585 13.8684 65.2198 14.3438 65.1554 14.92Z" fill="white"/>
<path d="M70.3344 10.1079H69.6515C69.5227 10.1079 69.4326 10.1944 69.4068 10.3384L68.1055 21.7189C68.0927 21.8775 68.17 21.9495 68.2988 21.9495H68.9945C69.1233 21.9495 69.2136 21.8775 69.2393 21.7189L70.5148 10.3528C70.5277 10.1943 70.4762 10.1079 70.3344 10.1079Z" fill="white"/>
<path d="M79.1211 10.7852C78.6443 10.2234 77.9745 9.94971 77.0983 9.94971C76.5314 9.94971 76.0161 10.065 75.5394 10.3099C75.0628 10.5548 74.6634 10.9149 74.3284 11.4047C74.264 11.4623 74.2382 11.4479 74.2382 11.3615L74.3413 10.3531C74.3541 10.209 74.3026 10.1226 74.1738 10.1226H73.4781C73.3493 10.1226 73.259 10.209 73.2332 10.3531L71.9578 21.7193C71.9449 21.8633 71.9836 21.9497 72.1253 21.9497H72.821C72.9499 21.9497 73.04 21.8633 73.0528 21.7193L73.9805 13.5656C74.1351 12.8021 74.4572 12.1827 74.9339 11.736C75.4106 11.2894 75.9775 11.059 76.6474 11.059C77.2658 11.059 77.7554 11.275 78.1161 11.7072C78.4768 12.1393 78.6573 12.7156 78.6573 13.4503C78.6573 13.6664 78.6443 13.8392 78.6315 13.9689L77.7425 21.7193C77.7425 21.7913 77.7425 21.8345 77.7683 21.8777C77.807 21.9209 77.8584 21.9497 77.9358 21.9497H78.6315C78.7603 21.9497 78.8505 21.8777 78.8634 21.7193L79.7524 13.7816C79.7781 13.4647 79.791 13.2342 79.791 13.0758C79.8297 12.0962 79.5978 11.3327 79.1211 10.7852Z" fill="white"/>
<path d="M33.1654 5.51213C32.753 5.26723 32.2248 5.4401 32.0187 5.91549C31.7997 6.37648 31.9672 6.96712 32.3795 7.21202C32.7917 7.45691 33.3071 7.26964 33.5261 6.80865C33.7451 6.33326 33.5905 5.75704 33.1654 5.51213Z" fill="white"/>
<path d="M70.8369 5.51213C70.4246 5.26723 69.8964 5.4401 69.6902 5.91549C69.4712 6.37648 69.6387 6.96712 70.051 7.21202C70.4633 7.45691 70.9915 7.26964 71.2105 6.80865C71.4166 6.33326 71.2492 5.75704 70.8369 5.51213Z" fill="white"/>
<path d="M54.127 9.92114C53.1607 9.92114 52.3233 10.2381 51.6146 10.8431C50.9061 11.4626 50.4423 12.2693 50.2104 13.2777C50.0171 14.0989 49.8367 15.3953 49.7723 16.0293C49.6822 16.9512 49.5791 17.9451 49.5791 18.7807C49.592 19.8035 49.8883 20.6102 50.4423 21.2297C51.0092 21.8347 51.7821 22.1516 52.7613 22.1516C53.7147 22.1516 54.5522 21.8491 55.2607 21.2297C55.9694 20.6247 56.4332 19.8035 56.6651 18.7807C56.6779 18.6943 56.7037 18.6079 56.7166 18.5214C56.7295 18.4494 56.6779 18.3918 56.6264 18.3918H55.7632C55.7117 18.3918 55.6473 18.4206 55.6344 18.507C55.6344 18.5214 55.6215 18.5503 55.6215 18.5503C55.4669 19.2993 55.1319 19.9043 54.6294 20.3653C54.127 20.8264 53.5343 21.0424 52.8772 21.0424C52.2074 21.0424 51.6792 20.812 51.2798 20.3653C50.8804 19.9187 50.6871 19.3281 50.6871 18.5935C50.6871 18.2044 50.7257 17.7147 50.7901 17.1385C50.8417 16.6487 50.8932 16.1877 50.9061 16.0293C51.0349 14.9056 51.1508 14.0701 51.2539 13.5082C51.4086 12.7591 51.7436 12.1541 52.2459 11.6931C52.7484 11.2321 53.3411 11.016 53.9981 11.016C54.6553 11.016 55.1963 11.2321 55.5957 11.6787C55.9951 12.1253 56.1883 12.7159 56.1883 13.4505V13.4649C56.1883 13.5658 56.2657 13.6522 56.3558 13.6522H57.1676C57.232 13.6522 57.2964 13.5946 57.2964 13.5082C57.2964 13.4073 57.2964 13.3209 57.2964 13.2345C57.2964 12.2261 57.0129 11.4193 56.446 10.8143C55.8663 10.2237 55.1061 9.92114 54.127 9.92114Z" fill="white"/>
<path d="M47.1312 10.8431C46.5643 10.2381 45.7913 9.92114 44.825 9.92114C43.8588 9.92114 43.0213 10.2237 42.3127 10.8431C41.6041 11.4626 41.1403 12.2693 40.9084 13.2777C40.7152 14.0989 40.6249 14.8335 40.4704 16.0293C40.3286 17.2105 40.2771 17.9451 40.2771 18.7807C40.29 19.8035 40.5864 20.6102 41.1403 21.2297C41.7072 21.8347 42.4802 22.1516 43.4594 22.1516C44.4128 22.1516 45.2502 21.8491 45.9588 21.2297C46.6674 20.6247 47.1312 19.8035 47.3631 18.7807C47.3759 18.6943 47.4018 18.6079 47.4146 18.5214C47.4275 18.4494 47.3889 18.3918 47.3244 18.3918H46.4612C46.4097 18.3918 46.3452 18.4206 46.3324 18.507C46.3324 18.5214 46.3195 18.5503 46.3195 18.5503C46.1649 19.2993 45.8299 19.9043 45.3275 20.3653C44.825 20.8264 44.2323 21.0424 43.5753 21.0424C42.9054 21.0424 42.3772 20.812 41.9778 20.3653C41.5784 19.9187 41.3852 19.3281 41.3852 18.5935C41.3852 18.2476 41.4109 17.8155 41.4624 17.3257L47.7238 15.1504C47.8527 15.1072 47.9042 15.0352 47.93 14.8623C47.9686 14.5022 47.9944 13.8828 47.9944 13.2489C47.9815 12.3413 47.6981 11.4482 47.1312 10.8431ZM46.8864 14.1133C46.8864 14.1853 46.8477 14.2429 46.7833 14.2573L41.5912 16.0581C41.5912 16.0437 41.5912 16.0437 41.5912 16.0293C41.72 14.9056 41.836 14.0701 41.9391 13.5082C42.0937 12.7591 42.4287 12.1541 42.9312 11.6931C43.4336 11.2321 44.0263 11.016 44.6833 11.016C45.3533 11.016 45.8815 11.2465 46.2808 11.6787C46.9121 12.4134 46.925 13.1624 46.8864 14.1133Z" fill="white"/>
<path d="M37.8937 20.6964C38.0225 20.6244 38.1642 20.7253 38.1385 20.8837L38.0482 21.6617C38.0354 21.7625 37.971 21.849 37.8937 21.8922C37.2753 22.1515 36.4121 22.2667 35.7163 21.921C34.9176 21.5176 34.7114 20.6388 34.8274 19.544L35.7421 11.2031L35.8709 10.0074L36.1802 7.35672C36.193 7.19825 36.2832 7.12622 36.4249 7.12622H37.0949C37.2494 7.12622 37.2881 7.22707 37.2624 7.35672L36.863 11.131H39.0403C39.1691 11.131 39.2207 11.2175 39.2207 11.3615L39.1563 11.9089C39.1433 11.9954 39.1305 12.0386 39.0918 12.0962C39.0532 12.1395 38.9758 12.1539 38.9244 12.1539H36.7599L35.9997 18.9966C35.9225 19.7313 35.8323 20.3939 36.1672 20.7541C36.6053 21.1575 37.4556 20.9269 37.8937 20.6964Z" fill="white"/>
</g>
<defs>
<clipPath id="clip0_267_123">
<rect width="80" height="27" fill="white" transform="translate(0.0683594 0.872803)"/>
</clipPath>
</defs>
</svg>
