<svg width="188" height="72" viewBox="0 0 188 72" fill="none" xmlns="http://www.w3.org/2000/svg">
<g filter="url(#filter0_d_402_16)">
<path d="M14.0813 0.649523C16.8045 0.649523 19.0992 0.909597 20.9656 1.42974C22.8626 1.91929 24.3925 2.776 25.5551 3.99988C26.7178 5.19315 27.5592 6.84538 28.0794 8.95656C28.5995 11.0677 28.8596 13.7297 28.8596 16.9423C28.8596 20.155 28.5995 22.8169 28.0794 24.9281C27.5592 27.0393 26.7178 28.7068 25.5551 29.9307C24.3925 31.124 22.8626 31.9807 20.9656 32.5008C19.0992 32.9904 16.8045 33.2351 14.0813 33.2351C11.45 33.2351 9.03286 33.1892 6.82988 33.0975C4.62691 33.0057 2.53103 32.8986 0.542236 32.7762L4.58102 25.7083C5.65191 25.8307 6.99817 25.9225 8.6198 25.9837C10.272 26.0143 12.0925 26.0296 14.0813 26.0296C15.2134 26.0296 16.0854 25.7848 16.6974 25.2953C17.3093 24.8057 17.7377 23.9031 17.9824 22.5874C18.2272 21.2718 18.3496 19.3901 18.3496 16.9423C18.3496 14.4946 18.2272 12.6129 17.9824 11.2972C17.7377 9.98155 17.3093 9.07895 16.6974 8.5894C16.0854 8.09985 15.2134 7.85508 14.0813 7.85508C12.2149 7.85508 10.5627 7.85508 9.12465 7.85508C7.71719 7.85508 6.34033 7.83978 4.99407 7.80918L0.542236 1.10848C2.56163 0.98609 4.64221 0.879001 6.78399 0.78721C8.95636 0.695419 11.3888 0.649523 14.0813 0.649523ZM10.5015 1.10848V32.7762H0.542236V1.10848H10.5015Z" fill="white"/>
<path d="M46.17 0.649523C49.2909 0.649523 51.8304 0.940194 53.7886 1.52153C55.7468 2.10287 57.1849 3.09727 58.1028 4.50472C59.0513 5.88158 59.5255 7.80918 59.5255 10.2875C59.5255 11.542 59.3266 12.72 58.9289 13.8215C58.5617 14.8923 57.9039 15.7797 56.9554 16.4834C56.0375 17.1871 54.7524 17.6308 53.1002 17.8143V18.0897C53.6815 18.1509 54.3241 18.3345 55.0278 18.6405C55.7315 18.9158 56.3893 19.4054 57.0013 20.1091C57.6132 20.7822 58.0416 21.7613 58.2863 23.0464L60.7647 32.7762H50.3465L48.2812 23.3677C48.0976 22.4804 47.8069 21.899 47.4092 21.6236C47.042 21.3483 46.4301 21.2106 45.5734 21.2106C43.2786 21.18 41.3969 21.1647 39.9282 21.1647C38.4902 21.1647 37.2663 21.1494 36.2566 21.1188C35.2469 21.0882 34.2372 21.0423 33.2275 20.9811L33.3652 14.1886H45.9405C46.889 14.1886 47.6233 14.0968 48.1435 13.9132C48.6636 13.7297 49.0155 13.4084 49.1991 12.9494C49.4133 12.4599 49.5203 11.7868 49.5203 10.9301C49.5203 10.0428 49.4133 9.36962 49.1991 8.91067C49.0155 8.45171 48.6636 8.13045 48.1435 7.94687C47.6233 7.76328 46.889 7.67149 45.9405 7.67149C42.7584 7.67149 40.0812 7.68679 37.9089 7.71739C35.7365 7.74799 34.2525 7.80918 33.457 7.90097L32.7227 1.10848C34.1301 0.955492 35.4458 0.848403 36.6697 0.78721C37.9242 0.726015 39.2857 0.695419 40.7544 0.695419C42.2536 0.664822 44.0588 0.649523 46.17 0.649523ZM42.4984 1.10848V32.7762H32.7227V1.10848H42.4984Z" fill="white"/>
<path d="M81.5452 1.10848C82.3407 1.10848 83.0444 1.33795 83.6564 1.79691C84.2683 2.25586 84.6814 2.88309 84.8955 3.67861L93.1108 32.7762H82.9679L78.1948 12.1692C78.0724 11.5879 77.9654 10.9913 77.8736 10.3793C77.7818 9.73678 77.7053 9.12485 77.6441 8.54351H76.4049C76.3437 9.12485 76.2672 9.73678 76.1755 10.3793C76.0837 10.9913 75.9766 11.5879 75.8542 12.1692L71.0811 32.7762H60.9382L69.1535 3.67861C69.3677 2.88309 69.7807 2.25586 70.3927 1.79691C71.0046 1.33795 71.7083 1.10848 72.5038 1.10848H81.5452ZM85.4463 18.9617V25.9378H68.6027V18.9617H85.4463Z" fill="white"/>
<path d="M108.706 0.465942C110.389 0.465942 111.858 0.511838 113.112 0.603629C114.397 0.69542 115.575 0.833106 116.646 1.01669C117.748 1.20027 118.849 1.46034 119.951 1.79691L119.216 8.95656C118.054 8.92596 116.937 8.91067 115.866 8.91067C114.826 8.91067 113.739 8.91067 112.607 8.91067C111.475 8.88007 110.19 8.86477 108.752 8.86477C107.865 8.86477 107.13 8.98716 106.549 9.23193C105.968 9.44611 105.509 9.85917 105.172 10.4711C104.836 11.0524 104.591 11.8786 104.438 12.9494C104.316 13.9897 104.254 15.3207 104.254 16.9423C104.254 19.0841 104.377 20.7363 104.622 21.899C104.866 23.0311 105.279 23.8266 105.861 24.2856C106.442 24.7139 107.253 24.9281 108.293 24.9281C108.966 24.9281 109.578 24.9128 110.129 24.8822C110.71 24.821 111.23 24.7445 111.689 24.6527C112.148 24.5609 112.516 24.4844 112.791 24.4233L113.755 28.5997C113.388 29.2117 112.776 29.9001 111.919 30.665C111.093 31.4299 110.037 32.0878 108.752 32.6385C107.467 33.1586 105.983 33.4187 104.3 33.4187C101.883 33.4187 99.8943 32.8833 98.3339 31.8124C96.7734 30.7109 95.6261 28.9516 94.8917 26.5344C94.1574 24.1173 93.7903 20.9199 93.7903 16.9423C93.7903 12.873 94.2645 9.64499 95.213 7.25844C96.1921 4.84129 97.7678 3.11257 99.9402 2.07228C102.143 1.00139 105.065 0.465942 108.706 0.465942ZM121.282 14.5558V32.7762H113.938L112.653 27.8654L111.735 26.1673V14.5558H121.282Z" fill="white"/>
<path d="M139.179 0.465942C141.902 0.465942 144.197 0.726016 146.063 1.24616C147.96 1.73571 149.49 2.59242 150.653 3.81629C151.816 5.04017 152.657 6.72299 153.177 8.86477C153.697 10.976 153.957 13.6685 153.957 16.9423C153.957 20.1856 153.697 22.8781 153.177 25.0199C152.657 27.1617 151.816 28.8445 150.653 30.0684C149.49 31.2922 147.96 32.1643 146.063 32.6844C144.197 33.1739 141.902 33.4187 139.179 33.4187C136.487 33.4187 134.192 33.1739 132.295 32.6844C130.429 32.1643 128.914 31.2922 127.751 30.0684C126.589 28.8445 125.747 27.1617 125.227 25.0199C124.707 22.8781 124.447 20.1856 124.447 16.9423C124.447 13.6685 124.707 10.976 125.227 8.86477C125.747 6.72299 126.589 5.04017 127.751 3.81629C128.914 2.59242 130.429 1.73571 132.295 1.24616C134.192 0.726016 136.487 0.465942 139.179 0.465942ZM139.179 7.85508C138.047 7.85508 137.175 8.09985 136.563 8.5894C135.951 9.07895 135.523 9.98155 135.278 11.2972C135.033 12.6129 134.911 14.4946 134.911 16.9423C134.911 19.3901 135.033 21.2718 135.278 22.5874C135.523 23.9031 135.951 24.8057 136.563 25.2953C137.175 25.7848 138.047 26.0296 139.179 26.0296C140.311 26.0296 141.183 25.7848 141.795 25.2953C142.407 24.8057 142.836 23.9031 143.08 22.5874C143.325 21.2718 143.447 19.3901 143.447 16.9423C143.447 14.4946 143.325 12.6129 143.08 11.2972C142.836 9.98155 142.407 9.07895 141.795 8.5894C141.183 8.09985 140.311 7.85508 139.179 7.85508Z" fill="white"/>
<path d="M186.958 1.10848V29.334C186.958 31.6288 185.81 32.7762 183.515 32.7762H179.706C178.666 32.7762 177.886 32.5314 177.365 32.0419C176.876 31.5523 176.371 30.8333 175.851 29.8848L168.967 19.0076C168.538 18.2121 168.141 17.3554 167.773 16.4375C167.437 15.489 167.131 14.5405 166.855 13.592H166.534C166.687 14.5405 166.794 15.5196 166.855 16.5293C166.947 17.5084 166.993 18.4569 166.993 19.3748V32.7762H157.814V4.55062C157.814 2.25586 158.962 1.10848 161.256 1.10848H165.066C166.106 1.10848 166.871 1.35325 167.36 1.8428C167.85 2.33235 168.37 3.05137 168.921 3.99988L175.53 14.3722C175.958 15.1371 176.371 15.9785 176.769 16.8964C177.197 17.8143 177.595 18.7781 177.962 19.7878H178.283C178.161 18.8087 178.054 17.8449 177.962 16.8964C177.901 15.9479 177.87 14.9994 177.87 14.0509L177.824 1.10848H186.958Z" fill="white"/>
</g>
<g filter="url(#filter1_d_402_16)">
<path d="M46.1758 37.2053C48.4093 37.2053 49.572 38.3527 49.6638 40.6475L50.7653 68.8731H41.8157L40.8519 44.6404H40.1635L37.0426 60.7955C36.7366 62.8149 35.4822 63.8246 33.2792 63.8246H28.1389C25.9666 63.8246 24.6968 62.8149 24.3296 60.7955L21.1628 44.6404H20.4744L19.6942 68.8731H10.7446L11.8461 40.6475C11.9379 38.3527 13.1006 37.2053 15.3342 37.2053H23.9166C26.0583 37.2053 27.3128 38.2303 27.68 40.2803L29.9747 52.8556C30.0971 53.6205 30.1889 54.4008 30.2501 55.1963C30.3419 55.9918 30.4184 56.7873 30.4796 57.5828H30.8926C30.9844 56.7873 31.0609 55.9918 31.1221 55.1963C31.2139 54.4008 31.321 53.6205 31.4434 52.8556L33.6005 40.2803C33.9676 38.2303 35.2374 37.2053 37.4098 37.2053H46.1758Z" fill="white"/>
<path d="M68.8089 36.5628C71.532 36.5628 73.8268 36.8229 75.6932 37.343C77.5902 37.8326 79.1201 38.6893 80.2827 39.9132C81.4454 41.137 82.2868 42.8199 82.807 44.9616C83.3271 47.0728 83.5872 49.7653 83.5872 53.0392C83.5872 56.2825 83.3271 58.975 82.807 61.1168C82.2868 63.2585 81.4454 64.9414 80.2827 66.1652C79.1201 67.3891 77.5902 68.2611 75.6932 68.7813C73.8268 69.2708 71.532 69.5156 68.8089 69.5156C66.1164 69.5156 63.8216 69.2708 61.9246 68.7813C60.0582 68.2611 58.5437 67.3891 57.381 66.1652C56.2183 64.9414 55.3769 63.2585 54.8568 61.1168C54.3366 58.975 54.0765 56.2825 54.0765 53.0392C54.0765 49.7653 54.3366 47.0728 54.8568 44.9616C55.3769 42.8199 56.2183 41.137 57.381 39.9132C58.5437 38.6893 60.0582 37.8326 61.9246 37.343C63.8216 36.8229 66.1164 36.5628 68.8089 36.5628ZM68.8089 43.9519C67.6768 43.9519 66.8048 44.1967 66.1929 44.6863C65.581 45.1758 65.1526 46.0784 64.9078 47.3941C64.6631 48.7097 64.5407 50.5914 64.5407 53.0392C64.5407 55.4869 64.6631 57.3686 64.9078 58.6843C65.1526 60 65.581 60.9026 66.1929 61.3921C66.8048 61.8817 67.6768 62.1265 68.8089 62.1265C69.941 62.1265 70.813 61.8817 71.425 61.3921C72.0369 60.9026 72.4652 60 72.71 58.6843C72.9548 57.3686 73.0772 55.4869 73.0772 53.0392C73.0772 50.5914 72.9548 48.7097 72.71 47.3941C72.4652 46.0784 72.0369 45.1758 71.425 44.6863C70.813 44.1967 69.941 43.9519 68.8089 43.9519Z" fill="white"/>
<path d="M116.587 37.2053V65.4309C116.587 67.7257 115.44 68.8731 113.145 68.8731H109.336C108.296 68.8731 107.515 68.6283 106.995 68.1387C106.506 67.6492 106.001 66.9302 105.481 65.9817L98.5964 55.1045C98.168 54.309 97.7703 53.4523 97.4031 52.5343C97.0665 51.5858 96.7606 50.6373 96.4852 49.6888H96.1639C96.3169 50.6373 96.424 51.6164 96.4852 52.6261C96.577 53.6052 96.6229 54.5537 96.6229 55.4716V68.8731H87.4438V40.6475C87.4438 38.3527 88.5912 37.2053 90.886 37.2053H94.6953C95.7356 37.2053 96.5005 37.4501 96.99 37.9397C97.4796 38.4292 97.9997 39.1482 98.5505 40.0967L105.159 50.4691C105.588 51.234 106.001 52.0754 106.399 52.9933C106.827 53.9112 107.225 54.875 107.592 55.8847H107.913C107.791 54.9056 107.684 53.9418 107.592 52.9933C107.531 52.0448 107.5 51.0963 107.5 50.1478L107.454 37.2053H116.587Z" fill="white"/>
<path d="M128.533 37.0218C130.369 37.0218 132.25 37.0371 134.178 37.0677C136.136 37.0677 138.049 37.1135 139.915 37.2053C141.781 37.2665 143.48 37.4042 145.009 37.6184L144.55 44.6404H132.939C132.358 44.6404 131.899 44.7934 131.562 45.0993C131.226 45.4053 131.057 45.803 131.057 46.2926V59.7858C131.057 60.2753 131.226 60.6731 131.562 60.9791C131.899 61.285 132.358 61.438 132.939 61.438H144.55L145.009 68.46C143.48 68.6436 141.781 68.7813 139.915 68.8731C138.049 68.9648 136.136 69.0107 134.178 69.0107C132.25 69.0413 130.369 69.0566 128.533 69.0566C126.361 69.0566 124.571 68.3988 123.163 67.0831C121.786 65.7369 121.098 63.9929 121.098 61.8511V44.2273C121.098 42.0855 121.786 40.3568 123.163 39.0411C124.571 37.6949 126.361 37.0218 128.533 37.0218ZM121.924 49.3676H142.898V55.9765H121.924V49.3676Z" fill="white"/>
<path d="M176.755 37.2053L166.062 59.4645H156.515L145.822 37.2053H156.057L160.049 47.1646C160.325 47.8377 160.524 48.5721 160.646 49.3676C160.768 50.1631 160.891 50.9127 161.013 51.6164H161.61C161.732 50.9127 161.855 50.1631 161.977 49.3676C162.13 48.5415 162.329 47.7918 162.574 47.1187L166.521 37.2053H176.755ZM166.291 53.8194V68.8731H156.332V53.8194H166.291Z" fill="white"/>
</g>
<defs>
<filter id="filter0_d_402_16" x="0.0669108" y="0.465942" width="187.366" height="35.5543" filterUnits="userSpaceOnUse" color-interpolation-filters="sRGB">
<feFlood flood-opacity="0" result="BackgroundImageFix"/>
<feColorMatrix in="SourceAlpha" type="matrix" values="0 0 0 0 0 0 0 0 0 0 0 0 0 0 0 0 0 0 127 0" result="hardAlpha"/>
<feOffset dy="2.12626"/>
<feGaussianBlur stdDeviation="0.237663"/>
<feComposite in2="hardAlpha" operator="out"/>
<feColorMatrix type="matrix" values="0 0 0 0 0 0 0 0 0 0 0 0 0 0 0 0 0 0 0.57 0"/>
<feBlend mode="normal" in2="BackgroundImageFix" result="effect1_dropShadow_402_16"/>
<feBlend mode="normal" in="SourceGraphic" in2="effect1_dropShadow_402_16" result="shape"/>
</filter>
<filter id="filter1_d_402_16" x="10.7446" y="36.5628" width="166.011" height="35.079" filterUnits="userSpaceOnUse" color-interpolation-filters="sRGB">
<feFlood flood-opacity="0" result="BackgroundImageFix"/>
<feColorMatrix in="SourceAlpha" type="matrix" values="0 0 0 0 0 0 0 0 0 0 0 0 0 0 0 0 0 0 127 0" result="hardAlpha"/>
<feOffset dy="2.12626"/>
<feComposite in2="hardAlpha" operator="out"/>
<feColorMatrix type="matrix" values="0 0 0 0 0 0 0 0 0 0 0 0 0 0 0 0 0 0 0.45 0"/>
<feBlend mode="normal" in2="BackgroundImageFix" result="effect1_dropShadow_402_16"/>
<feBlend mode="normal" in="SourceGraphic" in2="effect1_dropShadow_402_16" result="shape"/>
</filter>
</defs>
</svg>
