<svg width="113" height="62" viewBox="0 0 113 62" fill="none" xmlns="http://www.w3.org/2000/svg">
<g clip-path="url(#clip0_267_89)">
<path d="M81.0012 25.7365C82.3437 25.7365 83.385 25.8817 84.1248 26.1722C84.8646 26.4626 85.3921 26.9565 85.7072 27.6537C86.0223 28.3508 86.1799 29.3456 86.1799 30.6383C86.1799 31.9308 86.0223 32.933 85.7072 33.6447C85.4057 34.3564 84.9125 34.8574 84.2276 35.1479C83.5562 35.4239 82.6178 35.5619 81.4122 35.5619C80.508 35.5619 79.6174 35.5037 78.7406 35.3876V40.9647H75.6169V25.9326C76.4252 25.8454 77.1856 25.7946 77.898 25.7801C78.6104 25.751 79.6448 25.7365 81.0012 25.7365ZM80.9395 33.0129C81.4875 32.9983 81.9054 32.9258 82.1931 32.7951C82.4945 32.6644 82.7069 32.4319 82.8302 32.0979C82.9671 31.7639 83.0357 31.2773 83.0357 30.6383C83.0357 29.9992 82.9671 29.5126 82.8302 29.1787C82.7069 28.8446 82.4945 28.6122 82.1931 28.4815C81.9054 28.3508 81.4875 28.2854 80.9395 28.2854H78.7406V33.0129H80.9395ZM92.6174 25.6712C94.2067 25.6712 95.3917 25.918 96.1726 26.4119C96.9673 26.9056 97.3646 27.8206 97.3646 29.1569C97.3646 30.0573 97.2071 30.8562 96.8919 31.5533C96.5905 32.2358 95.9809 33.0928 95.0629 34.124L91.4255 38.1326C91.9598 38.0308 92.6585 37.9801 93.5216 37.9801H97.7756V40.9647H87.7264V39.1129C87.7264 38.8224 87.7607 38.5755 87.8292 38.3722C87.8977 38.1544 88.0141 37.951 88.1785 37.7622L91.6515 33.7972C92.4873 32.8676 93.1175 32.0544 93.5422 31.3572C93.967 30.6601 94.1792 30.0573 94.1792 29.549C94.1792 29.1133 94.0354 28.8301 93.7477 28.6994C93.46 28.5687 92.96 28.5033 92.2475 28.5033C90.7953 28.5033 89.3704 28.5687 87.973 28.6994L87.8497 26.194C88.7814 25.9906 89.6103 25.8526 90.3363 25.7801C91.0625 25.7074 91.8228 25.6712 92.6174 25.6712ZM105.505 25.7365C106.848 25.7365 107.889 25.8817 108.629 26.1722C109.369 26.4626 109.896 26.9565 110.211 27.6537C110.527 28.3508 110.684 29.3456 110.684 30.6383C110.684 31.9308 110.527 32.933 110.211 33.6447C109.91 34.3564 109.417 34.8574 108.732 35.1479C108.061 35.4239 107.121 35.5619 105.916 35.5619C105.012 35.5619 104.121 35.5037 103.245 35.3876V40.9647H100.121V25.9326C100.929 25.8454 101.69 25.7946 102.402 25.7801C103.114 25.751 104.149 25.7365 105.505 25.7365ZM105.443 33.0129C105.991 32.9983 106.409 32.9258 106.697 32.7951C106.998 32.6644 107.211 32.4319 107.334 32.0979C107.471 31.7639 107.54 31.2773 107.54 30.6383C107.54 29.9992 107.471 29.5126 107.334 29.1787C107.211 28.8446 106.998 28.6122 106.697 28.4815C106.409 28.3508 105.991 28.2854 105.443 28.2854H103.245V33.0129H105.443Z" fill="white"/>
<path d="M47.4416 23.4643L21.3404 51.1348C20.1606 52.3851 18.2483 52.3851 17.0689 51.1348L1.7091 34.8518C0.529747 33.6012 0.529747 31.5739 1.7091 30.3236L27.8104 2.65298C28.9901 1.40274 30.9025 1.40274 32.0818 2.65298L47.4416 18.936C48.6214 20.1863 48.6214 22.214 47.4416 23.4643Z" fill="white"/>
<path d="M47.4415 18.9359L45.5249 16.9036C46.5752 18.0171 46.4701 19.9334 45.2908 21.1836L19.1892 48.8543C18.0098 50.105 16.2021 50.2159 15.1517 49.1024L17.0688 51.1347C18.2482 52.3849 20.1605 52.3849 21.3403 51.1347L47.4415 23.464C48.6212 22.2139 48.6212 20.186 47.4415 18.9359Z" fill="#E1E1E1"/>
<path d="M6.72805 33.713C6.5179 33.713 6.30816 33.6278 6.14798 33.458C5.82763 33.1185 5.82763 32.5683 6.14798 32.2287L18.933 18.6752C19.2533 18.3356 19.7726 18.3356 20.0926 18.6752C20.413 19.0149 20.413 19.5655 20.0926 19.9047L7.30769 33.4586C7.14751 33.6278 6.93777 33.713 6.72805 33.713Z" fill="#E1E1E1"/>
<path d="M10.791 38.0202C10.5809 38.0202 10.3712 37.935 10.211 37.7652C9.89061 37.4256 9.89061 36.8754 10.211 36.5358L22.9959 22.9824C23.3163 22.6427 23.8357 22.6427 24.1556 22.9824C24.476 23.322 24.476 23.8726 24.1556 24.2118L11.3707 37.7652C11.2105 37.935 11.0008 38.0202 10.791 38.0202Z" fill="#E1E1E1"/>
<path d="M27.384 8.96006L24.8262 11.6711C23.8208 12.7371 23.8208 14.465 24.8262 15.531C25.8318 16.5969 27.4622 16.5969 28.4677 15.531L31.0251 12.8199C32.0305 11.754 32.0305 10.026 31.0251 8.96006C30.0195 7.89411 28.3891 7.89411 27.384 8.96006Z" fill="#E1E1E1"/>
<path d="M49.9062 31.6366H12.9931C11.325 31.6366 9.97266 33.0702 9.97266 34.8385V57.8663C9.97266 59.6346 11.325 61.0683 12.9931 61.0683H49.9062C51.5747 61.0683 52.9266 59.6346 52.9266 57.8663V34.8385C52.927 33.0702 51.5747 31.6366 49.9062 31.6366Z" fill="white"/>
<path d="M49.9062 31.6366H47.2028C48.8707 31.6366 50.2232 33.0702 50.2232 34.8385V57.8663C50.2232 59.6346 48.8707 61.0683 47.2028 61.0683H49.9062C51.5747 61.0683 52.9266 59.6346 52.9266 57.8663V34.8385C52.927 33.0702 51.5747 31.6366 49.9062 31.6366Z" fill="#E1E1E1"/>
<path d="M9.97266 38.8701H52.927V44.4023H9.97266V38.8701Z" fill="#E1E1E1"/>
<path d="M50.2231 38.8701H52.9266V44.4023H50.2231V38.8701Z" fill="#E1E1E1"/>
<path d="M42.3696 53.2416V56.6536C42.3696 56.9176 42.5712 57.1314 42.8202 57.1314H47.9396C48.1886 57.1314 48.3903 56.9176 48.3903 56.6536V53.2416C48.3903 52.9776 48.1886 52.7639 47.9396 52.7639H42.8202C42.5712 52.7639 42.3696 52.9776 42.3696 53.2416Z" fill="#E9E9EA"/>
<path d="M26.9343 53.2416V56.6536C26.9343 56.9176 27.1363 57.1314 27.3849 57.1314H38.2131C38.4621 57.1314 38.6637 56.9176 38.6637 56.6536V53.2416C38.6637 52.9776 38.4621 52.7639 38.2131 52.7639H27.3849C27.1363 52.7639 26.9343 52.9776 26.9343 53.2416Z" fill="#E9E9EA"/>
<path d="M22.5205 58.0014H17.1261C16.6728 58.0014 16.3059 57.6119 16.3059 57.132C16.3059 56.6515 16.6728 56.2625 17.1261 56.2625H22.5205C22.9737 56.2625 23.3406 56.6515 23.3406 57.132C23.3406 57.6119 22.9737 58.0014 22.5205 58.0014Z" fill="#E1E1E1"/>
</g>
<defs>
<clipPath id="clip0_267_89">
<rect width="112" height="61" fill="white" transform="translate(0.568359 0.872803)"/>
</clipPath>
</defs>
</svg>
