<svg width="92" height="38" viewBox="0 0 92 38" fill="none" xmlns="http://www.w3.org/2000/svg">
<g clip-path="url(#clip0_267_60)">
<path d="M16.9224 23.4935C18.7948 23.4935 20.3127 21.7426 20.3127 19.5828C20.3127 17.4232 18.7948 15.6723 16.9224 15.6723C15.05 15.6723 13.532 17.4232 13.532 19.5828C13.532 21.7426 15.05 23.4935 16.9224 23.4935Z" fill="#E1E1E1"/>
<path d="M14.2028 16.1543C13.1898 14.3526 12.5587 12.3012 12.3605 10.1659C10.8263 8.69129 8.38571 7.9671 5.03873 7.99343C5.00596 8.92911 5.05645 9.86625 5.18942 10.7901C5.87433 15.0878 8.97009 17.8291 12.6208 18.4611L12.9426 18.5085C13.1461 17.5945 13.5856 16.7734 14.2028 16.1543Z" fill="#F54182"/>
<path d="M14.2028 16.1543C13.1898 14.3526 12.5587 12.3012 12.3605 10.1659C10.8263 8.69129 8.38571 7.9671 5.03873 7.99343C5.00596 8.92911 5.05645 9.86625 5.18942 10.7901C5.87433 15.0878 8.97009 17.8291 12.6208 18.4611L12.9426 18.5085C13.1461 17.5945 13.5856 16.7734 14.2028 16.1543Z" fill="white"/>
<path d="M7.76501 25.2947C6.81069 26.9801 6.20111 29.387 5.93628 32.5154C7.28861 32.7849 8.67597 32.7038 9.99782 32.2784C11.0678 31.9063 12.0558 31.2732 12.895 30.4219L13.0868 30.2007C14.4481 28.4901 15.3685 26.3751 15.7442 24.0939C15.1351 23.8875 14.5797 23.5102 14.1278 22.9957C12.2465 24.4611 10.0348 25.2602 7.76501 25.2947Z" fill="#F54182"/>
<path d="M7.76501 25.2947C6.81069 26.9801 6.20111 29.387 5.93628 32.5154C7.28861 32.7849 8.67597 32.7038 9.99782 32.2784C11.0678 31.9063 12.0558 31.2732 12.895 30.4219L13.0868 30.2007C14.4481 28.4901 15.3685 26.3751 15.7442 24.0939C15.1351 23.8875 14.5797 23.5102 14.1278 22.9957C12.2465 24.4611 10.0348 25.2602 7.76501 25.2947Z" fill="white"/>
<path d="M7.10053 17.0312C6.88091 16.8252 6.67059 16.6064 6.4704 16.3755C4.56873 17.0851 2.81179 18.2327 1.30615 19.7489C2.07283 21.0661 3.08636 22.1677 4.27183 22.9722C5.24889 23.6194 6.34503 23.9903 7.47038 24.0545H7.77174C9.80796 24.0224 11.7905 23.2968 13.4702 21.9689C13.1218 21.2963 12.9285 20.5321 12.9086 19.7489C10.7959 19.4622 8.78931 18.5234 7.10053 17.0312Z" fill="#F54182"/>
<path d="M7.10053 17.0312C6.88091 16.8252 6.67059 16.6064 6.4704 16.3755C4.56873 17.0851 2.81179 18.2327 1.30615 19.7489C2.07283 21.0661 3.08636 22.1677 4.27183 22.9722C5.24889 23.6194 6.34503 23.9903 7.47038 24.0545H7.77174C9.80796 24.0224 11.7905 23.2968 13.4702 21.9689C13.1218 21.2963 12.9285 20.5321 12.9086 19.7489C10.7959 19.4622 8.78931 18.5234 7.10053 17.0312Z" fill="white"/>
<path d="M20.5284 29.296C20.5284 29.1553 20.4941 29.0223 20.4734 28.8893C20.1928 27.06 19.6236 25.3034 18.7932 23.7039C18.2302 24.0387 17.604 24.2131 16.9685 24.2122H16.8928C16.4736 26.7042 15.4478 29.0127 13.9319 30.8759V30.9228C14.2716 32.9042 15.309 35.0967 17.0442 37.5005C17.6444 36.9825 18.2021 36.404 18.7106 35.772C19.1682 35.1983 19.5507 34.553 19.8468 33.8559C20.4516 32.4406 20.6882 30.8587 20.5284 29.296Z" fill="#F54182"/>
<path d="M20.5284 29.296C20.5284 29.1553 20.4941 29.0223 20.4734 28.8893C20.1928 27.06 19.6236 25.3034 18.7932 23.7039C18.2302 24.0387 17.604 24.2131 16.9685 24.2122H16.8928C16.4736 26.7042 15.4478 29.0127 13.9319 30.8759V30.9228C14.2716 32.9042 15.309 35.0967 17.0442 37.5005C17.6444 36.9825 18.2021 36.404 18.7106 35.772C19.1682 35.1983 19.5507 34.553 19.8468 33.8559C20.4516 32.4406 20.6882 30.8587 20.5284 29.296Z" fill="white"/>
<path d="M19.1146 15.544C20.1473 13.7111 20.7314 11.8194 20.8666 9.86889V9.79399C20.8891 9.55602 20.9001 9.31666 20.8997 9.07724C20.8861 7.68302 20.5588 6.3167 19.9498 5.11172C19.3403 3.85646 18.4357 2.7368 17.2363 1.75276H17.2287C16.0266 2.73191 15.12 3.85205 14.5089 5.11318C13.8997 6.31817 13.5725 7.68449 13.5588 9.07869C13.5585 9.31819 13.5694 9.55748 13.592 9.79545V9.87041C13.7221 11.7513 14.2712 13.578 15.2394 15.3502C15.844 14.9897 16.5201 14.8181 17.2003 14.8524C17.8803 14.8867 18.5409 15.1256 19.1158 15.5455L19.1146 15.544Z" fill="white"/>
<path d="M30.8243 26.1615C30.8243 26.3802 30.7628 26.5605 30.64 26.702C30.5171 26.8435 30.3606 26.9143 30.1707 26.9143C29.9807 26.9143 29.8244 26.8435 29.7014 26.702C29.5786 26.5605 29.5171 26.3802 29.5171 26.1615V12.5922C29.5171 12.3736 29.5786 12.1934 29.7014 12.0519C29.8244 11.9103 29.9807 11.8395 30.1707 11.8395H33.5225C34.3381 11.8395 35.0643 12.0519 35.7012 12.4765C36.3492 12.8883 36.8519 13.4673 37.2095 14.2136C37.567 14.9471 37.7458 15.7899 37.7458 16.7422C37.7458 17.6815 37.567 18.5179 37.2095 19.2514C36.8519 19.9849 36.3492 20.5575 35.7012 20.9693C35.0643 21.3811 34.3381 21.5869 33.5225 21.5869H30.8243V26.1615ZM33.5225 20.1393C34.0924 20.1393 34.6007 19.9978 35.0476 19.7146C35.4945 19.4187 35.8409 19.0134 36.0866 18.4987C36.3436 17.9839 36.4721 17.3984 36.4721 16.7422C36.4721 16.0731 36.3436 15.4811 36.0866 14.9665C35.8409 14.4388 35.4945 14.0271 35.0476 13.7311C34.6007 13.4352 34.0924 13.2872 33.5225 13.2872H30.8243V20.1393H33.5225Z" fill="white"/>
<path d="M39.8792 17.109C39.8792 16.8903 39.9406 16.7101 40.0636 16.5686C40.1864 16.427 40.3429 16.3563 40.5329 16.3563C40.7227 16.3563 40.8736 16.427 40.9853 16.5686C41.1082 16.7101 41.1696 16.8903 41.1696 17.109V26.1616C41.1696 26.3803 41.1082 26.5605 40.9853 26.7021C40.8736 26.8436 40.7227 26.9143 40.5329 26.9143C40.3429 26.9143 40.1864 26.8436 40.0636 26.7021C39.9406 26.5605 39.8792 26.3803 39.8792 26.1616V17.109ZM40.5329 12.245C40.7786 12.245 40.9909 12.3415 41.1696 12.5345C41.3484 12.7275 41.4378 12.9784 41.4378 13.2872C41.4378 13.5832 41.3484 13.8341 41.1696 14.04C40.9909 14.246 40.773 14.3488 40.5161 14.3488C40.2591 14.3488 40.0412 14.246 39.8624 14.04C39.6949 13.8341 39.6111 13.5832 39.6111 13.2872C39.6111 12.9784 39.7004 12.7275 39.8792 12.5345C40.058 12.3415 40.2759 12.245 40.5329 12.245Z" fill="white"/>
<path d="M48.6283 16.2601C49.4998 16.2601 50.2874 16.4982 50.9913 16.9743C51.7064 17.4375 52.265 18.0809 52.6671 18.9044C53.0805 19.728 53.2872 20.6416 53.2872 21.6453V26.1812C53.2872 26.3871 53.2257 26.5608 53.1029 26.7024C52.98 26.8439 52.8236 26.9148 52.6336 26.9148C52.4437 26.9148 52.2873 26.8503 52.1644 26.7217C52.0415 26.5801 51.9801 26.4 51.9801 26.1812V25.0232C51.589 25.6408 51.0918 26.1297 50.4885 26.4901C49.8852 26.8375 49.2204 27.0112 48.4942 27.0112C47.645 27.0112 46.8741 26.7796 46.1814 26.3164C45.4999 25.8402 44.9581 25.1968 44.5558 24.3862C44.1648 23.5627 43.9692 22.6489 43.9692 21.6453C43.9692 20.6416 44.1704 19.728 44.5726 18.9044C44.986 18.0809 45.5446 17.4375 46.2485 16.9743C46.9635 16.4982 47.7568 16.2601 48.6283 16.2601ZM48.6283 25.6601C49.2651 25.6601 49.8405 25.4864 50.3545 25.1389C50.8684 24.7915 51.2706 24.3154 51.5611 23.7106C51.8627 23.0929 52.0136 22.4045 52.0136 21.6453C52.0136 20.8861 51.8627 20.2041 51.5611 19.5993C51.2706 18.9816 50.8684 18.4992 50.3545 18.1517C49.8405 17.7914 49.2651 17.6112 48.6283 17.6112C47.9914 17.6112 47.4105 17.7914 46.8853 18.1517C46.3714 18.4992 45.9636 18.9816 45.6619 19.5993C45.3714 20.2041 45.2262 20.8861 45.2262 21.6453C45.2262 22.4045 45.3714 23.0929 45.6619 23.7106C45.9636 24.3154 46.3714 24.7915 46.8853 25.1389C47.4105 25.4864 47.9914 25.6601 48.6283 25.6601Z" fill="white"/>
<path d="M58.9644 16.2601C59.7017 16.2601 60.3442 16.4081 60.8916 16.704C61.4391 16.9871 61.8805 17.386 62.2154 17.9007C62.3051 18.0681 62.3497 18.2161 62.3497 18.3447C62.3497 18.5635 62.2606 18.7371 62.0817 18.8658C62.0034 18.9302 61.8973 18.9624 61.763 18.9624C61.5285 18.9624 61.333 18.8658 61.1766 18.6728C60.6291 17.9522 59.8806 17.5919 58.9308 17.5919C58.3164 17.5919 57.8248 17.7398 57.4561 18.0358C57.0874 18.3189 56.903 18.6792 56.903 19.1167C56.903 19.58 57.0762 19.9532 57.4226 20.2363C57.7689 20.5065 58.3834 20.7252 59.266 20.8925C60.4615 21.1242 61.3162 21.5037 61.83 22.0314C62.3443 22.5461 62.6008 23.1895 62.6008 23.9615C62.6008 24.5534 62.4448 25.0811 62.1317 25.5442C61.83 26.0075 61.4056 26.3679 60.8581 26.6252C60.3106 26.8825 59.6906 27.0112 58.9979 27.0112C58.3052 27.0112 57.6404 26.876 57.0036 26.6059C56.3667 26.3357 55.8528 25.956 55.4618 25.4671C55.35 25.3127 55.2942 25.1647 55.2942 25.0232C55.2942 24.8044 55.3835 24.6114 55.5623 24.4441C55.6964 24.3283 55.836 24.2703 55.9812 24.2703C56.1712 24.2703 56.3332 24.3604 56.4673 24.5405C56.7354 24.9009 57.0874 25.1776 57.5231 25.3706C57.9701 25.5636 58.4615 25.6601 58.9979 25.6601C59.78 25.6601 60.3666 25.5057 60.7576 25.1968C61.1486 24.888 61.3497 24.4827 61.3609 23.9808C61.3609 23.5176 61.1653 23.1316 60.7744 22.8227C60.3833 22.5138 59.7632 22.2823 58.9141 22.1279C57.8192 21.9219 56.9979 21.5681 56.4505 21.0662C55.9142 20.5516 55.6461 19.9339 55.6461 19.2133C55.6461 18.2739 55.959 17.5469 56.5846 17.0322C57.2214 16.5175 58.0147 16.2601 58.9644 16.2601Z" fill="white"/>
<path d="M68.8702 25.4283C69.049 25.4283 69.1941 25.4992 69.3062 25.6407C69.4176 25.7823 69.4736 25.9624 69.4736 26.1812C69.4736 26.3871 69.4067 26.5607 69.2724 26.7023C69.1381 26.8439 68.9707 26.9146 68.7696 26.9146H68.4179C67.8259 26.9146 67.2947 26.7538 66.8256 26.4321C66.3564 26.0975 65.9879 25.6536 65.7193 25.1003C65.4627 24.534 65.3339 23.8971 65.3339 23.1894V18.0358H64.245C64.0661 18.0358 63.921 17.9779 63.809 17.862C63.7084 17.7334 63.6584 17.579 63.6584 17.3988C63.6584 17.2058 63.7084 17.0514 63.809 16.9356C63.921 16.8069 64.0661 16.7426 64.245 16.7426H65.3339V13.7508C65.3339 13.532 65.3898 13.3519 65.5018 13.2103C65.6247 13.0687 65.7813 12.998 65.971 12.998C66.1607 12.998 66.3173 13.0687 66.4401 13.2103C66.563 13.3519 66.6244 13.532 66.6244 13.7508V16.7426H68.5185C68.6973 16.7426 68.8364 16.8069 68.937 16.9356C69.049 17.0514 69.105 17.2058 69.105 17.3988C69.105 17.579 69.049 17.7334 68.937 17.862C68.8364 17.9779 68.6973 18.0358 68.5185 18.0358H66.6244V23.1894C66.6244 23.8456 66.7918 24.3861 67.1273 24.8107C67.4627 25.2225 67.8927 25.4283 68.4179 25.4283H68.8702Z" fill="white"/>
<path d="M75.7138 16.2407C76.1829 16.2407 76.5514 16.3115 76.8194 16.453C77.0989 16.5946 77.2386 16.794 77.2386 17.0514C77.2386 17.1286 77.2332 17.1865 77.2217 17.2251C77.1771 17.4052 77.1043 17.5275 77.0037 17.5917C76.9146 17.6561 76.7863 17.6883 76.6183 17.6883C76.5177 17.6883 76.3449 17.6755 76.0992 17.6497C76.0094 17.6368 75.8758 17.6305 75.6969 17.6305C74.8586 17.6305 74.172 17.8877 73.6354 18.4025C73.1103 18.9173 72.8477 19.5863 72.8477 20.4099V26.1812C72.8477 26.4127 72.7917 26.5929 72.6802 26.7215C72.5683 26.8502 72.4123 26.9146 72.2111 26.9146C72.01 26.9146 71.8534 26.8502 71.7414 26.7215C71.63 26.5929 71.574 26.4127 71.574 26.1812V17.0899C71.574 16.8583 71.63 16.6782 71.7414 16.5495C71.8534 16.4208 72.01 16.3565 72.2111 16.3565C72.4123 16.3565 72.5683 16.4208 72.6802 16.5495C72.7917 16.6782 72.8477 16.8583 72.8477 17.0899V17.9392C73.1717 17.3988 73.5855 16.9806 74.0877 16.6846C74.5905 16.3887 75.1325 16.2407 75.7138 16.2407Z" fill="white"/>
<path d="M79.5178 17.109C79.5178 16.8903 79.5798 16.7101 79.7022 16.5686C79.8253 16.427 79.9814 16.3563 80.1713 16.3563C80.3611 16.3563 80.5125 16.427 80.6239 16.5686C80.7463 16.7101 80.8083 16.8903 80.8083 17.109V26.1616C80.8083 26.3803 80.7463 26.5605 80.6239 26.7021C80.5125 26.8436 80.3611 26.9143 80.1713 26.9143C79.9814 26.9143 79.8253 26.8436 79.7022 26.7021C79.5798 26.5605 79.5178 26.3803 79.5178 26.1616V17.109ZM80.1713 12.245C80.4168 12.245 80.6294 12.3415 80.8083 12.5345C80.9871 12.7275 81.0766 12.9784 81.0766 13.2872C81.0766 13.5832 80.9871 13.8341 80.8083 14.04C80.6294 14.246 80.4113 14.3488 80.1548 14.3488C79.8975 14.3488 79.6802 14.246 79.5013 14.04C79.3335 13.8341 79.2495 13.5832 79.2495 13.2872C79.2495 12.9784 79.3389 12.7275 79.5178 12.5345C79.6959 12.3415 79.914 12.245 80.1713 12.245Z" fill="white"/>
<path d="M90.8812 25.7566C91.0035 25.9367 91.0655 26.1105 91.0655 26.2778C91.0655 26.4579 91.0035 26.6124 90.8812 26.7409C90.7698 26.8568 90.6411 26.9148 90.496 26.9148C90.361 26.9148 90.2496 26.8889 90.161 26.8375C90.0708 26.786 89.9876 26.6959 89.9092 26.5673L87.1604 22.5332L84.3119 26.683C84.2115 26.8375 84.0601 26.9148 83.8592 26.9148C83.6804 26.9148 83.5353 26.8503 83.4239 26.7217C83.3227 26.5929 83.2725 26.4385 83.2725 26.2584C83.2725 26.0526 83.3282 25.8788 83.4403 25.7373L86.3398 21.5681L83.591 17.5533C83.4788 17.4118 83.4239 17.238 83.4239 17.0321C83.4239 16.8391 83.4733 16.6782 83.5745 16.5496C83.6749 16.4209 83.82 16.3566 84.0099 16.3566C84.1997 16.3566 84.3621 16.4337 84.4963 16.5882L87.1941 20.5837L89.859 16.704C90.0151 16.4725 90.1994 16.3566 90.412 16.3566C90.5909 16.3566 90.7305 16.4209 90.8309 16.5496C90.9423 16.6782 90.9988 16.8327 90.9988 17.0128C90.9988 17.2059 90.9369 17.3925 90.8145 17.5725L88.0319 21.5489L90.8812 25.7566Z" fill="white"/>
</g>
<defs>
<clipPath id="clip0_267_60">
<rect width="91" height="37" fill="white" transform="translate(0.568359 0.872803)"/>
</clipPath>
</defs>
</svg>
