<svg width="125" height="32" viewBox="0 0 125 32" fill="none" xmlns="http://www.w3.org/2000/svg">
<g clip-path="url(#clip0_267_104)">
<path d="M120.438 9.52L117.581 17.6572C117.499 17.7519 117.499 17.9411 117.499 18.0357L117.418 18.2249L117.336 18.0357C117.336 17.9411 117.254 17.7519 117.254 17.6572L114.397 9.52H110.724L115.54 23.429L113.499 28.7277H117.173L123.948 9.52H120.438Z" fill="white"/>
<path d="M93.3359 10.2776C92.6827 9.70989 91.8662 9.33145 90.8869 9.23682C89.254 9.04759 87.7029 9.70989 86.6416 10.94V9.42604H83.2947V23.3351H86.6416V16.0494C86.6416 14.4409 86.8869 13.9678 87.1317 13.5893C87.54 12.8323 88.2745 12.4539 89.1725 12.4539C90.0704 12.4539 90.8869 12.927 91.2946 13.6839C91.5399 14.2516 91.6214 15.0085 91.6214 15.387C91.6214 16.6171 91.6214 23.3351 91.6214 23.3351H94.9683V14.914C94.9683 12.7377 94.4786 11.2238 93.3359 10.2776Z" fill="white"/>
<path d="M77.0096 9.61477C75.3767 8.95241 73.5808 9.04705 71.9484 9.89862C70.8871 10.4663 69.9076 11.4125 69.336 12.6426C68.7649 13.6834 68.5195 15.0081 68.5195 16.4273C68.5195 17.8466 68.7649 19.1713 69.336 20.2121C69.9076 21.2529 70.6422 22.1991 71.6216 22.7668C72.6014 23.3345 73.7442 23.713 74.8055 23.713C75.3767 23.713 75.9483 23.6183 76.5195 23.4291C77.0096 23.2399 77.4993 23.0506 77.9891 22.7668C78.9685 22.1044 79.7849 21.2529 80.2746 20.2121C80.8462 19.1713 81.0911 17.8466 81.0911 16.4273C81.0911 13.3049 79.5401 10.6556 77.0096 9.61477ZM77.9075 16.6166C77.8257 17.8466 77.4993 18.8875 76.8463 19.5497C76.3566 20.0229 75.6216 20.3067 74.7237 20.4014C73.8258 20.4014 73.1726 20.1175 72.6014 19.5497C71.9484 18.8875 71.6216 17.8466 71.5401 16.6166C71.4587 15.1973 71.9484 14.0618 72.8463 13.3049C73.336 12.9264 73.989 12.6426 74.6422 12.6426C75.3767 12.6426 75.9483 12.9264 76.5195 13.3049C77.4993 13.9673 77.9891 15.1973 77.9075 16.6166Z" fill="white"/>
<path d="M64.6014 10.2767C63.9483 9.70897 63.1318 9.33047 62.1524 9.23584C61.989 9.23584 61.7441 9.23584 61.5808 9.23584C60.2746 9.23584 59.1319 9.89818 58.1524 11.2228L57.989 11.5067H57.6624C57.4174 11.0336 57.0911 10.6551 56.7643 10.3713C56.1113 9.80355 55.2953 9.42511 54.3154 9.33047C52.7644 9.14125 51.5402 9.70897 50.4787 11.0336V9.61434H47.1318V23.5234H50.4787V16.2377V16.0484C50.4787 14.5345 50.6421 14.156 50.887 13.683C51.2952 12.926 52.0298 12.4529 52.8463 12.5475C53.6623 12.5475 54.3973 13.0206 54.8055 13.7776C55.1319 14.3453 55.1319 15.0077 55.1319 15.6699V23.4287H58.4788V15.9539C58.4788 14.5345 58.6421 14.0614 58.887 13.5883C59.2953 12.8314 60.0298 12.4529 60.8462 12.4529C61.6623 12.4529 62.3154 12.926 62.7236 13.683C62.9685 14.156 63.0504 14.7238 63.0504 15.1022C63.0504 15.2915 63.0504 15.4807 63.0504 15.5753V23.3341H66.3972V14.8184C66.3972 14.0614 66.3154 13.3045 66.1523 12.6421C65.8257 11.696 65.3359 10.8444 64.6014 10.2767Z" fill="white"/>
<path d="M107.539 19.1717C107.05 19.7394 105.907 20.7802 104.356 20.8749C103.05 20.9694 102.07 20.4964 101.335 19.6449C101.009 19.2662 100.764 18.6987 100.601 18.1309H109.825V18.0362C109.907 17.4685 109.988 16.9955 109.988 16.4278C109.988 15.9546 109.907 15.2923 109.744 14.4407C109.335 12.8322 108.519 11.6022 107.458 10.656C106.233 9.61518 105.091 9.33131 104.764 9.33131C102.397 8.85824 99.7029 10.0882 98.3152 12.643C97.3355 14.4407 97.4173 16.2385 97.4173 16.8062C97.4173 17.4685 97.4988 19.5502 98.9684 21.4426C100.683 23.6188 103.05 23.7135 103.784 23.808C107.05 23.9027 109.254 21.5371 109.744 21.0641L107.539 19.1717ZM101.826 13.3053C102.315 12.9268 102.886 12.643 103.621 12.643C104.356 12.643 104.928 12.9268 105.499 13.3053C105.989 13.7784 106.397 14.3461 106.642 15.0084H100.764C100.928 14.3461 101.254 13.6838 101.826 13.3053Z" fill="white"/>
<path d="M24.4388 1.28838C17.2552 1.28838 11.5409 8.00635 11.5409 16.2382C11.5409 24.5647 17.3368 31.188 24.4388 31.188C31.5408 31.188 37.3367 24.47 37.3367 16.2382C37.3367 8.00635 31.5408 1.28838 24.4388 1.28838ZM24.4388 21.7261C21.8266 21.7261 19.6225 19.1714 19.6225 16.1435C19.6225 13.1158 21.8266 10.5611 24.4388 10.5611C27.051 10.5611 29.2551 13.1158 29.2551 16.1435C29.1735 19.2659 27.051 21.7261 24.4388 21.7261Z" fill="white"/>
<path d="M11.4588 5.54593V27.3083H6.88739L1.00989 5.54593H11.4588Z" fill="white"/>
</g>
<defs>
<clipPath id="clip0_267_104">
<rect width="124" height="31" fill="white" transform="translate(0.568359 0.872803)"/>
</clipPath>
</defs>
</svg>
