<svg width="105" height="40" viewBox="0 0 105 40" fill="none" xmlns="http://www.w3.org/2000/svg">
<g clip-path="url(#clip0_267_79)">
<path d="M8.10321 39.5598V37.4322C8.10321 36.6167 7.61897 36.0848 6.78883 36.0848C6.37376 36.0848 5.92411 36.2267 5.61281 36.6876C5.37069 36.2975 5.0248 36.0848 4.50597 36.0848C4.16009 36.0848 3.81419 36.1912 3.53748 36.5812V36.1557H2.8457V39.5598H3.57207V37.6805C3.57207 37.0777 3.88337 36.794 4.36761 36.794C4.85186 36.794 5.09398 37.1131 5.09398 37.6805V39.5598H5.82034V37.6805C5.82034 37.0777 6.16624 36.794 6.61589 36.794C7.10013 36.794 7.34225 37.1131 7.34225 37.6805V39.5598H8.10321ZM18.8603 36.1557H17.6844V35.1274H16.9579V36.1557H16.3008V36.8294H16.9579V38.3896C16.9579 39.1697 17.2693 39.6307 18.0993 39.6307C18.4107 39.6307 18.7566 39.5243 18.9987 39.3825L18.7911 38.7442C18.5836 38.886 18.3415 38.9215 18.1685 38.9215C17.8226 38.9215 17.6844 38.7088 17.6844 38.3542V36.8294H18.8603V36.1557ZM24.9826 36.0848C24.5675 36.0848 24.2908 36.2975 24.1179 36.5812V36.1557H23.3914V39.5598H24.1179V37.645C24.1179 37.0777 24.3599 36.7585 24.8096 36.7585C24.9479 36.7585 25.1209 36.794 25.2593 36.8294L25.4668 36.1203C25.3284 36.1203 25.1209 36.0848 24.9826 36.0848ZM15.7127 36.4394C15.3668 36.1912 14.8826 36.0848 14.3638 36.0848C13.5336 36.0848 12.9802 36.5103 12.9802 37.184C12.9802 37.7514 13.3953 38.0705 14.1217 38.1768L14.4675 38.2123C14.848 38.2832 15.0556 38.3896 15.0556 38.5669C15.0556 38.8152 14.7789 38.9924 14.2946 38.9924C13.8104 38.9924 13.4299 38.8152 13.1878 38.6379L12.8419 39.2052C13.2224 39.4889 13.7412 39.6307 14.2601 39.6307C15.2285 39.6307 15.7819 39.1697 15.7819 38.5315C15.7819 37.9287 15.3323 37.6095 14.6405 37.5031L14.2946 37.4677C13.9834 37.4322 13.7412 37.3613 13.7412 37.1485C13.7412 36.9004 13.9834 36.7585 14.3638 36.7585C14.7789 36.7585 15.1939 36.9358 15.4015 37.0422L15.7127 36.4394ZM34.9787 36.0848C34.5637 36.0848 34.2869 36.2975 34.114 36.5812V36.1557H33.3876V39.5598H34.114V37.645C34.114 37.0777 34.3561 36.7585 34.8058 36.7585C34.9442 36.7585 35.1171 36.794 35.2554 36.8294L35.463 36.1203C35.3246 36.1203 35.1171 36.0848 34.9787 36.0848ZM25.7089 37.8578C25.7089 38.886 26.4007 39.6307 27.473 39.6307C27.9572 39.6307 28.303 39.5243 28.6489 39.2406L28.303 38.6379C28.0264 38.8506 27.7497 38.9569 27.4383 38.9569C26.8504 38.9569 26.4353 38.5315 26.4353 37.8578C26.4353 37.2194 26.8504 36.794 27.4383 36.7585C27.7497 36.7585 28.0264 36.8649 28.303 37.0777L28.6489 36.4748C28.303 36.1912 27.9572 36.0848 27.473 36.0848C26.4007 36.0848 25.7089 36.8294 25.7089 37.8578ZM32.4538 37.8578V36.1557H31.7273V36.5812C31.4853 36.262 31.1394 36.0848 30.6897 36.0848C29.7558 36.0848 29.0295 36.8294 29.0295 37.8578C29.0295 38.886 29.7558 39.6307 30.6897 39.6307C31.174 39.6307 31.5199 39.4534 31.7273 39.1342V39.5598H32.4538V37.8578ZM29.7558 37.8578C29.7558 37.2549 30.1363 36.7585 30.7589 36.7585C31.3469 36.7585 31.762 37.2194 31.762 37.8578C31.762 38.4605 31.3469 38.9569 30.7589 38.9569C30.1363 38.9569 29.7558 38.4605 29.7558 37.8578ZM21.074 36.0848C20.1055 36.0848 19.4137 36.794 19.4137 37.8578C19.4137 38.9215 20.1055 39.6307 21.1087 39.6307C21.5928 39.6307 22.0771 39.4889 22.4576 39.1697L22.1117 38.6379C21.835 38.8506 21.4891 38.9924 21.1432 38.9924C20.6936 38.9924 20.2439 38.7797 20.1401 38.1768H22.5959V37.8932C22.6651 36.794 22.0079 36.0848 21.074 36.0848ZM21.074 36.7585C21.5236 36.7585 21.835 37.0422 21.9042 37.5741H20.1747C20.2785 37.0777 20.5552 36.7585 21.074 36.7585ZM39.1293 37.8578V34.8082H38.403V36.5812C38.1609 36.262 37.815 36.0848 37.3653 36.0848C36.4315 36.0848 35.7051 36.8294 35.7051 37.8578C35.7051 38.886 36.4315 39.6307 37.3653 39.6307C37.8496 39.6307 38.1955 39.4534 38.403 39.1342V39.5598H39.1293V37.8578ZM36.4315 37.8578C36.4315 37.2549 36.8119 36.7585 37.4345 36.7585C38.0226 36.7585 38.4376 37.2194 38.4376 37.8578C38.4376 38.4605 38.0226 38.9569 37.4345 38.9569C36.8119 38.9569 36.4315 38.4605 36.4315 37.8578ZM12.1501 37.8578V36.1557H11.4237V36.5812C11.1816 36.262 10.8357 36.0848 10.3861 36.0848C9.45217 36.0848 8.72581 36.8294 8.72581 37.8578C8.72581 38.886 9.45217 39.6307 10.3861 39.6307C10.8703 39.6307 11.2162 39.4534 11.4237 39.1342V39.5598H12.1501V37.8578ZM9.48676 37.8578C9.48676 37.2549 9.86727 36.7585 10.4899 36.7585C11.0779 36.7585 11.4929 37.2194 11.4929 37.8578C11.4929 38.4605 11.0779 38.9569 10.4899 38.9569C9.86727 38.9569 9.48676 38.4605 9.48676 37.8578Z" fill="white"/>
<path d="M15.3826 10.4466H26.2781V30.5164H15.3826V10.4466Z" fill="#E1E1E1"/>
<path d="M16.1625 20.4812C16.1625 16.4033 18.0303 12.7865 20.9012 10.4462C18.7913 8.74418 16.128 7.71587 13.2225 7.71587C6.33931 7.71587 0.770508 13.4248 0.770508 20.4812C0.770508 27.5375 6.33931 33.2464 13.2225 33.2464C16.128 33.2464 18.7913 32.2181 20.9012 30.5161C18.0303 28.1758 16.1625 24.559 16.1625 20.4812Z" fill="white"/>
<path d="M40.9783 20.4812C40.9783 27.5375 35.4095 33.2464 28.5263 33.2464C25.6209 33.2464 22.9575 32.2181 20.8476 30.5161C23.7185 28.1758 25.5862 24.559 25.5862 20.4812C25.5862 16.4033 23.7185 12.7865 20.813 10.4462C22.9575 8.74418 25.6209 7.71587 28.5263 7.71587C35.4095 7.71587 40.9783 13.4248 40.9783 20.4812Z" fill="white"/>
<path d="M74.2935 30.2898H70.0303L72.6968 14.5031H76.9598L74.2935 30.2898Z" fill="white"/>
<path d="M89.7484 14.8891C88.9075 14.5697 87.5738 14.2171 85.9245 14.2171C81.7145 14.2171 78.7497 16.3666 78.7315 19.4399C78.6965 21.7072 80.8541 22.9667 82.4679 23.7226C84.1173 24.4952 84.678 24.9995 84.678 25.688C84.6612 26.7457 83.3452 27.2332 82.1177 27.2332C80.4157 27.2332 79.5036 26.9818 78.1177 26.3934L77.5563 26.1412L76.9597 29.685C77.9596 30.1212 79.8018 30.5082 81.7145 30.5251C86.1878 30.5251 89.1 28.4089 89.1345 25.1338C89.1516 23.3367 88.0122 21.9597 85.556 20.8344C84.0649 20.1121 83.1517 19.6251 83.1517 18.8861C83.1692 18.2142 83.9241 17.526 85.6072 17.526C86.9932 17.4922 88.0116 17.8112 88.7829 18.1305L89.1686 18.2981L89.7484 14.8891Z" fill="white"/>
<path d="M95.4145 24.6972C95.7655 23.7902 97.1166 20.2802 97.1166 20.2802C97.099 20.3138 97.4667 19.3565 97.6775 18.7688L97.9755 20.1291C97.9755 20.1291 98.7825 23.9078 98.958 24.6972C98.2922 24.6972 96.2567 24.6972 95.4145 24.6972ZM100.677 14.5031H97.3794C96.3626 14.5031 95.59 14.7884 95.1508 15.813L88.8186 30.2896H93.2919C93.2919 30.2896 94.0282 28.3411 94.187 27.9215C94.6772 27.9215 99.0295 27.9215 99.66 27.9215C99.7825 28.4757 100.169 30.2896 100.169 30.2896H104.116L100.677 14.5031Z" fill="white"/>
<path d="M66.4695 14.5031L62.2943 25.2681L61.838 23.0848C61.0662 20.5656 58.6453 17.8286 55.9438 16.4676L59.7681 30.2731H64.2764L70.9775 14.5031H66.4695Z" fill="white"/>
<path d="M58.4174 14.5031H51.5582L51.488 14.8221C56.8387 16.1321 60.3822 19.29 61.8381 23.0856L60.347 15.8301C60.1016 14.8219 59.3471 14.5364 58.4174 14.5031Z" fill="#E1E1E1"/>
</g>
<defs>
<clipPath id="clip0_267_79">
<rect width="104" height="39" fill="white" transform="translate(0.568359 0.872803)"/>
</clipPath>
</defs>
</svg>
